<?xml version="1.0" standalone="no"?>
<!DOCTYPE svg PUBLIC "-//W3C//DTD SVG 20010904//EN"
 "http://www.w3.org/TR/2001/REC-SVG-20010904/DTD/svg10.dtd">
<svg version="1.0" xmlns="http://www.w3.org/2000/svg"
 width="476.000000pt" height="476.000000pt" viewBox="0 0 476.000000 476.000000"
 preserveAspectRatio="xMidYMid meet">
<metadata>
Created by potrace 1.14, written by Peter Selinger 2001-2017
</metadata>
<g transform="translate(0.000000,476.000000) scale(0.100000,-0.100000)"
fill="#000000" stroke="none">
<path d="M2088 4292 c-15 -10 -49 -40 -75 -68 -42 -44 -55 -51 -98 -57 -106
-12 -244 -98 -418 -259 -230 -213 -239 -219 -392 -243 -51 -8 -106 -20 -123
-26 -37 -13 -70 -55 -101 -128 -20 -47 -23 -67 -19 -140 4 -74 9 -96 42 -161
55 -109 126 -180 182 -180 35 0 46 25 48 107 1 63 7 87 27 123 26 47 29 48
102 39 39 -5 52 -24 65 -98 16 -90 50 -137 120 -167 31 -13 63 -28 70 -32 13
-7 61 -133 62 -164 0 -25 -48 -59 -68 -48 -45 24 -89 39 -107 36 -11 -2 -26 1
-32 6 -8 6 -39 7 -80 3 -38 -4 -84 -9 -103 -10 -40 -3 -60 -7 -77 -18 -6 -4
-18 -4 -26 -1 -8 3 -18 0 -22 -5 -3 -6 -11 -9 -16 -6 -5 4 -9 1 -9 -5 0 -7 -7
-9 -16 -6 -9 4 -23 1 -32 -6 -8 -7 -17 -12 -19 -10 -1 1 -4 2 -5 1 -2 0 -10
-2 -18 -4 -44 -9 -304 -91 -360 -113 -116 -45 -182 -103 -288 -252 -59 -84
-135 -181 -203 -261 -65 -76 -70 -90 -71 -189 0 -103 20 -160 72 -203 38 -32
97 -64 131 -71 83 -16 218 -69 254 -100 l40 -34 1 -154 c0 -150 3 -180 17
-194 4 -4 7 -13 7 -21 0 -23 86 -148 121 -174 19 -15 57 -36 86 -49 65 -28 87
-51 119 -131 32 -79 34 -81 98 -118 87 -49 179 -73 281 -73 97 0 144 12 216
58 61 38 109 41 198 10 93 -33 134 -33 200 -1 63 31 76 25 84 -41 3 -27 13
-54 27 -69 23 -24 109 -52 145 -47 29 4 86 -8 81 -17 -6 -10 -4 -10 125 -16
90 -4 118 -1 198 20 51 14 102 25 115 25 12 0 76 -19 141 -42 111 -39 128 -42
225 -43 l105 0 88 48 c96 52 91 51 287 47 64 -1 127 3 143 9 30 12 190 118
222 147 11 11 37 31 57 46 34 26 98 109 98 127 0 27 45 60 102 76 66 18 200
68 230 85 10 6 23 10 29 10 27 0 222 125 259 167 43 49 46 61 55 198 3 50 15
178 26 285 12 110 18 217 14 245 -4 36 -30 95 -92 210 -47 88 -100 187 -117
219 -53 101 -140 184 -258 247 -125 68 -380 188 -411 193 -12 3 -24 5 -27 6
-3 2 -8 2 -11 2 -4 -1 -19 10 -34 24 -19 18 -26 31 -22 47 11 44 56 213 62
234 5 16 0 26 -21 40 -47 31 -196 25 -308 -11 l-90 -29 -35 21 c-20 11 -59 32
-86 46 -38 19 -58 38 -79 74 -16 27 -42 57 -59 67 l-30 18 19 -32 c24 -41 13
-59 -58 -89 l-55 -24 -49 36 c-113 83 -230 136 -299 136 -32 0 -33 -1 -40 -52
-4 -29 -9 -62 -12 -73 -25 -118 -21 -196 14 -256 15 -25 15 -29 0 -53 -28 -42
-65 -60 -126 -62 -31 -1 -62 -2 -69 -3 -22 -2 -9 -43 21 -65 25 -18 45 -21
152 -24 l123 -4 12 57 c9 41 22 68 48 97 35 38 38 40 87 36 70 -6 125 -56 132
-119 8 -66 -12 -126 -47 -144 -43 -22 -44 -31 -9 -80 32 -45 87 -85 115 -85
16 0 98 40 127 62 17 13 18 16 1 75 -18 67 -15 96 17 137 56 72 179 88 226 30
27 -34 29 -79 8 -152 -17 -57 -14 -72 14 -72 15 0 188 -74 200 -85 1 -2 0 -8
-3 -14 -9 -14 -38 -2 -29 13 3 6 -3 3 -14 -7 -21 -18 -21 -18 -26 0 -2 10 -4
2 -3 -19 0 -20 4 -34 9 -31 4 2 4 9 1 15 -5 7 -2 8 6 3 9 -6 11 -4 5 5 -6 9
-4 11 5 5 9 -6 11 -4 5 5 -6 9 -4 11 5 5 10 -6 6 -15 -17 -34 -65 -56 -78 -64
-147 -88 -66 -24 -85 -25 -266 -27 l-195 -1 -110 43 c-60 24 -147 66 -192 93
-45 27 -88 49 -96 49 -27 0 -51 -40 -58 -99 -8 -68 -27 -99 -79 -124 -45 -21
-61 -21 -86 -2 -18 14 -17 14 9 5 68 -24 77 -4 12 28 -25 12 -48 29 -52 38 -3
9 1 40 11 68 22 72 20 118 -10 217 -23 76 -24 89 -14 140 10 47 9 65 -5 118
-10 34 -22 64 -28 68 -6 3 -24 -10 -41 -29 -36 -42 -59 -50 -130 -49 -67 1
-76 3 -108 25 -43 28 -116 46 -189 46 -97 0 -169 29 -203 80 -25 39 -26 41 -9
66 18 28 85 74 105 73 7 0 2 -5 -11 -10 -13 -5 -22 -12 -19 -15 3 -3 43 8 88
23 82 28 105 45 190 138 41 45 95 71 168 81 29 3 55 11 58 15 3 5 12 9 21 9 8
0 28 9 43 20 16 11 50 23 76 27 l47 6 -5 -75 c-9 -135 -99 -269 -214 -319 -50
-21 -174 -38 -238 -32 -77 7 -200 52 -209 78 -9 21 -40 19 -60 -3 -24 -27 -21
-35 7 -17 22 15 26 14 61 -10 39 -26 122 -55 159 -55 22 0 28 -3 125 -62 53
-33 71 -38 121 -38 55 0 61 2 84 33 20 26 26 46 26 85 0 48 2 53 45 87 66 55
102 136 111 250 3 50 12 93 18 97 22 15 -45 8 -74 -7 -41 -21 -39 -2 4 41 41
41 67 43 95 8 17 -21 21 -42 22 -103 1 -75 1 -76 15 -43 44 100 22 228 -48
285 -22 17 -51 41 -66 53 l-26 21 37 36 c68 69 73 159 14 288 -59 130 -102
164 -217 174 -42 4 -62 0 -82 -13z m74 -582 c64 -53 81 -190 24 -190 -6 0 -5
5 2 12 18 18 15 70 -7 120 -26 60 -42 72 -96 66 -25 -3 -45 -2 -45 2 0 33 77
27 122 -10z m-27 -20 c7 -12 -19 -12 -55 0 -22 7 -21 8 12 9 20 1 40 -3 43 -9z
m-399 -68 c12 -6 24 -9 26 -7 9 9 101 -79 130 -124 15 -25 28 -55 28 -68 0
-38 -15 -26 -28 21 -29 112 -158 178 -211 110 -30 -38 -26 -82 12 -156 37 -72
83 -102 148 -96 20 2 35 0 32 -4 -8 -14 -82 -48 -103 -48 -25 0 -125 91 -148
135 -44 83 -51 131 -24 184 28 58 87 80 138 53z m48 -76 c34 -14 68 -54 86
-100 15 -41 -6 -31 -25 12 -13 28 -23 38 -39 38 -14 -1 -21 5 -21 19 -1 25
-28 22 -68 -7 l-29 -20 12 22 c6 11 18 24 26 27 13 5 13 7 2 14 -22 14 18 11
56 -5z m16 -212 c0 -2 -9 0 -20 6 -11 6 -20 13 -20 16 0 2 9 0 20 -6 11 -6 20
-13 20 -16z m968 -43 c11 -6 36 -30 56 -53 l36 -42 -32 -28 c-18 -15 -46 -34
-63 -42 -16 -8 -48 -33 -69 -55 -22 -22 -43 -38 -48 -35 -17 11 -3 134 25 214
3 8 8 27 11 42 5 24 9 26 35 18 15 -4 37 -13 49 -19z m954 -261 c-4 -110 -17
-148 -64 -183 -57 -44 -79 -40 -106 17 -62 129 -27 226 93 255 80 19 80 18 77
-89z m-1480 -120 c-46 -41 -117 -66 -158 -56 -14 4 -24 10 -21 13 4 3 0 18 -8
32 -16 32 -7 55 15 41 22 -14 120 -11 155 4 54 23 63 6 17 -34z m58 -184 c0
-36 -3 -44 -17 -42 -26 4 -39 31 -24 50 7 9 17 13 22 10 5 -3 9 2 9 10 0 9 2
16 5 16 3 0 5 -20 5 -44z m-790 30 c0 -2 -8 -10 -17 -17 -16 -13 -17 -12 -4 4
13 16 21 21 21 13z m-31 -49 c-2 -1 -13 -9 -24 -17 -19 -14 -19 -14 -6 3 7 9
18 17 24 17 6 0 8 -1 6 -3z m701 -19 c0 -13 -30 -48 -41 -48 -4 0 -5 9 -2 20
3 13 0 20 -8 20 -11 0 -11 2 -2 8 19 12 53 12 53 0z m-35 -198 c8 -16 28 -39
44 -51 28 -20 28 -22 13 -52 -30 -62 -124 -179 -135 -168 -11 11 6 162 24 211
8 22 16 59 18 83 2 17 22 5 36 -23z m1602 -107 c-2 -16 -4 -5 -4 22 0 28 2 40
4 28 2 -13 2 -35 0 -50z m-13 -110 c20 -64 20 -73 1 -73 -9 0 -12 -6 -8 -16 5
-14 3 -15 -15 -5 -13 7 -19 17 -16 26 4 8 1 15 -5 15 -6 0 -11 14 -11 30 0 17
5 30 10 30 6 0 10 19 11 43 0 47 6 39 33 -50z m-1150 25 c-5 -8 -2 -9 10 -5
12 5 15 3 9 -6 -4 -6 -6 -21 -4 -32 2 -19 2 -19 -20 2 -19 18 -20 24 -9 37 15
19 24 21 14 4z m391 -4 c28 -3 64 -8 80 -11 40 -7 62 -6 221 13 59 7 79 -8 35
-26 -43 -17 -66 -47 -104 -130 -19 -42 -42 -81 -51 -89 -12 -10 -16 -32 -16
-94 0 -74 -15 -147 -30 -147 -4 0 -21 18 -39 40 -36 45 -51 86 -51 140 0 22
-10 50 -26 74 -15 21 -39 66 -54 100 -16 33 -42 74 -59 90 -43 42 -41 59 7 52
20 -3 60 -9 87 -12z m805 -19 c0 -5 -5 -3 -10 5 -5 8 -10 20 -10 25 0 6 5 3
10 -5 5 -8 10 -19 10 -25z m-80 -137 c0 -11 -29 -23 -36 -15 -3 3 -4 10 0 15
7 11 36 11 36 0z m-1803 -217 c22 -11 75 -30 117 -43 69 -20 76 -25 71 -43 -4
-11 -7 -25 -7 -31 -1 -6 -15 -18 -32 -28 -17 -10 -28 -15 -24 -11 9 9 -10 28
-36 38 -16 6 -17 5 -6 -8 11 -13 10 -14 -4 -9 -9 3 -16 12 -16 18 0 14 -49 40
-58 31 -3 -2 -11 0 -18 6 -8 6 -21 9 -29 5 -8 -3 -15 -1 -15 5 0 5 -8 9 -17 7
-24 -4 -30 44 -8 66 21 21 33 20 82 -3z m-443 -40 c32 -17 64 -31 72 -31 8 0
14 -6 14 -12 0 -16 -45 -38 -57 -28 -4 3 -27 13 -51 20 -23 7 -47 19 -53 27
-10 11 -14 10 -25 -4 -13 -17 -14 -17 -7 1 5 15 3 17 -7 11 -10 -6 -12 -4 -7
8 3 10 2 17 -3 17 -15 0 -7 24 10 31 18 7 36 1 114 -40z m1094 15 c28 -25 69
-123 56 -135 -4 -3 -9 0 -12 7 -11 33 -71 87 -120 109 -61 27 -60 43 3 43 32
0 51 -7 73 -24z m2169 -13 c-3 -10 -5 -4 -5 12 0 17 2 24 5 18 2 -7 2 -21 0
-30z m-3943 -78 c14 -39 -74 -245 -105 -245 -11 0 -19 6 -20 13 0 9 -2 9 -6
-1 -7 -17 -23 -5 -23 18 0 10 -3 20 -7 23 -5 2 -2 2 5 0 8 -2 10 2 5 10 -4 6
-9 22 -11 35 -2 20 11 28 41 23 5 -1 6 3 3 8 -4 5 -2 12 4 16 6 4 8 11 4 16
-3 5 -10 7 -15 3 -5 -3 -7 -9 -4 -14 3 -5 1 -11 -4 -15 -6 -3 -8 3 -6 15 2 11
0 20 -6 20 -5 0 -9 4 -9 9 0 6 10 8 21 6 21 -4 21 -4 4 15 -10 11 -13 20 -7
20 6 0 14 9 17 21 4 11 9 18 12 16 2 -3 0 -15 -7 -26 -8 -16 -8 -21 2 -21 8 0
15 12 16 26 2 32 11 46 22 39 5 -3 11 -1 15 5 7 12 51 -14 59 -35z m2326 -27
c0 -10 -7 -18 -15 -18 -8 0 -15 5 -15 10 0 6 -6 9 -12 8 -8 -2 -14 12 -16 37
l-3 40 30 -29 c17 -17 31 -38 31 -48z m-555 11 c20 -22 20 -22 0 -11 -11 5
-29 20 -40 33 -20 22 -20 22 0 11 11 -5 29 -20 40 -33z m1425 2 c0 -5 -7 -11
-15 -15 -8 -3 -15 -12 -15 -19 0 -8 7 -20 15 -27 8 -7 15 -16 15 -21 0 -5 -9
0 -21 12 -11 11 -23 18 -26 16 -10 -10 39 -48 54 -43 11 4 13 2 9 -9 -3 -9 9
-30 29 -52 18 -20 31 -41 28 -47 -3 -5 -2 -7 3 -4 5 3 18 -3 29 -14 17 -16 17
-18 2 -13 -12 5 -17 2 -17 -9 0 -9 5 -16 10 -16 6 0 10 -7 10 -15 0 -8 3 -15
8 -15 4 0 15 -12 25 -25 13 -18 14 -23 3 -19 -8 3 -17 1 -21 -5 -3 -6 0 -9 7
-6 16 6 45 -11 35 -21 -4 -4 -26 -8 -49 -8 l-43 -1 -37 71 c-20 39 -57 101
-82 138 -56 83 -58 105 -9 145 39 32 53 38 53 22z m-1393 -143 c-2 -18 -4 -4
-4 32 0 36 2 50 4 33 2 -18 2 -48 0 -65z m-263 47 c27 -19 65 -37 85 -40 126
-20 156 -50 50 -52 -78 -1 -131 -22 -196 -78 -65 -56 -60 -41 9 26 56 53 61
61 45 70 -15 9 -16 13 -5 27 11 15 11 15 -2 6 -22 -17 -75 17 -57 36 10 10 9
11 -1 5 -11 -6 -12 -3 -3 14 7 11 15 21 19 21 4 0 29 -16 56 -35z m339 -41
c114 34 154 32 200 -8 32 -28 29 -53 -4 -35 -15 7 -24 7 -35 -2 -18 -15 -18
-29 1 -29 8 0 13 6 11 13 -1 6 -1 9 1 4 3 -4 8 -5 13 -2 4 3 10 -2 13 -10 4
-10 1 -12 -10 -8 -12 5 -14 3 -8 -7 6 -10 4 -12 -9 -7 -13 5 -17 3 -13 -6 6
-16 -22 -19 -40 -4 -7 5 -13 6 -13 2 0 -4 -6 -4 -13 1 -7 5 -6 2 3 -6 8 -8 16
-24 17 -35 1 -11 0 -14 -3 -7 -3 6 -12 12 -20 12 -9 0 -12 5 -8 12 4 7 3 8 -4
4 -18 -11 -15 -39 2 -33 10 4 13 1 9 -9 -6 -17 1 -18 30 -3 21 10 21 9 3 -5
-18 -15 -18 -17 -3 -34 10 -10 14 -22 10 -25 -3 -4 -1 -7 5 -7 6 0 26 -14 44
-32 l33 -32 -40 29 c-22 16 -82 65 -133 108 -84 72 -93 83 -87 106 3 14 9 40
13 56 4 21 7 25 10 12 3 -14 9 -17 25 -13z m-140 -81 c-13 -2 -35 -2 -50 0
-16 2 -5 4 22 4 28 0 40 -2 28 -4z m-86 -9 c-3 -3 -12 -4 -19 -1 -8 3 -5 6 6
6 11 1 17 -2 13 -5z m59 -82 c19 -13 23 -41 8 -57 -8 -8 -13 -19 -10 -24 3 -5
-3 -11 -14 -14 -11 -3 -18 -1 -14 4 3 5 0 9 -5 9 -6 0 -11 -3 -11 -7 0 -5 -20
-21 -45 -36 -48 -31 -54 -43 -29 -61 13 -10 13 -12 -5 -12 -11 0 -19 4 -18 9
1 5 -4 12 -10 14 -7 3 -13 -1 -13 -8 0 -6 -8 -18 -17 -25 -17 -13 -17 -14 4
-20 13 -3 20 -11 17 -16 -4 -5 9 -26 28 -46 58 -63 65 -78 18 -42 -112 87
-160 134 -159 152 0 7 32 33 70 58 38 25 91 64 117 87 46 42 67 50 88 35z
m-269 -144 c-3 -7 -5 -2 -5 12 0 14 2 19 5 13 2 -7 2 -19 0 -25z m132 -92 c0
-7 -2 -6 -6 2 -2 6 -14 12 -26 12 -18 0 -19 2 -7 10 16 10 41 -5 39 -24z
m-286 -70 c-4 -6 -1 -6 8 1 14 11 16 9 14 -17 -2 -28 -15 -57 -15 -33 0 6 -7
14 -16 17 -14 5 -15 4 -4 -9 7 -8 9 -15 5 -15 -4 0 -1 -7 6 -17 13 -15 12 -15
-8 -3 -12 8 -20 17 -18 20 2 4 -2 7 -9 7 -15 0 -9 -27 8 -39 8 -5 7 -8 -1 -8
-7 0 -21 9 -32 21 -12 13 -21 17 -26 10 -3 -6 -1 -11 4 -11 6 0 11 -8 11 -17
0 -15 -2 -16 -10 -3 -8 12 -10 12 -10 1 0 -8 -3 -11 -7 -8 -3 4 -13 -2 -21
-14 -12 -18 -12 -22 4 -40 9 -10 12 -19 7 -19 -6 0 -14 7 -17 16 -3 8 -11 12
-17 8 -7 -4 -9 -3 -6 2 3 6 -3 15 -14 22 -22 14 -23 -3 -1 -27 7 -7 11 -20 8
-27 -3 -8 1 -14 8 -14 13 0 76 -64 76 -76 0 -9 -74 52 -119 98 -38 39 -54 78
-32 78 12 0 106 65 155 107 37 31 41 32 58 17 9 -9 15 -22 11 -28z"/>
<path d="M693 1815 c0 -7 6 -11 14 -8 7 3 13 6 13 8 0 2 -6 5 -13 8 -8 3 -14
-1 -14 -8z"/>
<path d="M623 1651 c0 -10 6 -18 13 -18 7 0 10 7 6 15 -4 11 -1 13 9 7 8 -5
11 -4 6 0 -14 16 -36 13 -34 -4z"/>
<path d="M2780 1571 c0 -6 4 -13 10 -16 6 -3 7 1 4 9 -7 18 -14 21 -14 7z"/>
<path d="M2065 1150 c3 -5 8 -10 11 -10 2 0 4 5 4 10 0 6 -5 10 -11 10 -5 0
-7 -4 -4 -10z"/>
<path d="M2085 3407 c-48 -22 -95 -82 -95 -122 0 -59 44 -85 143 -85 70 0 90
12 131 74 29 43 34 92 12 121 -18 25 -145 33 -191 12z m135 -31 c0 -14 -51
-38 -107 -51 -21 -4 -33 -3 -33 4 0 14 56 43 100 52 19 4 36 7 38 8 1 0 2 -5
2 -13z"/>
<path d="M2880 2925 c-9 -23 -14 -26 -37 -20 -34 8 -43 -6 -43 -71 0 -40 5
-55 23 -72 36 -34 86 -29 125 11 53 55 42 117 -30 162 -27 17 -28 17 -38 -10z
m65 -135 c3 -6 -1 -7 -9 -4 -18 7 -21 14 -7 14 6 0 13 -4 16 -10z"/>
<path d="M3263 2841 c-38 -23 -47 -48 -38 -102 14 -84 89 -106 145 -43 25 29
30 43 28 72 -2 25 -8 37 -18 37 -8 0 -21 12 -28 28 -16 32 -44 35 -89 8z m-3
-111 c0 -5 -2 -10 -4 -10 -3 0 -8 5 -11 10 -3 6 -1 10 4 10 6 0 11 -4 11 -10z"/>
<path d="M3536 2567 c3 -10 9 -15 12 -12 3 3 0 11 -7 18 -10 9 -11 8 -5 -6z"/>
<path d="M2987 2532 l-37 -25 32 -28 c40 -34 44 -34 87 -8 l34 20 -34 35 c-18
19 -35 34 -38 33 -4 -1 -23 -13 -44 -27z"/>
<path d="M3560 2539 c0 -5 -6 -7 -12 -3 -7 4 -10 4 -6 -1 9 -9 -11 -37 -21
-31 -4 3 -7 -3 -7 -13 0 -10 6 -18 12 -18 7 0 9 7 6 16 -5 14 -3 14 10 3 11
-9 18 -10 23 -2 4 6 2 9 -3 8 -6 -2 -9 2 -8 7 0 6 3 9 6 8 3 -1 7 7 7 18 1 10
0 19 -3 19 -2 0 -4 -5 -4 -11z"/>
</g>
</svg>
