<?xml version="1.0" standalone="no"?>
<!DOCTYPE svg PUBLIC "-//W3C//DTD SVG 1.1//EN" "http://www.w3.org/Graphics/SVG/1.1/DTD/svg11.dtd" >
<svg xmlns="http://www.w3.org/2000/svg" xmlns:xlink="http://www.w3.org/1999/xlink" version="1.1">
<metadata>
Created by FontForge 20170731 at Fri Jan  1 02:30:17 1904
 By Aleksey,,,
Copyright (c) by ParaGraph Intl. 1994
</metadata>
<defs>
<font id="TatianaCTT" horiz-adv-x="425" >
  <font-face 
    font-family="TatianaCTT"
    font-weight="400"
    font-stretch="normal"
    units-per-em="1000"
    panose-1="0 0 0 0 0 0 0 0 0 0"
    ascent="800"
    descent="-200"
    x-height="498"
    cap-height="695"
    bbox="-185 -449 1065 938"
    underline-thickness="20"
    underline-position="-163"
    unicode-range="U+0020-2219"
  />
<missing-glyph horiz-adv-x="587" 
d="M40 0v671h507v-671h-507zM80 40h427v591h-427v-591z" />
    <glyph glyph-name=".notdef" horiz-adv-x="587" 
d="M40 0v671h507v-671h-507zM80 40h427v591h-427v-591z" />
    <glyph glyph-name=".null" horiz-adv-x="0" 
 />
    <glyph glyph-name="nonmarkingreturn" horiz-adv-x="333" 
 />
    <glyph glyph-name="space" unicode=" " horiz-adv-x="419" 
 />
    <glyph glyph-name="exclam" unicode="!" horiz-adv-x="413" 
d="M381 779v-19q0 -22 -7.5 -56.5t-18 -72t-21.5 -73t-17 -60.5q-7 -30 -12.5 -69t-15 -74t-26.5 -59.5t-48 -24.5q-33 0 -44 27t-11 65q0 33 28 144q33 134 70 218q50 113 92 113q15 0 23 -12.5t8 -46.5zM269 104q-4 -39 -37.5 -65.5t-73.5 -26.5q-16 0 -29 12t-13 30
q0 41 24 70.5t53 29.5q32 0 55.5 -12.5t20.5 -37.5z" />
    <glyph glyph-name="quotedbl" unicode="&#x22;" horiz-adv-x="431" 
d="M330 796q0 -12 -6.5 -30.5t-15.5 -38t-18.5 -38.5t-15.5 -34q-2 -10 -2 -13q0 -11 3 -26.5l6 -31t6 -28t3 -18.5q0 -9 -7.5 -23.5t-19 -28t-24 -23.5t-21.5 -10q-37 0 -50.5 25.5t-13.5 69.5q0 96 55 197q51 95 87 95q21 0 27.5 -11t6.5 -33zM498 796q0 -12 -6.5 -30.5
t-15.5 -38t-18.5 -38.5t-15.5 -34q-2 -10 -2 -12q0 1 3 -11.5t6.5 -30.5t6.5 -36t3 -27q0 -10 -8 -24.5t-19 -28t-24 -23t-22 -9.5q-37 0 -50 26t-13 69q0 96 54 197q51 95 87 95q21 0 27.5 -11t6.5 -33z" />
    <glyph glyph-name="numbersign" unicode="#" horiz-adv-x="1013" 
d="M627 468l-185 -26l-22 -109q40 5 91 14t103 18q7 34 10 57t3 46zM993 312q0 -40 -23.5 -63.5t-56.5 -23.5q-18 0 -43 14.5t-44 14.5l-103 -13q-1 -4 -7.5 -32.5t-17.5 -82.5q-14 -58 -21 -93q-8 -37 -13 -57.5t-6 -22.5q-16 -40 -53 -40q-18 0 -36.5 15t-18.5 36
q0 11 4 40.5t10.5 67.5t14 80.5t13.5 79.5q-26 -4 -47 -7.5t-44.5 -7.5t-52 -9.5t-69.5 -14.5q2 -2 2 -11q0 -13 -5 -32.5t-12.5 -41t-15.5 -43t-15 -37.5q-8 -20 -11.5 -38.5t-11 -33t-23 -23t-47.5 -8.5q-5 0 -13.5 3.5t-17 9t-15 13t-6.5 14.5q0 -2 4.5 20.5t11 52
t14.5 57t14 35.5q-20 -8 -37.5 -7.5t-33.5 0.5q-17 0 -24 20.5t-7 46.5q0 19 12.5 34t33.5 27t47.5 22t53.5 18q0 25 6.5 52.5t14.5 60.5q-16 -5 -45.5 -12.5t-58.5 -10t-50 4t-21 28.5q0 26 20 49t60 39q31 13 64.5 24t65.5 22q13 39 26.5 74.5t26.5 66.5q52 123 95 123
q14 0 28 -16t14 -30q0 -47 -8 -87t-24 -89q20 0 45 3t50 7t46.5 8t35.5 6q10 28 20 55.5t20 55.5q14 24 45 24q35 0 45 -13t10 -38q0 -30 -12 -59q96 -13 109 -17q73 -21 73 -72q0 -18 -20 -30t-51 -19.5t-68 -11.5t-70 -6q-3 -5 -5 -17.5t-4.5 -27.5t-4.5 -29t-4 -23
q27 6 40 8.5t41 2.5t57 -4t52 -13.5t37.5 -26t14.5 -41.5z" />
    <glyph glyph-name="dollar" unicode="$" horiz-adv-x="621" 
d="M600 723q0 -27 -18.5 -41.5t-44.5 -14.5q-22 0 -66.5 -11.5t-89.5 -30t-78.5 -41t-33.5 -45.5q0 -19 10 -31t32.5 -22.5t57.5 -21.5t84 -29q63 -23 99.5 -72t36.5 -113q0 -33 -21 -76t-53.5 -82.5t-70.5 -67.5t-72 -31q-6 -62 -14 -83q-18 -43 -67 -43q-31 0 -46.5 26.5
t-15.5 61.5q0 13 3 24q-11 0 -49 10.5t-78.5 29.5t-71.5 46t-27 60q1 10 11 26.5t18 16.5q1 0 31 -11t70 -24t79 -24t59 -11q85 0 135.5 41.5t50.5 99.5q0 55 -58 79q-8 3 -38.5 14t-66 25t-66.5 27t-40 19q-65 44 -65 108q0 15 3 30q15 84 153 168q4 2 29.5 16t72.5 39
q3 24 3 44q0 13 -0.5 24.5t-0.5 22.5v12q1 14 24 28t43 14q24 0 33 -15.5t9 -49.5q0 -12 -1.5 -26t-2.5 -21q64 0 86.5 -16.5t22.5 -57.5z" />
    <glyph glyph-name="percent" unicode="%" horiz-adv-x="935" 
d="M913 302q0 -78 -85 -187q-98 -126 -206 -126q-58 0 -91 41q-29 37 -29 89q0 20 18 58.5t43 80t52.5 79.5t45.5 58q80 86 150 86q44 0 73 -49.5t29 -129.5zM749 811q0 -32 -52 -143q-19 -43 -48.5 -103.5t-69.5 -139.5q-45 -89 -71 -164.5t-48.5 -145t-48.5 -137
t-70 -140.5q-13 -24 -50 -24q-23 0 -39.5 21.5t-16.5 48.5q0 12 78 199q31 74 69.5 164t84.5 196q43 97 69.5 157t37.5 82q-3 -2 -14 -5.5t-23.5 -8t-24.5 -8.5t-17 -7q3 -11 6 -31t3 -32q0 -57 -121 -148q-116 -86 -190 -86q-26 0 -49.5 10.5t-41.5 28.5t-29 42t-11 51
q0 21 17 55.5t41 71t51 70t47 53.5q74 73 137 73q15 0 26 -5.5t20 -11.5t17.5 -11.5t19.5 -5.5q20 0 95 24q43 13 86 27t87 28q18 0 30.5 -12.5t12.5 -32.5zM790 278q0 29 -10 41t-42 12q-13 0 -34.5 -23t-42 -52t-35.5 -57t-15 -38q0 -25 4.5 -39t23.5 -13q63 6 107 53
t44 116zM363 606q0 22 -11.5 33t-35.5 31q-16 -10 -32 -19t-29 -20q-29 -23 -43.5 -52.5t-14.5 -59.5q0 -16 17.5 -18.5t40 3t44.5 15.5t31 19q33 33 33 68z" />
    <glyph glyph-name="ampersand" unicode="&#x26;" horiz-adv-x="612" 
d="M597 104q-13 -23 -26 -39.5t-30 -16.5q-10 0 -32 10.5t-45.5 24t-43.5 26t-26 15.5q-41 -81 -105 -127q-53 -38 -88 -38q-32 0 -61 13.5t-51.5 36.5t-36 54t-13.5 67q0 64 20 110q10 25 78 97q-28 39 -42.5 70.5t-14.5 68.5q0 71 60 146q13 16 39 41t54.5 47.5t55.5 39
t42 16.5q46 0 75 -17q44 -27 44 -98q0 -43 -31.5 -112t-93.5 -158l62 -62q20 57 53.5 94.5t64.5 33.5q15 -2 23 -10t8 -30q10 5 -10.5 -29.5t-58.5 -110.5q23 -20 47 -40.5t46 -41.5q20 -18 28.5 -39.5t8.5 -41.5zM335 600q0 14 -7.5 31.5t-20.5 19.5q-19 2 -36 -14.5
t-29.5 -40t-19.5 -48t-7 -39.5q0 -19 7.5 -34.5t23.5 -32.5q31 42 58 91q31 53 31 67zM317 190q-19 16 -39 30q-28 19 -44 30t-19 13q-36 -35 -36 -79q0 -28 14.5 -53.5t33.5 -25.5q27 0 44 16q2 1 46 69z" />
    <glyph glyph-name="quotesingle" unicode="'" horiz-adv-x="329" 
d="M330 796q0 -12 -6.5 -30.5t-15.5 -38t-18.5 -38.5t-15.5 -34q-2 -10 -2 -13q0 -11 3 -26.5l6 -31t6 -28t3 -18.5q0 -9 -7.5 -23.5t-19 -28t-24 -23.5t-21.5 -10q-37 0 -50.5 25.5t-13.5 69.5q0 96 55 197q51 95 87 95q21 0 27.5 -11t6.5 -33z" />
    <glyph glyph-name="parenleft" unicode="(" horiz-adv-x="521" 
d="M439 18q-2 -19 -17 -31.5t-37 -19.5t-47 -10t-48 -3q-22 0 -45.5 11t-45 29.5t-39 41.5t-29.5 47q-44 90 -44 215q0 79 60 194q25 48 59 101.5t78 112.5q43 57 86 96q50 45 79 45q14 0 20.5 -6.5t6.5 -32.5q0 -8 -14.5 -30.5t-34 -47t-38 -47t-25.5 -30.5
q-30 -41 -51 -73.5t-34 -57.5q-45 -88 -45 -175q0 -123 41.5 -189.5t119.5 -66.5q9 0 17.5 -7.5t15 -19t9.5 -24t2 -22.5z" />
    <glyph glyph-name="parenright" unicode=")" horiz-adv-x="454" 
d="M397 446q0 -121 -97 -297q-101 -185 -181 -185q-32 0 -32 37q65 103 118 217q58 123 58 242q0 48 -13 94.5t-37 83.5q-3 5 -17.5 17t-31 26.5t-29.5 29t-13 24.5q0 12 10 28.5t24 31.5t30.5 25.5t29.5 10.5q61 0 114 -86q67 -109 67 -299z" />
    <glyph glyph-name="asterisk" unicode="*" horiz-adv-x="691" 
d="M718 535q1 -3 1 -15q0 -22 -10 -36t-32 -14q-16 0 -33.5 5t-43.5 20q4 -23 8 -47t4 -45q0 -25 -7.5 -39.5t-25.5 -14.5q-11 0 -23.5 8.5t-24.5 21t-21 26t-12 23.5q-4 -21 -12 -42.5t-19.5 -39t-25.5 -28.5t-32 -11q-17 0 -23.5 11t-6.5 32q0 7 1.5 18.5t2.5 22.5t2.5 21
t1.5 14q-25 -34 -57 -66q-82 -87 -126 -87q-18 0 -36 13.5t-18 29.5q0 9 13.5 26.5t34.5 39.5t47 47t51 50q-19 2 -38.5 3.5t-37.5 5.5q-42 8 -42 47q0 20 12.5 35t32.5 26t46.5 19t54.5 14q-3 5 -16.5 19t-28.5 30.5t-27 32t-12 23.5q0 3 8 17.5t20 30t25.5 28.5t25.5 13
q14 0 31 -11t34 -27.5t34 -36t31 -37.5q6 12 12.5 26t15 26.5t18.5 21t22 8.5q25 0 34 -22.5t16 -42.5q19 22 24 26.5t19 4.5q21 0 30 -11t9 -25q0 -16 -17 -41t-43 -48q53 0 88.5 -26.5t40.5 -72.5z" />
    <glyph glyph-name="plus" unicode="+" horiz-adv-x="883" 
d="M881 411q0 -42 -21.5 -65.5t-62.5 -23.5q-3 0 -15 -0.5t-28 -1.5t-33 -1.5t-30 -0.5q-29 0 -70.5 -4.5t-76.5 -8.5q-6 -38 -9.5 -65t-6 -48t-3 -37.5t-0.5 -33.5q0 -69 -14 -91q-23 -35 -107 -35q-24 0 -34 21t-10 51q0 12 3.5 36t8.5 54.5t12 64t14 63.5
q-31 -7 -55.5 -12t-41.5 -8q-109 -21 -149 -21q-4 -1 -16.5 0.5t-25.5 6t-23.5 14t-10.5 24.5q0 72 200 117q37 8 76 14.5t80 11.5q8 86 30 138q34 82 98 82q33 0 33 -45q0 -1 -2.5 -19.5t-5 -41.5t-5 -45.5t-2.5 -33.5q45 0 73 1t49.5 2t41 2t48.5 1q35 0 63 -15.5
t28 -46.5z" />
    <glyph glyph-name="comma" unicode="," horiz-adv-x="431" 
d="M260 130q0 -99 -50 -222q-64 -157 -159 -157q-5 0 -11.5 13t-6.5 18q33 76 59 141t26 128q0 25 7 50.5t19.5 46.5t30 34t37.5 13q28 -1 38 -19t10 -46z" />
    <glyph glyph-name="hyphenminus" unicode="-" horiz-adv-x="764" 
d="M682 288q0 -31 -25.5 -55.5t-59.5 -24.5q-22 5 -44 14t-53 14l-347 -44q-28 0 -46.5 10.5t-18.5 31.5q0 42 113 77q31 10 85 20.5t113 19.5t113 14.5t85 5.5q54 0 69.5 -16.5t15.5 -66.5z" />
    <glyph glyph-name="period" unicode="." horiz-adv-x="397" 
d="M260 68q0 -10 -8 -21t-20.5 -20.5t-28.5 -15.5t-31 -6q-16 0 -34 14t-33.5 33.5t-26 40.5t-10.5 35q0 12 11.5 28t28 29.5t33.5 23t29 9.5q17 0 33 -16.5t29 -40.5t20.5 -49.5t7.5 -43.5z" />
    <glyph glyph-name="slash" unicode="/" horiz-adv-x="469" 
d="M531 834q0 -8 -11.5 -31t-28.5 -53t-34.5 -62t-29.5 -59q-60 -133 -112.5 -284.5t-105.5 -297.5q-25 -71 -59 -106t-62 -35t-36 12.5t-8 30.5t5.5 37.5t10.5 33.5q17 49 31.5 89t27.5 72q18 46 43.5 107t59.5 137q135 307 184 389q43 73 85 73q20 0 30 -15.5t10 -37.5z
" />
    <glyph glyph-name="zero" unicode="0" horiz-adv-x="552" 
d="M604 483q0 -44 -16.5 -97.5t-45 -108t-67.5 -106t-84 -91t-94 -63.5t-98 -24q-77 0 -124 80q-40 68 -40 159q0 63 60 167q25 43 44 70t33 40q32 31 60 58t53 50q97 87 141 87q85 0 133 -65q45 -61 45 -156zM470 457q0 38 -22.5 68t-55.5 30q-16 0 -39.5 -15.5t-47.5 -38
t-46 -47.5t-34 -44q-54 -84 -54 -178q0 -15 3 -32.5t9 -32.5t15.5 -25t23.5 -10q79 0 158 88q90 100 90 237z" />
    <glyph glyph-name="one" unicode="1" horiz-adv-x="357" 
d="M399 640q0 -28 -17.5 -73.5t-41 -94.5t-47 -95t-36.5 -75q-19 -44 -30.5 -94t-28 -93.5t-44 -72t-77.5 -28.5q-31 0 -40 12.5t-9 43.5q0 9 51 101q19 35 38 82.5t41 108.5q22 62 49.5 119.5t57.5 108.5q56 98 88 98q18 0 32 -17t14 -31z" />
    <glyph glyph-name="two" unicode="2" horiz-adv-x="516" 
d="M532 73q0 -11 -9 -24.5t-22 -25.5t-26.5 -20t-22.5 -8q-21 7 -38 12.5t-30 9.5q-76 22 -131 22q-18 0 -48.5 -4.5t-60.5 -9.5t-53 -9.5t-24 -4.5q-26 0 -43.5 15.5t-17.5 39.5q0 16 40 63t102 129q38 51 63 84t35 49q31 42 49 76q34 61 31 91q0 22 -1 23q-5 9 -22 9
q-4 0 -23.5 -11.5t-41.5 -26t-42 -26t-26 -11.5q-2 0 -7.5 4t-11 8.5t-10 9.5t-4.5 6q0 29 29 59t69 55t80.5 40.5t64.5 15.5q41 0 63 -31q20 -28 20 -61q0 -55 -48 -148q-37 -71 -102 -168l-48 -70t-47 -70q17 4 42.5 6t45.5 2h33q38 0 73 -7.5t61.5 -21t42.5 -32t16 -39.5
z" />
    <glyph glyph-name="three" unicode="3" horiz-adv-x="589" 
d="M571 333q0 -46 -29 -109t-74 -120.5t-99.5 -98t-104.5 -40.5q-29 0 -70.5 21.5t-80 54t-66 69.5t-27.5 68q0 12 10 28t24.5 30.5t30 24.5t26.5 10q17 0 35 -27.5t39 -60.5t47.5 -60.5t59.5 -27.5q27 0 53 19t47 46.5t34 58.5t13 55q0 64 -33 84q-24 15 -92 15
q-16 0 -28 11t-12 29q0 24 24 44t53.5 39t53.5 40t24 47q0 28 -46 28q-9 0 -25 -2t-33 -5t-32 -5t-23 -2q-24 0 -42.5 13t-18.5 37q0 25 19 43t49.5 30t68.5 18t76 6q21 0 45.5 -6.5t45.5 -19.5t35 -30.5t14 -40.5q0 -75 -29 -118q-10 -14 -54 -49q92 -44 92 -147z" />
    <glyph glyph-name="four" unicode="4" horiz-adv-x="578" 
d="M600 302q0 -40 -19.5 -58.5t-50.5 -18.5q-21 0 -35.5 1t-47.5 6q-4 -8 -7.5 -17t-7.5 -17q-21 -50 -27 -82q-2 -7 -2 -15v-12v-24q0 -31 -21 -49t-56 -18q-13 0 -31 19.5t-18 42.5q0 54 42 172q-24 -6 -55.5 -11.5t-63.5 -10t-62 -7t-51 -2.5q-17 0 -33.5 15.5
t-16.5 33.5q0 37 97 173q27 37 42.5 58t20.5 28q31 45 60.5 83t53.5 65.5t42 43.5t27 16q21 0 34.5 -9.5t13.5 -25.5q0 -8 -13 -30t-30.5 -48t-36 -52t-28.5 -42q-25 -40 -48 -77.5t-44 -74.5q11 0 30.5 2t41.5 5t41.5 5t30.5 2q11 34 23.5 67t25.5 64q40 97 67 141
q39 65 67 65q19 0 28.5 -16t9.5 -40l-14.5 -36.5t-33 -84t-35.5 -93t-22 -63.5q61 -8 79 -16q33 -16 33 -58z" />
    <glyph glyph-name="five" unicode="5" horiz-adv-x="523" 
d="M563 670q0 -49 -39 -64.5t-94 -15.5q-25 0 -46 1t-40 2q-18 -24 -35 -48.5t-27 -48.5q27 7 55 10.5t67 3.5q55 0 87 -32q39 -39 39 -123q0 -106 -71 -195q-57 -72 -147 -119q-75 -39 -126 -39q-66 0 -121 52q-50 47 -50 85q0 7 9.5 22t22.5 29.5t27 25.5t22 11
q13 0 27 -13.5t30.5 -29t35.5 -29t41 -13.5q49 0 104 49q64 55 64 120q0 29 -13 52.5t-41 23.5q-43 0 -94.5 -17.5t-97.5 -32.5q-15 0 -31 17t-16 33q0 9 6 24t15.5 33t20.5 37t21 35l24.5 38.5t20.5 31.5t21.5 31.5t27.5 38.5q24 37 69 44.5t107 7.5q52 0 88.5 -7.5
t36.5 -30.5z" />
    <glyph glyph-name="six" unicode="6" horiz-adv-x="498" 
d="M495 326q0 -106 -126 -214q-115 -98 -190 -98q-22 0 -47.5 12t-47 31t-36 42t-14.5 45q0 52 21 115.5t53 126.5t70.5 120.5t74.5 96.5q96 106 168 106q6 0 15.5 -8t18.5 -20.5t15 -28t6 -30.5q0 -16 -19.5 -31t-46.5 -28t-54.5 -26t-44.5 -27q-23 -20 -49 -55.5
t-47.5 -75.5t-35.5 -80.5t-14 -71.5q0 -35 14 -50.5t48 -15.5q26 0 50.5 10.5t43.5 27.5t30.5 37.5t11.5 40.5q0 19 -13.5 26t-37.5 7q-9 0 -17.5 -0.5t-17.5 -0.5q-25 0 -37.5 5t-12.5 25q0 13 14 33t33 39t39.5 32t33.5 13q22 0 48 -11.5t48 -30t37 -42t15 -46.5z" />
    <glyph glyph-name="seven" unicode="7" horiz-adv-x="538" 
d="M614 456q0 -26 -7.5 -39.5t-20 -19.5t-30 -6.5t-37.5 -0.5q-35 0 -62 -1t-52 -4q-7 -23 -18 -53.5t-23.5 -65t-26 -71.5t-25.5 -72q-8 -23 -16 -47t-19 -44.5t-27.5 -33.5t-40.5 -13q-23 0 -40 14t-17 34q0 23 25 82q44 107 70 172t34 89q-59 -15 -105 -23t-79 -8
q-10 0 -20 17.5t-10 34.5q0 36 26 62t78 33q36 5 73.5 7t74.5 6q4 12 7.5 28t6.5 31t5 28t2 19q-43 -11 -83 -15.5t-77 -4.5q-42 0 -68 8q-36 12 -36 43q0 27 12.5 42.5t34.5 23.5t50.5 10t61.5 2q11 0 39 2t59.5 5t60 5t38.5 2q29 0 40.5 -13.5t11.5 -39.5q0 -27 -10 -70.5
t-19 -84.5l88 -3q43 -1 57 -17t14 -50z" />
    <glyph glyph-name="eight" unicode="8" horiz-adv-x="584" 
d="M660 604q0 -86 -89 -173q-62 -60 -136 -98q10 -7 18.5 -16t16.5 -19q20 -26 20 -43q0 -90 -79 -163q-70 -64 -130 -64q-75 0 -147 39q-80 44 -80 100q0 69 95 141q38 29 86 55q-4 7 -11 17.5t-13.5 21.5t-11 21t-4.5 16q0 25 15 55t37.5 59t49.5 54.5t52 41.5
q83 54 177 54q20 0 43.5 -7.5t43.5 -21t33.5 -31.5t13.5 -39zM526 548q3 19 -12.5 24.5t-51.5 5.5q-16 0 -40 -6.5t-46 -16.5t-37.5 -22.5t-15.5 -25.5q0 -9 15.5 -33t34.5 -49q25 13 48 26t43 27q58 41 62 70zM359 187q0 12 -6 25.5t-14 26t-16.5 24t-13.5 18.5
q-15 -4 -35 -14.5t-37.5 -23.5t-29.5 -25t-12 -20q0 -35 21.5 -44.5t71.5 -9.5q24 0 47.5 13t23.5 30z" />
    <glyph glyph-name="nine" unicode="9" horiz-adv-x="482" 
d="M551 604q0 -30 -4 -50t-12 -39.5t-20.5 -42.5t-30.5 -58q-16 -32 -36 -79t-43 -109q-17 -46 -32.5 -88.5t-28.5 -81.5q-10 -29 -34 -51t-42 -19q-19 3 -40 18.5t-21 35.5q0 47 28 93q3 5 12 22t20 37.5t21 40t15 27.5q-20 -14 -37.5 -25t-32.5 -18q-45 -20 -89 -20
q-22 0 -43.5 6t-38 18t-26.5 29t-10 39q0 35 17.5 77t46.5 84.5t66.5 83t78.5 71.5t82 49.5t77 18.5q16 0 27.5 -15t23.5 -29q11 15 30 24.5t34 9.5q23 0 32.5 -15t9.5 -44zM380 522q-16 12 -31 17.5t-28 5.5q-24 0 -53 -21t-53.5 -51t-41.5 -62.5t-17 -54.5q0 -26 34 -26
q35 0 61.5 25t51.5 53q18 17 38 48t39 66z" />
    <glyph glyph-name="colon" unicode=":" 
d="M337 409q0 -34 -20.5 -59t-54.5 -25q-38 0 -62.5 29.5t-24.5 70.5q0 36 26.5 60t60.5 24q33 0 54 -31t21 -69zM274 112q0 -18 -9.5 -33.5t-24 -26.5t-32.5 -17.5t-36 -6.5q-38 0 -59 25t-21 62t28.5 61.5t67.5 24.5q36 0 61 -26t25 -63z" />
    <glyph glyph-name="semicolon" unicode=";" horiz-adv-x="357" 
d="M271 370q0 -30 -20.5 -54.5t-46.5 -24.5q-40 0 -69 15t-33 47q-4 35 22.5 61.5t65.5 26.5q33 0 57 -20t24 -51zM221 60q0 -44 -11 -88q-13 -49 -42 -88.5t-61 -67.5q-31 -27 -54 -27q-15 0 -23.5 14t-8.5 32q0 11 7.5 29t17 37.5t18 37.5t10.5 29q4 29 7.5 58.5t9.5 57.5
q6 30 25.5 45t44.5 15q12 0 23 -9.5t19 -22.5t13 -27.5t5 -24.5z" />
    <glyph glyph-name="less" unicode="&#x3c;" horiz-adv-x="524" 
d="M456 35q-16 0 -42 12.5t-58 32t-67.5 43t-70.5 45.5q-33 21 -67 40t-67 40q-66 42 -66 80q0 6 16 19t42 29.5t58 35.5t63 37q51 38 85 62.5t56 39t35.5 20t23.5 5.5q29 0 38.5 -8.5t9.5 -38.5q0 -23 -27.5 -50.5t-66 -55t-80.5 -53t-71 -44.5q26 -18 53 -36t53 -35
q44 -30 77 -53.5t54 -39.5q64 -49 64 -68q0 -28 -9.5 -43.5t-35.5 -15.5z" />
    <glyph glyph-name="equal" unicode="=" horiz-adv-x="634" 
d="M536 349q0 -15 -10 -31t-26.5 -30t-37 -23t-41.5 -9t-33 13t-26 15q-12 2 -51 -6q-103 -20 -129 -20q-30 0 -46.5 9t-16.5 31q0 37 111 65q54 13 91 22.5t64.5 15.5t49.5 9t46 3q29 0 42 -18.5t13 -45.5zM548 175q0 -17 -10.5 -37t-26.5 -37.5t-35 -29t-37 -11.5
q-5 0 -12.5 5.5t-17 11.5t-19.5 11.5t-19 5.5q-29 0 -53 -7.5t-38 -9.5q-46 -8 -72.5 -12.5t-32.5 -4.5q-35 0 -48.5 9t-13.5 35q0 15 23 34t48 27l167 28q31 5 66.5 13t66.5 8q27 0 45.5 -9t18.5 -30z" />
    <glyph glyph-name="greater" unicode="&#x3e;" horiz-adv-x="469" 
d="M488 312q0 -48 -63 -77q-51 -23 -83.5 -41t-46.5 -29q-12 -10 -32.5 -28.5t-48.5 -44.5q-91 -85 -116 -85q-26 0 -48 22.5t-22 47.5q0 13 18.5 34.5t47 47t62.5 51.5t65.5 48t56.5 38t34 20q-73 60 -137 119q-85 79 -85 106q0 60 47 60q19 0 42 -12.5t48.5 -33t52 -45.5
t53.5 -50q11 -9 36.5 -26t51.5 -38t46.5 -43.5t20.5 -40.5z" />
    <glyph glyph-name="question" unicode="?" horiz-adv-x="464" 
d="M555 706q0 -80 -72 -144q-43 -30 -76.5 -52.5t-57 -47.5t-35.5 -58t-12 -85q0 -46 -15.5 -66.5t-58.5 -20.5q-34 0 -43.5 27t-9.5 64q0 61 40 120q13 21 36 48t54 53q22 19 46 35t47 33q20 23 20 65q0 31 -22.5 49t-48.5 18q-18 0 -35 -14t-33.5 -30t-31.5 -30t-29 -14
q-23 0 -33 21.5t-10 52.5q0 30 17 53t46 38.5t69 23.5t86 8q74 0 120 -44q42 -41 42 -103zM242 81q0 -38 -17 -52.5t-57 -14.5q-32 0 -40.5 18t-8.5 53q0 32 21.5 59.5t52.5 27.5q24 0 36.5 -29.5t12.5 -61.5z" />
    <glyph glyph-name="A" unicode="A" horiz-adv-x="601" 
d="M659 424q0 -23 -12 -43t-36 -28q-29 -10 -49 -14t-30 -8l-3 -101q16 -15 29 -32.5t13 -37.5q0 -39 -34 -100q-45 -81 -109 -81q-36 0 -46.5 22.5t-10.5 61.5q0 -3 4 27.5t9 72t9 83.5t4 62q-33 -13 -53 -21t-27 -11q-17 -8 -26 -12t-17 -11t-17.5 -19t-26.5 -35
q-42 -57 -60 -89q-19 -35 -30.5 -55t-15.5 -25q-25 -34 -60 -34l-24 18q-24 21 -24 35q10 23 20 43.5t20 39.5q26 51 64 118t88 150q129 213 180 275q37 46 71 46q45 0 56 -29.5t11 -78.5v-36q0 -18 4 -45t4 -42q0 -21 -3 -33q27 6 56 6q34 0 54 -9t18 -30zM330 407
q10 4 29.5 7.5t39.5 7.5q-1 6 -1.5 17.5t-1.5 25l-2 27t-4 22.5q-4 -7 -12.5 -21t-17.5 -30t-17.5 -31.5t-12.5 -24.5z" />
    <glyph glyph-name="B" unicode="B" horiz-adv-x="606" 
d="M594 603q0 -34 -8 -68t-28 -60q-21 -29 -36.5 -47.5t-23.5 -28.5q45 -19 62.5 -46t17.5 -79q0 -135 -108 -225q-104 -86 -248 -86q-41 0 -79.5 9.5t-68.5 25t-48 37t-18 45.5q0 14 16.5 28.5t32.5 14.5q-5 10 -5 24q0 16 7 38t17 46t21.5 47.5t20.5 42.5q13 30 25.5 60
t24.5 61l39 99q-9 3 -22 7t-25 9.5t-20.5 13t-8.5 18.5q0 27 19.5 48.5t50 36t67 22t70.5 7.5q101 0 146 -9q110 -23 110 -91zM449 543q2 11 -12 17t-36 6q-17 0 -28.5 -2t-36.5 -7l-54 -129q50 13 76.5 20t28.5 8q51 24 62 87zM452 197q1 6 1 13v10q0 45 -26.5 65.5
t-75.5 28.5q-17 2 -40 3t-51 1h-15q-15 -91 -44 -154q-6 -14 -9.5 -21.5t-8 -12t-10.5 -8.5t-17 -10q26 -14 49.5 -18.5t71.5 -4.5q80 0 130 38q39 32 45 70z" />
    <glyph glyph-name="C" unicode="C" horiz-adv-x="507" 
d="M528 634q0 -15 -6.5 -32t-18 -31t-25.5 -23.5t-29 -9.5q-5 0 -24 12t-39 12q-84 0 -146 -95q-80 -124 -80 -221q2 -10 3 -17t2 -12q9 -30 23 -30q1 0 21 7t49 18t63.5 23t63.5 23t49 18t21 7q27 0 33.5 -8.5t6.5 -31.5q0 -59 -92 -118q-35 -22 -79.5 -42t-98.5 -38
q-90 -29 -115 -29q-41 0 -68 48.5t-27 119.5q0 72 46 186q53 134 132 218q99 106 212 106q7 0 27 -5t41.5 -13.5t38 -19.5t16.5 -22z" />
    <glyph glyph-name="D" unicode="D" horiz-adv-x="571" 
d="M222 16q-70 0 -108 33t-38 93q0 29 46 145q28 68 57 136.5t57 136.5q-24 -10 -41 -15.5t-34 -13.5t-37.5 -22t-52.5 -41q-21 -18 -24 -18q-25 0 -40 17t-15 38q0 47 100 111q109 70 208 70q18 0 36 -3q46 -6 94 -27t87.5 -53t64.5 -74t25 -91q0 -63 -56 -164
q-61 -107 -141 -176q-95 -82 -188 -82zM493 408q0 76 -62 120q-22 15 -62 28q0 1 -8 -19t-20.5 -51.5t-28 -71.5t-30 -78.5t-26.5 -72.5t-17 -54q-3 -13 -5 -22.5t-2 -16.5q0 -17 14 -17q36 0 79 26.5t80.5 65.5t62.5 83.5t25 79.5z" />
    <glyph glyph-name="E" unicode="E" horiz-adv-x="542" 
d="M629 625q0 -73 -106 -97q-62 -5 -124.5 -10t-124.5 -10q0 -30 -8 -55t-25 -62q7 0 32 2.5t53 5.5t53 5.5t32 2.5q34 0 48 -6t14 -27q0 -75 -89 -98q-48 -13 -170 -13q-8 -20 -15 -43t-13 -43q28 7 69 13.5t84 6.5q38 0 62.5 -1t34.5 -3q51 -11 51 -48q0 -87 -82 -87
q-11 0 -17 1t-10 2q-28 0 -64 -4t-76 -13q-38 -9 -75 -18.5t-75 -19.5q-23 0 -41 17t-18 34q0 13 10 56.5t24 96.5t29 106.5t24 87.5q6 25 15.5 51t22.5 47.5t30 35t37 13.5q20 47 40 61q53 37 196 37h60q59 0 85.5 -4t26.5 -20z" />
    <glyph glyph-name="F" unicode="F" horiz-adv-x="567" 
d="M691 590q0 -95 -94 -95q-14 0 -31 6.5t-36 15t-38 15t-37 6.5q-49 0 -96.5 -22.5t-70.5 -62.5q-3 -6 -9.5 -27.5t-11.5 -32.5l28 3.5t45 5t52 4.5t49 2h28q53 0 71 -7q31 -12 31 -46q0 -48 -20.5 -65.5t-67.5 -17.5q-8 0 -28 1t-31 1h-199q-11 -50 -23 -99t-23 -98
q0 -39 -21 -56t-60 -17q-35 0 -52.5 24t-17.5 56t21 87q62 166 72 205q35 147 75 205q34 51 82 51q3 0 10 -4t14.5 -9t13 -8.5l5.5 -3.5q37 39 85 50t117 11q33 0 63.5 -5.5t54 -15.5t37 -24.5t13.5 -32.5z" />
    <glyph glyph-name="G" unicode="G" horiz-adv-x="507" 
d="M463 292q1 -6 -5.5 -32.5t-16 -63.5t-21.5 -78.5t-21.5 -77.5t-16 -61t-5.5 -28q0 -5 6 -9.5t12.5 -10t12.5 -13t6 -16.5q0 -17 -9.5 -30t-24.5 -22t-32.5 -13.5t-33.5 -4.5q-23 0 -40 20.5t-17 37.5q0 58 13.5 107t26.5 94q-60 -40 -63 -41q-40 -22 -73 -22
q-70 0 -104 33q-29 29 -29 78q0 61 46 178q53 138 126 226q92 111 187 111q41 0 72 -15.5t31 -38.5q0 -34 -25 -55t-57 -21q-49 0 -87.5 -16t-56.5 -53q-28 -53 -47.5 -93t-30.5 -65q-10 -23 -16.5 -44.5t-8.5 -39t1.5 -28t12.5 -10.5q24 0 50.5 9.5t49.5 25t40 35t22 38.5
q8 31 19 47t42 16q65 0 65 -54z" />
    <glyph glyph-name="H" unicode="H" horiz-adv-x="577" 
d="M640 603q0 -42 -38 -147q0 1 -8 -19t-20.5 -51t-27 -68.5t-27 -71t-21 -59t-8.5 -33.5t10 -25t10 -30q0 -48 -36 -70t-89 -22q-26 0 -44 16t-18 39q0 7 13.5 42t31 77.5t34.5 83.5t23 60q-29 -6 -58.5 -13.5t-59.5 -17.5q-38 -11 -86 -30q-8 -20 -13.5 -34t-9.5 -22
q-11 -26 -20 -37q18 -28 19 -32q7 -15 7 -37q0 -20 -11 -40t-28.5 -36t-38.5 -25.5t-42 -9.5q-27 0 -48.5 18.5t-21.5 43.5q0 6 11.5 35.5t26 65.5t28.5 69.5t19 45.5q1 10 -9 26.5t-10 26.5q0 21 18.5 40.5t31.5 41.5q22 105 59 183q40 88 75 88q14 0 30.5 -17.5
t16.5 -32.5q-4 -15 -7.5 -27t-5.5 -21q-18 -64 -28.5 -103t-14.5 -53q64 14 127.5 28t98.5 26q7 38 14 68.5t14 53.5q25 85 99 85q20 0 27 -12.5t7 -33.5q0 -7 -1 -19t-1 -14z" />
    <glyph glyph-name="I" unicode="I" horiz-adv-x="335" 
d="M307 592q0 -51 -20 -128q-37 -144 -39 -147q-21 -101 -21 -199q0 -21 -12 -39t-28.5 -30.5t-34 -19.5t-29.5 -7q-23 0 -40 12.5t-17 36.5q6 31 10.5 57t8.5 45q23 117 44.5 205t45.5 173q15 55 39 82t46 27q25 0 36 -21t11 -47z" />
    <glyph glyph-name="J" unicode="J" horiz-adv-x="581" 
d="M701 589q0 -39 -23 -66t-56 -27q-22 0 -49 7t-35 7q-25 -40 -37 -74.5t-24 -85.5q-11 -50 -20.5 -91.5t-19.5 -73.5q-13 -44 -26 -77.5t-26 -56.5q-31 -55 -66 -55q-19 0 -56 10.5t-77.5 25t-77.5 30.5t-55 27q-93 55 -93 119q0 14 11 28t27 25.5t34.5 19t34.5 7.5
q29 0 41 -8.5t12 -20.5q0 -9 -5 -21q-7 -14 9 -27t44 -24.5t62 -20.5t62 -14q16 31 31.5 84.5t30 107.5t26.5 98t21 56q-26 -5 -48.5 -8t-44.5 -3q-44 0 -66 9q-30 12 -30 42q0 48 56.5 70.5t149.5 22.5q10 0 33 3t52.5 7t62 7t60.5 3q12 0 25 -5.5t24 -14t18.5 -19.5
t7.5 -23z" />
    <glyph glyph-name="K" unicode="K" horiz-adv-x="648" 
d="M720 543q0 -44 -43 -60q-26 -9 -41.5 -14.5t-29.5 -11.5t-32 -14t-49 -23q-23 -11 -47.5 -23.5t-52.5 -25.5q21 -32 39 -59l32 -48q57 -81 85 -94q23 -10 30 -26.5t7 -45.5q0 -34 -28.5 -56.5t-67.5 -22.5q-14 3 -27 9.5t-29 21.5t-35 39t-43 61q-4 5 -28.5 47t-70.5 119
q-17 -11 -26 -16t-34 -15q-19 -35 -30 -56.5t-24 -49.5q-6 -15 -6 -32q0 -8 3.5 -31t-0.5 -35q-6 -32 -36 -50.5t-65 -18.5q-27 0 -46.5 19t-19.5 51q0 16 22 72q36 94 57 150.5t28 76.5q50 161 95 226q34 49 62 45q16 -3 30.5 -17t14.5 -31q0 -14 -5 -35t-12.5 -46t-16 -52
t-16.5 -51q55 34 116 66.5t128 64.5q114 55 148 55q64 0 64 -63z" />
    <glyph glyph-name="L" unicode="L" horiz-adv-x="532" 
d="M544 124q0 -56 -30.5 -73.5t-88.5 -17.5q-3 0 -28 -3t-61.5 -8t-79 -10t-79.5 -10t-63 -8t-29 -3q-9 -1 -22.5 1.5t-26 8t-21 14t-8.5 18.5q0 18 33 110q35 98 53.5 149t19.5 55q41 120 70 178q55 111 102 111q18 0 27.5 -2.5t13 -7t3.5 -12v-17.5q0 -13 -19 -65.5
t-44.5 -120t-52.5 -137.5t-42 -118q58 0 128 14t142 14q15 0 33 -4t33.5 -11.5t26 -18.5t10.5 -26z" />
    <glyph glyph-name="M" unicode="M" horiz-adv-x="861" 
d="M846 84q0 -36 -32.5 -59.5t-81.5 -23.5q-21 0 -34 11t-20 29t-9.5 41t-2.5 48q0 9 1.5 33.5t3 51.5t3 51.5t1.5 33.5v34q0 9 -1 20.5t-4 23.5q-20 -28 -39 -56.5t-39 -56.5q-35 -50 -65 -88t-54 -64q-70 -76 -109 -76q-40 0 -52 34t-12 83q0 15 1.5 36t3.5 41t3.5 36.5
t1.5 22.5q-22 -32 -45 -67t-48 -73t-60.5 -90.5t-68.5 -100.5q-12 -18 -29.5 -23t-34 0t-28 17.5t-11.5 27.5q0 35 10 54q2 5 24 35q62 81 94 130q20 30 45.5 73t56.5 99q47 82 81.5 137t56.5 83q39 49 71 49q28 0 39.5 -28.5t11.5 -82.5q0 -3 -3 -31.5t-6.5 -65.5
t-6.5 -73.5t-3 -55.5q0 -12 12 -12q3 0 16.5 17t34 43.5t43.5 58.5t44.5 61t38.5 51.5t23 30.5q76 93 103 93q41 0 54.5 -30.5t13.5 -71.5q0 -54 -12 -123q-14 -80 -21 -131t-7 -71q0 -30 7.5 -46t16 -28t16 -25t7.5 -37z" />
    <glyph glyph-name="N" unicode="N" horiz-adv-x="718" 
d="M887 628q0 -19 -14 -39t-33 -38.5t-38.5 -34.5t-29.5 -27q-35 -37 -59 -74t-47 -85q-49 -105 -135 -205q-90 -104 -140 -104q-43 0 -60 32t-17 106q0 8 2.5 45.5t5.5 80.5t5.5 80.5t2.5 45.5q-14 -19 -31.5 -47.5t-34 -59t-31 -59t-22.5 -48.5q-8 -18 -16 -37t-8 -62
q0 -12 -8 -23.5t-19.5 -20.5t-25 -15t-25.5 -6q-25 0 -49.5 17.5t-24.5 38.5q0 7 11.5 37t26 64t27 63t15.5 35q19 44 41 88t47 88q23 40 46 76.5t46 70.5q15 21 41 31.5t57 10.5q27 0 43 -15.5t25 -41t11.5 -57t2.5 -64.5q0 -6 -1 -22t-2.5 -35t-2.5 -37.5t-1 -29.5
q0 -8 -0.5 -20.5t-1.5 -25.5t-1.5 -24.5t-0.5 -17.5q0 -15 9.5 -6.5t21.5 25.5t23.5 34.5t15.5 22.5q29 43 42 68q16 32 31 59t28 49q16 26 31.5 46.5t28.5 35.5q43 47 75 65t63 18q25 0 39.5 -14.5t14.5 -37.5z" />
    <glyph glyph-name="O" unicode="O" horiz-adv-x="545" 
d="M624 555q0 -172 -79 -311q-34 -61 -78.5 -109t-99.5 -85q-99 -66 -186 -66q-24 0 -45.5 11.5t-37.5 30.5t-25 44.5t-9 54.5q0 114 9 167q15 90 68 184q67 118 144 168q52 34 116 34q17 0 30.5 -1.5t30.5 -3.5q8 26 13 33t26 7q17 0 38.5 -19t40 -45t31.5 -52.5t13 -41.5z
M491 473q0 33 -28.5 52.5t-81.5 19.5q-97 0 -157 -156q-44 -115 -44 -192q0 -34 18 -57t45 -23q104 0 181 126q67 110 67 230z" />
    <glyph glyph-name="P" unicode="P" horiz-adv-x="461" 
d="M556 548q0 -76 -67 -150q-37 -41 -86.5 -73t-112.5 -58q-28 -12 -55 -24.5t-54 -24.5l-22 -144q-9 -62 -88 -62q-21 0 -38.5 18t-17.5 46q5 17 11.5 38t13.5 45q9 31 16 57.5t12 47.5q9 35 21.5 77.5t28.5 89.5t33 97t35 99q5 13 31.5 27.5t59.5 27t65.5 20.5t48.5 8
q48 0 102 -45q63 -53 63 -117zM415 515q0 33 -16 47t-56 14q-43 0 -69 -35q-9 -13 -21 -42.5t-23 -61.5t-19.5 -59.5t-10.5 -38.5q27 10 52.5 21.5t48.5 26.5q47 31 75 60q39 39 39 68z" />
    <glyph glyph-name="Q" unicode="Q" horiz-adv-x="555" 
d="M593 509q0 -97 -19.5 -184.5t-83.5 -168.5q-22 -28 -40.5 -44.5t-32.5 -23.5q8 -32 14.5 -55.5t10.5 -39.5q25 -96 25 -110q0 -13 -8 -30.5t-20 -32.5t-25 -25t-23 -8q-12 2 -26.5 28.5t-28.5 62t-26.5 72.5t-20.5 61q-21 -10 -53.5 -17.5t-62.5 -7.5q-86 0 -118 50
q-23 38 -23 124q0 152 90 291q70 107 180 193q94 71 131 71q103 0 137 -66q23 -44 23 -140zM461 435v38q0 43 -8 64q-12 29 -46 29q-19 0 -37.5 -13t-35 -32t-31.5 -41t-28 -39q-16 -13 -28.5 -14t-26.5 2q-16 -41 -28.5 -77.5t-22.5 -67.5q-22 -72 -22 -114q0 -26 13 -37
t31 -12t36.5 4.5t29.5 12.5v42q0 76 9 108q14 48 56 48q48 0 56 -29q2 -25 5 -49t8 -46q30 27 50 89t20 134z" />
    <glyph glyph-name="R" unicode="R" horiz-adv-x="587" 
d="M632 58q0 -32 -36 -57q-31 -22 -55 -22q-32 0 -64.5 20.5t-62.5 49.5q-14 13 -30 30.5t-33 40.5q-19 27 -33.5 46.5t-26.5 35t-22 29.5t-21 29q-26 35 -40 62q-8 -43 -16 -85t-13 -85q-6 -47 -14 -76t-20 -45.5t-29 -22.5t-41 -6q-18 0 -36.5 11t-18.5 29q0 -2 5 20.5
t12.5 58.5t16.5 78.5t16.5 80t12.5 63t6 27.5l49 215q10 44 33.5 70.5t46.5 26.5q19 0 31 -4.5t25 -22.5q20 25 56 47t64 22q71 0 106 -45q29 -38 29 -102q0 -104 -45 -167q-22 -30 -93 -85q25 -35 41.5 -58t24.5 -34q27 -37 84 -91q15 -13 31 -17t29.5 -9.5t22 -17
t8.5 -40.5zM397 545q0 18 -11 29t-23 11q-80 0 -114 -88q-1 -1 -34 -141q37 16 70 39t58 48t39.5 51.5t14.5 50.5z" />
    <glyph glyph-name="S" unicode="S" horiz-adv-x="500" 
d="M535 569q0 -29 -12.5 -51t-31.5 -22q-3 0 -15.5 8t-29 18t-33.5 18t-29 8q-37 0 -63 -14.5t-26 -46.5q0 -7 11.5 -28.5t29 -48.5t37 -55.5t35.5 -51t24.5 -34.5t4.5 -6q50 -80 50 -118q0 -62 -32.5 -100t-73.5 -38q-47 0 -92.5 11.5t-91.5 32.5q-34 15 -64 35.5t-52 41.5
t-35 42t-13 38q0 31 14.5 59t32.5 28q34 0 44 -3q22 -7 22 -32q2 -16 21 -39t45.5 -43t53 -34.5t43.5 -14.5q49 0 49 37q0 8 -20 40t-44.5 67.5t-45.5 64.5t-23 32q-47 80 -47 124q0 33 16.5 65t44.5 57t64 40.5t75 15.5t94 -30q63 -34 63 -73z" />
    <glyph glyph-name="T" unicode="T" horiz-adv-x="441" 
d="M608 632q0 -17 -8.5 -33.5t-22 -30t-29.5 -22t-31 -8.5q-6 0 -13.5 6t-16.5 14t-18.5 14t-19.5 6h-75q-65 -230 -93 -344q-5 -22 -6.5 -43t-1.5 -32q0 -12 1 -38.5t-4.5 -52.5t-21.5 -46t-49 -20q-29 0 -54.5 25.5t-25.5 56.5q0 13 8 44.5t20 72t26 84t26 80t20 60
t8 24.5l37 117q-12 -4 -39.5 -9.5t-59 -10.5t-59.5 -8.5t-40 -3.5q-23 0 -41.5 12t-18.5 34q0 41 25.5 58.5t64.5 22.5q15 3 33.5 6t41.5 7q73 12 123 20t77 12q115 18 130 18q50 0 78.5 -22.5t28.5 -69.5z" />
    <glyph glyph-name="U" unicode="U" horiz-adv-x="670" 
d="M640 92q-2 -15 -10.5 -29t-20.5 -25t-25.5 -17.5t-23.5 -6.5q-47 0 -76 54.5t-37 146.5q0 14 1.5 38t1.5 30q-28 -27 -55.5 -54t-55.5 -53q-85 -80 -141 -123q-80 -60 -117 -60q-36 0 -46 25.5t-10 65.5q0 -2 7 20.5t17.5 58t23.5 79.5t25 84.5t21 73.5t13 47
q24 83 51 127q37 60 91 60q16 0 24.5 -8t6.5 -20q0 -4 -7.5 -31.5t-18.5 -66t-24 -83t-24 -83t-18 -65t-6 -29.5v-12q0 -29 20 -20t52 41.5t73.5 82.5t83.5 104q15 20 26.5 35t18.5 26q16 41 26 67t15 36q30 58 65 58q31 0 46 -18.5t15 -42.5q0 3 -5.5 -20t-12.5 -54
t-12.5 -61t-5.5 -42q0 -35 -3 -67q-4 -43 -6 -66.5t-2 -27.5q0 -17 3 -39t8.5 -45.5t12.5 -47t15 -43.5z" />
    <glyph glyph-name="V" unicode="V" horiz-adv-x="517" 
d="M581 597q0 -38 -52 -142q-22 -45 -49.5 -94t-59.5 -102q-46 -75 -122 -150q-91 -89 -145 -89q-25 0 -41 14t-25 36.5t-12 50t-3 55.5v26.5t1 23.5v263q0 5 -6.5 18t-6.5 15q0 21 7.5 41.5t19 36t26 25t29.5 9.5q24 0 37 -21t19.5 -53t8 -72t1.5 -77v-62q0 -27 1.5 -54.5
t4 -50t6 -37t7.5 -14.5q24 0 52.5 35t56.5 85.5t50.5 106.5t34.5 97q15 47 15 80t29 49.5t57 16.5q64 0 59 -66z" />
    <glyph glyph-name="W" unicode="W" horiz-adv-x="771" 
d="M892 661q0 -33 -31 -141q-39 -139 -88 -220q-34 -56 -68 -103.5t-69 -85.5q-82 -91 -136 -91q-24 0 -44.5 19t-36.5 51.5t-25 74.5t-9 88v72q-13 -17 -26 -35t-27 -35q-28 -37 -56.5 -69t-55.5 -61q-68 -71 -95 -71q-25 0 -42 23.5t-17 53.5v366q0 27 8.5 53t22 46.5
t31.5 33t37 12.5q17 0 29.5 -24.5t12.5 -76.5q0 -14 -0.5 -26t-1.5 -22q-4 -35 -5.5 -56t-1.5 -26q0 -75 2 -107.5t13 -32.5q3 0 26 29.5t50.5 66.5t51.5 70t30 40q61 73 88 73q23 0 35.5 -16t18.5 -42.5t7.5 -59t1.5 -65.5q0 -93 3.5 -129.5t24.5 -36.5q26 0 52 32t48 75
t38 86t22 65q46 168 51 181q31 82 77 82q28 0 41 -12t13 -49z" />
    <glyph glyph-name="X" unicode="X" horiz-adv-x="587" 
d="M578 641q0 -14 -18 -46t-42.5 -69t-51 -74t-42.5 -61q29 -37 53 -71t42 -65q54 -93 54 -152q0 -41 -15 -62.5t-57 -21.5q-19 0 -32 13t-21.5 30t-13.5 35t-8 27q-13 31 -39 65.5t-55 70.5q-26 -44 -45 -76t-32 -53q-48 -81 -56 -101l-8 -28l-8 -28q-11 -23 -60 -23
q-29 0 -44.5 23t-15.5 45q0 9 12.5 34.5t32 60t43 73.5t45.5 74t40 62t26 37q-31 34 -55 61.5t-42 48.5q-67 77 -67 96q0 11 6.5 25.5t17 28t24 23t28.5 9.5q28 -4 165 -177q25 38 49 72t47 65q61 81 80 81q8 0 19 -6t20.5 -14.5t16.5 -17t7 -14.5z" />
    <glyph glyph-name="Y" unicode="Y" horiz-adv-x="457" 
d="M534 658q0 -12 -15 -44t-35 -70.5t-41 -76.5t-34 -62q-30 -58 -51 -99.5t-32 -67.5q-57 -130 -86.5 -196t-30.5 -69q-39 -81 -99 -81q-20 0 -34.5 16t-14.5 36q0 8 38 98q7 17 22 51t32.5 74t36 81.5t32.5 72.5q-8 26 -20.5 44t-30.5 34.5t-41.5 34t-53.5 42.5
q-60 50 -60 69q0 16 8.5 35.5t20.5 36t25.5 27.5t24.5 11q35 0 82 -39q20 -17 139 -148q29 65 71 142q57 105 76 108q11 2 23 -3.5t23 -15t18 -21t7 -20.5z" />
    <glyph glyph-name="Z" unicode="Z" horiz-adv-x="586" 
d="M610 99q0 -18 -8 -36.5t-20.5 -33.5t-29 -24.5t-33.5 -9.5q-14 0 -24.5 7.5t-18.5 16.5t-14 16.5t-10 7.5q-1 0 -23 -2.5t-57 -6.5t-77.5 -9t-83 -9t-74.5 -6.5t-52 -2.5q-24 0 -38 13t-14 36q0 34 78 139q4 5 23.5 29t47 58.5t59.5 74.5t60.5 76t49.5 64t27 39
q-25 -7 -55 -10.5t-75 -3.5q-80 0 -130 11q-62 14 -62 46q0 15 12 30.5t32 28t44 20.5t48 8q23 0 57 -2.5t53 -2.5q3 0 25.5 3t52 6.5t58.5 6.5t45 3q23 0 44 -13t21 -26q0 -55 -66 -160q-54 -85 -135 -185q-13 -16 -41 -49t-70 -82q11 0 42 2.5t68 5l74 5t60 2.5
q18 0 41 -6t42.5 -17t33 -26t13.5 -32z" />
    <glyph glyph-name="bracketleft" unicode="[" horiz-adv-x="386" 
d="M342 26q0 -28 -23.5 -43.5t-49.5 -15.5q-9 0 -32 0.5t-49 1t-48.5 1t-31.5 0.5q-22 0 -36 16t-14 38q0 39 17 91t33 112l42 147q8 31 20 74t28 99q18 63 31 109.5t21 75.5q7 26 24 39.5t39 19t45.5 6t44.5 0.5q13 0 24.5 -0.5t21.5 -0.5q28 -3 47 -11t19 -32
q0 -23 -16.5 -34t-41.5 -16t-54 -6t-54 -2q-7 -21 -18 -57t-24 -79.5t-26.5 -90t-25.5 -89.5q-5 -18 -13 -48.5t-19 -74.5q-23 -89 -35 -137t-13 -53q74 0 120.5 -7.5t46.5 -32.5z" />
    <glyph glyph-name="backslash" unicode="\" horiz-adv-x="359" 
d="M393 -14q0 -22 -13.5 -35.5t-42.5 -13.5q-9 0 -24 30.5t-33 77.5t-37 103t-35 107t-28 89.5t-16 50.5q-7 18 -32.5 77t-70.5 159q-28 60 -28 80q0 18 9.5 35t26.5 17q16 0 33.5 -19t34 -48.5t32.5 -64.5t29 -66q16 -37 32 -78t32 -87q21 -58 41.5 -117t39.5 -119
q50 -153 50 -178z" />
    <glyph glyph-name="bracketright" unicode="]" horiz-adv-x="386" 
d="M166 732q0 29 25 41.5t50 12.5q9 0 31.5 0.5t48 1t48 1t31.5 0.5q23 0 36.5 -16.5t13.5 -38.5q0 -39 -17 -91t-33 -112l-42 -147q-8 -31 -20 -74t-28 -99q-14 -47 -27.5 -93t-25.5 -92q-2 -8 -8.5 -18.5t-15 -19.5t-19 -15t-20.5 -6q-26 0 -61.5 -1t-74.5 -3q-27 0 -46 9
t-19 33q0 23 16.5 34t41.5 16t54 6t54 2q7 23 17.5 58.5t23.5 77.5t26.5 88.5t26.5 91.5q7 26 18 68.5t25 100.5q34 139 36 145q-38 0 -66 1.5t-44 3.5q-56 9 -56 34z" />
    <glyph glyph-name="asciicircum" unicode="^" horiz-adv-x="543" 
d="M604 730q0 -28 -22 -50t-53 -22q-34 0 -55 24t-55 71q-7 -7 -22.5 -23.5t-38.5 -42.5q-65 -74 -94 -74q-19 0 -32.5 18.5t-13.5 35.5q0 16 58 81q10 12 35.5 41.5t55.5 60t57.5 54.5t42.5 24q13 0 26 -13t24.5 -29.5t19.5 -32t11 -20.5l33 -42q23 -29 23 -61z" />
    <glyph glyph-name="underscore" unicode="_" horiz-adv-x="674" 
d="M580 -197q-5 0 -18 -0.5t-33 -1.5q-52 -3 -85 -4.5t-60.5 -2.5t-56 -1.5t-70.5 -0.5h-39q-42 0 -70.5 1.5t-42.5 3.5q-47 8 -47 35q0 25 12.5 40.5t41.5 15.5q11 0 57 1.5t99 3t99 3t57 1.5q100 0 147 -6.5t47 -30.5q0 -57 -38 -57z" />
    <glyph glyph-name="grave" unicode="`" horiz-adv-x="386" 
d="M445 756q0 -12 -6.5 -26.5t-16 -27t-21 -20.5t-22.5 -8q-13 0 -48 21.5t-72 50t-65.5 57t-28.5 42.5q0 7 9.5 21.5t22.5 29.5t26 26.5t20 12.5q8 0 40.5 -24.5t68.5 -55.5t64.5 -60t28.5 -39z" />
    <glyph glyph-name="a" unicode="a" horiz-adv-x="706" 
d="M742 190q0 -35 -29 -64q-31 -29 -75 -55.5t-100 -51.5q-92 -40 -119 -40q-28 0 -46 21.5t-18 47.5q0 30 0.5 62t7.5 69q-40 -35 -62 -54t-26 -23q-119 -98 -179 -98q-37 0 -65 26t-28 55q0 34 26 83t62.5 99t75.5 94t64 68q101 98 162 98q12 0 28 -15.5t25 -33.5
q11 17 19 30.5t24 13.5q9 0 20 -4t21.5 -10.5t17.5 -15.5t7 -19q0 -18 -5 -43.5t-13 -55.5t-17.5 -63t-18.5 -64q-8 -31 -13 -57.5t-5 -43.5q0 -18 7 -18q5 0 36.5 15t68.5 33.5t68.5 33.5t37.5 15q41 0 41 -35zM321 284q4 7 4 22q0 25 -15 25q-24 0 -45 -14t-41 -38.5
t-40 -57t-42 -69.5q87 40 129 73q35 27 50 59z" />
    <glyph glyph-name="b" unicode="b" horiz-adv-x="531" 
d="M151 143q23 -12 50 -24.5t49 -12.5q32 0 59.5 13.5t47.5 37.5t32 55.5t12 67.5q0 29 -9 41t-37 12q-23 0 -54.5 -17.5t-61.5 -47.5q-9 -8 -20.5 -23t-23.5 -33t-23.5 -36.5t-20.5 -32.5zM67 110q-12 13 -12.5 30t3.5 35t11.5 36.5t12.5 33.5q22 70 39 123t29 89
q22 63 40 108.5t29 75.5q9 25 15 44t11 32q34 76 74 76q20 0 36 -15t16 -34q0 -3 -9 -27.5t-22.5 -60.5t-30 -77.5t-31 -78.5t-25.5 -64.5t-14 -33.5q92 77 189 77q27 0 47 -14.5t33 -37.5t19.5 -52.5t6.5 -60.5q0 -61 -27 -130q-35 -90 -99 -143q-82 -67 -202 -67
q-14 0 -42.5 6.5t-57.5 18t-51 27.5t-22 35q0 11 14.5 27.5t19.5 21.5z" />
    <glyph glyph-name="c" unicode="c" horiz-adv-x="431" 
d="M441 194q0 -42 -89 -110q-109 -83 -234 -83q-51 0 -74 33.5t-23 88.5q0 19 6 44.5t15.5 52t21 50.5t23.5 41q29 43 61 79t66 65q82 69 149 69q29 0 52 -15.5t23 -42.5q0 -18 -11 -28t-26 -15.5t-31.5 -8t-27.5 -5.5q-32 -8 -63.5 -35t-57.5 -63t-42 -75t-16 -71
q0 -26 23 -26q19 0 46 10.5t57 25.5t59.5 32t52.5 29q22 0 31 -12.5t9 -29.5z" />
    <glyph glyph-name="d" unicode="d" horiz-adv-x="571" 
d="M625 765q0 -12 -39 -154q-26 -95 -45 -166.5t-31 -119.5q-22 -87 -34 -146t-17.5 -95.5t-7 -53.5t-2.5 -21q-13 -42 -52 -42q-40 0 -56.5 15.5t-16.5 41.5q0 1 3 15t7.5 35.5t11 47.5t13.5 52q-57 -58 -117 -102q-83 -59 -132 -59q-40 0 -72 36q-26 31 -26 55
q0 50 46 141q52 102 117 160q47 43 106 70q40 19 152 51q19 56 33.5 96.5t24.5 65.5q48 119 71 119q29 0 46 -13.5t17 -28.5zM377 367q-84 -16 -129 -58q-14 -13 -30.5 -33t-31 -39.5t-24.5 -36.5t-10 -26q0 -17 12 -17q16 0 33 10.5t35.5 27t38 37.5t38.5 43q23 26 40 49.5
t28 42.5z" />
    <glyph glyph-name="e" unicode="e" horiz-adv-x="415" 
d="M408 494q0 -49 -20 -102t-51 -94q-14 -20 -34 -40t-45 -34q-29 -17 -59.5 -33.5t-59.5 -32.5q1 -9 5 -17.5t12 -8.5q20 0 58.5 11.5t83.5 28.5t90.5 36t81.5 35q24 0 24 -34q0 -25 -27.5 -50.5t-68.5 -48.5t-87.5 -42.5t-85.5 -32.5q-96 -33 -127 -33q-23 0 -42 15
t-32.5 37.5t-21 49t-7.5 49.5q0 55 29 126.5t75.5 135.5t106 108t120.5 44q82 0 82 -73zM285 440q-12 0 -28 -9t-32.5 -23.5t-31.5 -33t-25 -38.5q-12 -22 -25 -56q41 20 77.5 52t58.5 61q15 21 15 40q-7 7 -9 7z" />
    <glyph glyph-name="f" unicode="f" horiz-adv-x="369" 
d="M402 384q-34 0 -86 -6q-20 -2 -90 -12q-14 -25 -32 -144.5t-42 -315.5q-9 -76 -17 -96q-15 -31 -25 -41q-22 -22 -60 -22q-30 0 -42 13t-12 50q0 23 6 66t15 96t21 111t23.5 110.5t22 95t17.5 64.5q-13 -6 -29 -6q-4 0 -10.5 1t-10.5 1q-22 0 -29.5 6t-7.5 29q0 17 13 32
t32.5 27.5t43 22.5t44.5 16l21 59.5t16 44.5q17 47 31 81.5t32.5 59.5t44.5 40.5t67 24.5q30 6 83 6q30 0 44.5 -10.5t14.5 -36.5q0 -43 -25 -74.5t-65 -31.5q-6 0 -24 3.5t-28 3.5q-9 0 -14.5 -0.5t-11.5 -7t-14.5 -23t-21.5 -48.5q-8 -20 -16.5 -39.5t-16.5 -39.5
q3 0 22 1t41 2.5t41 2.5t22 1q65 0 88 -17q16 -12 16 -41q-6 -59 -92 -59z" />
    <glyph glyph-name="g" unicode="g" horiz-adv-x="548" 
d="M548 475q0 -78 -43 -251q-38 -153 -60 -206q-13 -31 -25 -62t-26 -61q-24 -54 -50.5 -96t-53.5 -73q-75 -85 -157 -85q-59 0 -126 63q-73 69 -73 143q0 5 7.5 14.5t18.5 20t23.5 19t23.5 10.5q3 0 19 -23t37.5 -51t45 -51.5t41.5 -23.5q45 0 81 51q15 21 29 54t27 70
t25 75t23 70l28 89q-64 -83 -137 -126q-65 -38 -128 -38q-43 0 -68 40q-19 28 -19 52q0 10 6.5 32t18 49.5t25.5 56.5t29 53q59 90 170 169q102 72 149 72q12 0 21.5 -15.5t11.5 -33.5q20 10 41 20t29 10q23 0 29.5 -8.5t6.5 -28.5zM397 399q-59 0 -159 -102
q-93 -95 -93 -119q0 -33 21 -33q59 0 138 103q62 79 93 151z" />
    <glyph glyph-name="h" unicode="h" horiz-adv-x="574" 
d="M551 129q0 -49 -30 -87t-78 -38q-25 0 -43.5 20.5t-18.5 46.5q0 9 0.5 35.5t1.5 57t1.5 57t0.5 35.5l1 74q-3 -3 -21 -24.5t-40.5 -48.5t-44 -52.5t-31.5 -37.5q-83 -92 -132 -127q-35 -24 -61 -24q-22 0 -31.5 15t-12.5 37q8 28 16.5 56t16.5 56q14 49 32 110.5
t40 134.5q23 79 41 138.5t30 99.5q33 107 43 121q24 35 61 35q30 0 41 -9t11 -26q0 -38 -37 -158q-9 -29 -28 -85.5t-47 -140.5q-46 -134 -54 -164l44 47q34 37 64 82t61 85q86 107 132 107q29 0 37 -24.5t8 -73.5q0 -14 -2 -43.5t-5 -61.5t-5 -61t-2 -43q0 -4 6.5 -22
t14 -38.5t14 -38.5t6.5 -22z" />
    <glyph glyph-name="i" unicode="i" horiz-adv-x="263" 
d="M326 679q0 -7 -8 -22t-19.5 -29.5t-23.5 -25.5t-21 -11t-24.5 10t-31.5 24t-27.5 28t-11.5 23t9 24t21.5 29.5t26 25.5t22.5 11q14 0 29 -8t28.5 -20.5t22 -28t8.5 -30.5zM236 441q0 -31 -33 -123q-5 -12 -19.5 -43t-14.5 -57q0 -9 2.5 -20t6 -22.5t6 -20.5t2.5 -13
q0 -18 -15 -52q-39 -88 -101 -88q-32 0 -41.5 26t-9.5 62q0 21 10 63t24 88.5t30.5 90.5t28.5 70q46 99 86 99q19 0 28.5 -17t9.5 -43z" />
    <glyph glyph-name="j" unicode="j" horiz-adv-x="385" 
d="M337 442q0 1 -4.5 -20.5t-12 -55t-16 -73.5t-16 -78t-14 -68t-8.5 -42q-10 -46 -18.5 -91t-18.5 -90q-11 -50 -26 -88t-30 -62q-39 -62 -99 -62q-26 0 -54.5 12.5t-56.5 31t-52.5 40t-42.5 39.5q-28 28 -28 46q0 37 23 64t49 27q13 0 27 -13t27 -30t25 -34.5t20 -25.5
q13 -15 20 -22.5t36 -7.5q14 0 25 21t20 55t16.5 78.5t15.5 90.5q6 39 13 80t13.5 81t14 76.5t15.5 64.5q12 43 47 75q30 27 53 27q20 0 28.5 -9.5t8.5 -36.5zM363 655q0 -9 -8 -24t-19.5 -29t-24 -24.5t-21.5 -10.5q-8 0 -24 10.5t-32 24.5t-27.5 28.5t-11.5 22.5t9.5 23
t22 30t26 26t21.5 11q14 0 29.5 -8t28.5 -21t22 -28.5t9 -30.5z" />
    <glyph glyph-name="k" unicode="k" horiz-adv-x="589" 
d="M510 66q1 -9 -7.5 -23t-22 -27t-30 -22.5t-31.5 -9.5q-62 0 -129 64q-82 79 -82 195q48 29 84 54q28 19 34.5 36.5t6.5 42.5q0 15 -12 17q-19 4 -47 -30t-58 -84.5t-59 -107.5t-51 -99q-32 -60 -63 -60q-20 0 -34 13t-14 38q0 33 46 217q25 100 49 186.5t46 159.5
q57 181 79 181q32 0 54.5 -8t22.5 -20q0 -23 -9 -59t-21 -76t-24 -77.5t-20 -61.5l-57 -189q25 40 52 74.5t55 64.5q78 83 129 83q31 0 56.5 -19.5t25.5 -51.5q0 -94 -44 -151t-121 -70q9 -35 36 -64q-2 2 23 -14.5t55.5 -38t56 -41t25.5 -22.5z" />
    <glyph glyph-name="l" unicode="l" horiz-adv-x="317" 
d="M215 44q-32 -19 -52 -31.5t-37.5 -20t-37.5 -10.5t-51 -3q-16 0 -32 16t-16 34q0 30 10 77.5t24 99.5t29 101t25 81q31 103 51 169.5t30 96.5q54 160 76 160q10 0 22.5 -3t23 -8t17.5 -11.5t7 -12.5q0 2 -8 -22.5t-20.5 -63.5t-27 -87t-28 -92t-23.5 -79l-14 -49
q-11 -38 -18.5 -64.5t-12.5 -42.5l-24 -78t-23 -77q19 9 46.5 21t54.5 23t48.5 18.5t28.5 7.5t15 -6t14.5 -15t11 -19t4.5 -18q-1 -8 -12.5 -19.5t-28.5 -24.5t-36.5 -25.5t-35.5 -22.5z" />
    <glyph glyph-name="m" unicode="m" horiz-adv-x="909" 
d="M817 -21q-44 0 -78 20t-51 55q-12 25 -16.5 63t-4.5 77v26q-28 -33 -55.5 -66.5t-56.5 -64.5q-44 -49 -81 -73.5t-61 -24.5q-33 0 -49 24q-8 11 -9.5 25.5t0 29t4.5 28t4 21.5q5 32 11 63.5t12 60.5q4 25 9.5 51.5t9.5 35.5q-7 -7 -34 -45.5t-59.5 -84.5t-62.5 -88
t-42 -56q-77 -86 -127 -86q-31 0 -47.5 25t-16.5 53q5 23 9 41.5t6 32.5q9 44 18 81t14 66q8 44 14 89t15 90q9 47 34 71t57 24t37 -23.5t5 -58.5q0 4 -5 -20.5t-11 -63t-12.5 -83.5t-9.5 -81q5 0 20.5 16.5t36 41t44 54t43 55t33 43t15.5 19.5q71 81 105 81q8 0 18.5 -6.5
t21 -16.5t17.5 -22.5t7 -24.5q0 -32 -15 -122q-1 -4 -7 -38.5t-18 -100.5l84 108q79 102 122 149q68 75 89 75q23 0 37 -11.5t14 -37.5q0 -1 -6 -19.5t-12.5 -42.5t-12.5 -48.5t-6 -36.5q-1 -21 -2 -36t-1 -40q0 -28 11.5 -52.5t25 -46t25 -40.5t11.5 -38q0 -11 -6.5 -27.5
t-16.5 -31.5t-22.5 -26t-24.5 -11z" />
    <glyph glyph-name="n" unicode="n" horiz-adv-x="523" 
d="M491 429q0 -19 -4 -57.5t-9 -77t-9 -68t-4 -32.5q0 -8 6 -25t12.5 -35.5t11.5 -35t3 -23.5q-1 -7 -10.5 -19.5t-23.5 -24.5t-28.5 -20.5t-26.5 -8.5q-21 0 -36 16.5t-24.5 39.5t-13.5 48t-4 42q0 25 5 58t13 72q-16 -20 -31 -39t-30 -39q-26 -32 -50 -57.5t-44 -44.5
q-30 -28 -51 -45t-37 -26t-28.5 -11.5t-26.5 -2.5q-18 0 -28 15.5t-10 35.5q0 28 6 69.5t15.5 85t20.5 84t20 67.5q6 18 15.5 43t20 47.5t21.5 38t20 16.5q10 1 24.5 -3t27 -11t21 -17t7.5 -21q-1 -9 -8 -35.5t-17.5 -63t-24 -80.5t-28.5 -87q26 33 50.5 64t49.5 59
q66 76 114 120q60 54 89 54q27 0 30.5 -17t3.5 -48z" />
    <glyph glyph-name="o" unicode="o" horiz-adv-x="455" 
d="M631 455q-25 -5 -50.5 -12t-52.5 -14q-5 -1 -28.5 -8t-65.5 -20q7 -11 12 -17t8 -13.5t4.5 -18t1.5 -28.5q0 -94 -51 -177q-20 -31 -49.5 -64.5t-67.5 -65.5q-34 -28 -65 -39t-84 -11q-54 0 -89 25q-47 33 -47 101q0 70 30 151q11 32 24.5 58t27.5 47q68 96 112 132
q31 27 59 27q14 0 27.5 -11.5t13.5 -27.5q0 -15 -12 -38.5t-30.5 -51.5t-40.5 -58.5t-42 -60.5q-22 -34 -33 -64.5t-11 -50.5q0 -22 13 -37t39 -15q60 0 106 73q43 67 43 136q0 12 -3.5 32t-8 40t-8 36t-3.5 19q0 50 141 82q107 24 187 24q20 0 36.5 -7t16.5 -17
q0 -21 -19 -36t-41 -20z" />
    <glyph glyph-name="p" unicode="p" horiz-adv-x="484" 
d="M505 346q0 -97 -95 -221q-100 -130 -190 -130q-19 0 -44.5 11t-47.5 26q-6 -22 -10.5 -58.5t-9.5 -78.5t-12.5 -85.5t-18.5 -78.5t-27.5 -57.5t-40.5 -22.5q-37 0 -47.5 23.5t-10.5 61.5q0 8 9 49.5t22 99t28 121t27.5 115t20 82.5t5.5 22q6 25 13.5 55.5t16.5 62t18 62
t18 56.5q14 39 37 51q14 7 47 7q21 0 28 -9t7 -28q0 -17 -5 -42q43 36 69 53q49 31 81 31q61 0 86.5 -38t25.5 -140zM374 330q0 41 -3 52q-6 20 -25 20q-61 0 -98 -51q-10 -13 -24.5 -43t-28.5 -65t-26.5 -69.5t-18.5 -56.5q5 10 15.5 17.5t22.5 7.5q10 -1 23 -14t30 -13
q24 0 48 26.5t43 62.5t30.5 72t11.5 54z" />
    <glyph glyph-name="q" unicode="q" horiz-adv-x="604" 
d="M573 426q0 -30 -12 -80t-28 -105t-32.5 -107t-25.5 -85q-35 -132 -35 -152q-1 -7 -1 -11v-6q0 -14 6.5 -20.5t15 -12.5t15 -14.5t6.5 -24.5q0 -19 -16.5 -50t-40 -60t-50 -50.5t-47.5 -21.5q-22 0 -31.5 12.5t-10.5 35t5 54.5t15 71q5 23 17.5 74.5t32.5 131.5
q11 44 22.5 89t22.5 90q-72 -66 -165 -120q-107 -62 -169 -62q-12 0 -26 8t-25.5 21t-19.5 29t-8 32q0 41 75 139q79 103 174 180q113 90 192 90q17 0 28.5 -13.5t24.5 -28.5q7 2 25.5 11.5t26.5 9.5q20 0 29 -4.5t11 -12t0.5 -17.5t-1.5 -20zM345 319q0 17 -11 20t-27.5 -3
t-34.5 -18t-32 -26q-9 -9 -26 -29.5t-30.5 -42t-16.5 -38t17 -16.5q21 0 49 16t52.5 39t42 49.5t17.5 48.5z" />
    <glyph glyph-name="r" unicode="r" horiz-adv-x="395" 
d="M452 386q-25 0 -59 -17t-69.5 -43t-68 -56t-54.5 -55q-20 -23 -38 -81q-7 -24 -10 -47t-10 -41t-23.5 -29.5t-51.5 -11.5q-28 0 -42.5 22.5t-14.5 50.5q30 88 54.5 160.5t24.5 124.5q0 10 -2 26t-2 24q0 7 1 15t3 13q10 33 30 59t41 26q19 0 35.5 -15.5t16.5 -40.5
q0 -46 -4 -66q-5 -17 -8.5 -33t-7.5 -32q35 34 67 61t60 49q100 77 140 77q20 0 38 0.5t32.5 -2.5t23 -12.5t8.5 -29.5q0 -61 -24 -78.5t-86 -17.5z" />
    <glyph glyph-name="s" unicode="s" horiz-adv-x="409" 
d="M332 358q-10 0 -20 10t-10 19q0 5 3 13t3 12q0 10 -11 10q-18 0 -34.5 -21t-16.5 -48q0 -15 9 -29l18 -28l10.5 -18.5t23 -42t23 -45.5t10.5 -30q0 -45 -67 -111q-85 -84 -202 -84q-49 0 -68 6q-33 11 -33 42q0 22 15 37t38 24.5t50.5 13.5t51.5 4q28 0 48.5 13.5
t20.5 27.5q1 5 -9.5 30t-23 54t-23 54.5t-10.5 32.5q0 77 94 170q100 99 200 99q18 0 39 -17t21 -37q0 -12 -16 -39.5t-39.5 -55t-49 -48t-45.5 -18.5z" />
    <glyph glyph-name="t" unicode="t" horiz-adv-x="395" 
d="M512 572q0 -22 -29.5 -47.5t-65.5 -40.5q-50 -20 -100.5 -40t-96.5 -29q-14 -37 -26 -67.5t-20 -54.5q-32 -91 -32 -136q0 -25 22 -25q17 0 97 44l15.5 9.5t39 23.5t51.5 31t53 31t42.5 23.5t19.5 9.5q17 0 20 -12.5t3 -38.5q0 -21 -30 -48.5t-71 -55.5t-85 -53.5
t-71 -41.5q-29 -16 -58.5 -32t-55.5 -28t-46 -19.5t-31 -7.5q-13 0 -23.5 13.5t-18 33t-11.5 43t-4 42.5q0 36 38 159q2 7 8 23t12 37t10.5 46.5t4.5 51.5q0 24 19 46t40 41q18 47 35 94t37 94q18 43 43.5 64.5t50.5 21.5q15 0 23 -20t8 -36q0 -17 -6.5 -39.5t-16 -46.5
t-20.5 -48t-20 -44q38 6 72 16.5t70 21.5q4 1 15 5t23.5 8.5t24 7.5t17.5 3q14 0 20 -10.5t4 -22.5z" />
    <glyph glyph-name="u" unicode="u" horiz-adv-x="587" 
d="M569 66q0 -10 -8 -23.5t-20 -25.5t-25.5 -20.5t-24.5 -8.5q-35 0 -60 19.5t-41.5 48.5t-26 62.5t-14.5 61.5q-46 -52 -76 -84t-44 -44q-74 -64 -154 -64q-22 0 -41.5 16.5t-19.5 37.5q0 24 9 73q2 11 33 152q13 57 27.5 99.5t29.5 70.5q38 71 88 71q13 0 25.5 -11.5
t12.5 -21.5q0 -25 -13.5 -60.5t-24.5 -68.5q-8 -25 -14.5 -44.5t-10.5 -32.5q-15 -51 -15 -70q0 -22 2.5 -28.5t19.5 -6.5t28.5 6t28 23t42.5 48t71 80q25 93 66 135q30 31 65 31q40 0 40 -47q0 -1 -6.5 -28t-14.5 -62.5t-14.5 -70.5t-6.5 -52q0 -24 8 -45.5t21 -41t28 -38
t30 -36.5z" />
    <glyph glyph-name="v" unicode="v" horiz-adv-x="565" 
d="M589 355q-7 -25 -21 -41.5t-32 -16.5q-8 0 -17 6t-18.5 13t-18 13t-14.5 6q-8 -1 -25.5 -21.5t-38.5 -47.5t-41 -55t-33 -45q-46 -58 -72 -90.5t-34 -40.5q-55 -61 -86 -61q-36 0 -48 30.5t-12 69.5q0 20 2 36.5t4 26.5q0 14 -0.5 52.5t-1 82t-1 82t-0.5 52.5q0 54 15 88
t63 54q21 0 33 -11t18.5 -28.5t8.5 -40.5t2 -47q0 -12 -0.5 -27t-0.5 -34q0 -18 -0.5 -43t-0.5 -50t-0.5 -48.5t-0.5 -38.5q22 31 45 62t45 62q38 50 69 89t56 67q69 76 98 76q23 0 36.5 -6.5t20 -19.5t8 -30.5t1.5 -40.5q0 -13 -0.5 -21.5l-1 -17t-2 -18.5t-4.5 -27z" />
    <glyph glyph-name="w" unicode="w" horiz-adv-x="803" 
d="M902 509q0 -19 -2.5 -42t-9 -43.5t-17.5 -34t-27 -13.5q-9 0 -16 6.5t-12.5 15t-9.5 15t-7 6.5q-17 0 -37 -25t-40 -60t-39 -72.5t-34 -62.5q-25 -43 -47 -75t-41 -53q-49 -57 -88 -57q-21 0 -33.5 19t-20 47.5t-10 61t-2.5 59.5q0 17 0.5 37.5t1 39t1 32t0.5 15.5
q-6 -14 -38 -51t-71.5 -79t-77.5 -79.5t-55 -53.5q-94 -88 -130 -88q-23 0 -36 13t-13 43q0 48 45 199q8 28 17 55t17 55q15 56 25.5 90.5t15.5 48.5q36 86 89 86q15 0 23.5 -12.5t8.5 -27.5q0 -26 -24 -116l-28 -98t-27 -98q0 -11 13 -11q5 0 23.5 18t42.5 44.5t49.5 56.5
t46 54.5t32 38.5t6.5 8q72 77 101 77q25 0 38.5 -7t20 -21.5t7.5 -37t1 -53.5v-31q0 -39 2.5 -66t23.5 -27q5 0 18.5 18.5t32.5 46.5t39.5 61t38.5 62.5t31 50t16 24.5q49 61 96 61q28 0 49 -23t21 -47z" />
    <glyph glyph-name="x" unicode="x" horiz-adv-x="538" 
d="M545 501q0 -15 -19.5 -42t-47.5 -59t-59 -64.5t-55 -57.5q12 -17 24 -35t24 -35q30 -42 44 -42q49 0 49 -63q0 -44 -29 -69t-64 -25q-10 0 -31.5 22.5t-44 51t-40.5 54t-22 31.5q-17 -17 -32 -33.5t-28 -30.5q-38 -46 -41 -62q-6 -44 -20 -66q-20 -29 -58 -29
q-27 0 -44.5 19.5t-17.5 46.5q0 20 15.5 47.5t41 59.5t58 68t66.5 74q-42 57 -111 122q-40 22 -56.5 35.5t-16.5 32.5q0 9 8 21.5t19.5 24t25.5 19.5t26 8q35 0 81.5 -39.5t109.5 -122.5q23 26 46.5 52.5t47.5 51.5q34 36 61.5 53t44.5 17t31 -12t14 -24z" />
    <glyph glyph-name="y" unicode="y" horiz-adv-x="557" 
d="M490 150q-32 -114 -84 -218q-66 -131 -144 -206q-94 -91 -200 -91q-19 0 -45 5t-50 14t-40.5 20.5t-16.5 25.5q0 5 11 22.5t25.5 37t28.5 34.5t20 16t19.5 -3.5t28.5 -10.5t29.5 -11t22.5 -5q57 0 113 47q65 56 110 164q10 25 17 43t11 30q2 4 9 34.5t20 86.5
q-64 -61 -151 -115q-98 -61 -156 -61q-15 0 -27.5 30t-12.5 60q0 17 5 52.5t14.5 78.5t23 88.5t30.5 84t37 65t43 30.5q19 4 32.5 -12.5t13.5 -37.5q0 2 -4.5 -14.5t-12 -43t-15.5 -58t-15 -58t-11.5 -43t-3.5 -13.5q-1 -9 5.5 -23t13.5 -14q13 0 36.5 16.5t50 39.5
t51.5 47.5t41 40.5q14 15 26.5 38t26.5 44.5t31.5 36.5t42.5 15q26 0 35 -13.5t9 -35.5q0 -17 -4 -50.5t-10 -71.5t-14 -75t-16 -63z" />
    <glyph glyph-name="z" unicode="z" horiz-adv-x="552" 
d="M541 57q0 -13 -6.5 -28t-17.5 -27.5t-23.5 -21t-24.5 -8.5q-44 18 -81 31t-72 13q-19 0 -49.5 -4.5t-68.5 -11.5t-79.5 -15.5t-83.5 -17.5q-16 0 -24.5 16t-8.5 38q0 13 27.5 50.5t65 83.5t76 91t61.5 73q82 101 82 119q0 14 -8 17.5t-25 3.5q-6 0 -30 -6t-52 -13.5
t-52 -13.5t-30 -6q-13 0 -21.5 8.5t-8.5 21.5q0 26 27.5 46t64 33t74 19.5t58.5 6.5q27 0 54.5 -3.5t50.5 -12.5t37.5 -24.5t14.5 -39.5q0 -39 -66 -119q-9 -11 -42.5 -45.5t-71 -74t-69.5 -74t-39 -45.5q32 5 56.5 8.5t40.5 5.5q29 4 53.5 6t45.5 2q27 0 56.5 -7.5
t53.5 -19t39.5 -26t15.5 -29.5z" />
    <glyph glyph-name="braceleft" unicode="{" horiz-adv-x="355" 
d="M247 -14h31q19 0 33 -10.5t14 -38.5q0 -24 -30 -32t-77 -8q-81 0 -111 6q-59 12 -59 49q0 10 6.5 37t17 64t22 78.5t21 80t16 70t5.5 46.5q0 6 -9.5 11.5t-21 11.5t-21 14.5t-9.5 20.5q0 22 12.5 34.5t27.5 12.5q27 0 31 1q35 6 48 45t31 100q15 50 27 107t33 105.5
t56.5 80.5t97.5 32q18 0 23 -1q47 -4 74 -10t24 -35q0 -29 -23 -41t-55 -12q-28 0 -55 -0.5t-33 -22.5t-13.5 -49t-15.5 -59q-17 -61 -26 -106.5t-18 -77.5t-22.5 -51.5t-39.5 -28.5q-14 -4 -29 -8.5t-29 -8.5q29 -13 39.5 -22t10.5 -29q0 -11 -13.5 -56t-29.5 -99
t-29.5 -105t-13.5 -74q0 -13 24 -17.5t58 -4.5z" />
    <glyph glyph-name="bar" unicode="|" horiz-adv-x="417" 
d="M240 915q26 0 33 -20.5t7 -67.5q0 -99 0.5 -213.5t1 -233t1 -235.5t0.5 -221q1 -8 1 -14v-10q0 -42 -14.5 -64.5t-54.5 -22.5q-15 0 -23 12t-8 28v273.5v283.5v262.5t1 210.5q0 20 15.5 26t39.5 6z" />
    <glyph glyph-name="braceright" unicode="}" horiz-adv-x="405" 
d="M238 807h-32q-47 0 -47 49q0 25 28.5 32.5t79.5 7.5q80 0 110 -6q59 -12 59 -49q0 -9 -6.5 -36t-16.5 -64t-21.5 -79.5t-21 -81t-16 -69.5t-5.5 -45q0 -7 9.5 -12.5t20.5 -11.5t20.5 -14.5t9.5 -20.5q0 -19 -12 -33t-27 -14q-30 0 -44.5 -4t-23.5 -21q-9 -18 -19.5 -49
t-22 -68.5t-23.5 -78.5t-24 -80q-13 -42 -23.5 -74t-27.5 -53.5t-44 -32t-73 -10.5q-12 0 -26.5 1t-27.5 2.5t-21 2.5t-6 1q-23 4 -31.5 14t-8.5 26q0 20 10.5 30.5t26.5 15t36 5t38 0.5q24 0 37.5 5t17.5 20q5 24 13 51t16 57q17 61 25.5 106.5t17.5 77t23 51t41 28.5
q14 4 28.5 8.5t28.5 8.5q-29 14 -39.5 22.5t-10.5 28.5q0 11 13.5 56t29.5 99t29.5 105t13.5 74q1 13 -23 17.5t-58 4.5z" />
    <glyph glyph-name="asciitilde" unicode="~" 
d="M515 831q0 -25 -14 -47.5t-36 -39.5t-48.5 -27t-51.5 -10q-42 0 -75.5 13t-66.5 39q-19 -21 -33 -33.5t-48 -12.5q-21 0 -37.5 13t-16.5 33q0 18 19 45.5t45 53.5t54 44.5t47 18.5q16 0 36 -11t43 -23.5t47.5 -23.5t48.5 -11q14 0 28 7t21 7q16 0 27 -8.5t11 -26.5z" />
    <glyph glyph-name="afii10051" horiz-adv-x="552" 
d="M309 687q60 8 102.5 13t73 8t52 4.5t39.5 1.5q52 0 75 -17t23 -61q0 -16 -12.5 -32.5t-31.5 -30t-40 -22t-38 -8.5t-27.5 5t-18.5 11.5t-16.5 11.5t-21.5 5q-12 0 -35.5 -2t-46.5 -5t-39.5 -5t-14.5 -2q-5 -17 -11.5 -35.5t-13.5 -38.5q-17 -49 -30 -76q27 15 72 26
t86 11q26 0 49.5 -11.5t41.5 -31.5t29 -48t11 -61q0 -60 -21 -123t-59.5 -114.5t-92 -84.5t-117.5 -33q-74 0 -104 33q-24 27 -24 83q0 12 13.5 26.5t29.5 16.5q21 3 34.5 -3.5t24 -15t21.5 -16.5t29 -8q79 0 118 67q29 50 29 111q0 62 -18 85t-66 23q-69 0 -125 -47
q-8 -48 -15.5 -79t-22.5 -62q-10 -26 -28.5 -50.5t-36.5 -32.5q-32 -18 -57 0.5t-25 61.5q0 37 34 115q11 26 19 43.5t12 27.5q13 30 25.5 60t24.5 61l39 99q-107 -22 -177 -22q-23 0 -41.5 12t-18.5 34q0 60 55 73q24 5 60.5 12t77 14t79.5 13t67 10z" />
    <glyph glyph-name="afii10052" horiz-adv-x="399" 
d="M13 63q0 48 19 117q2 5 11 34t21.5 66.5t25 74.5t21.5 59q13 32 27 63.5t28 63.5q-9 3 -22 7t-25 9.5t-20.5 13t-8.5 18.5q0 23 15 42.5t40.5 33t58.5 21t69 7.5q12 0 41.5 2.5t63 5.5t63.5 5.5t42 2.5q33 0 54 -3t33 -11t16.5 -22.5t4.5 -38.5q0 -16 -12.5 -32.5
t-31.5 -30t-40 -22t-38 -8.5t-27 5t-18.5 11t-17 11t-21.5 5q-34 0 -60.5 -6t-42.5 -10q-13 -31 -23 -59t-18 -53q-11 -33 -21 -68.5t-18.5 -69.5t-15 -64.5t-10.5 -52.5q-11 -64 -11 -106q0 -40 -22 -66.5t-62 -26.5q-24 0 -46 22t-22 50zM608 912q0 -19 -5 -39t-15 -36.5
t-24.5 -27.5t-32.5 -11t-44.5 -7.5t-57.5 -19t-66 -25.5t-69 -28q-5 0 -12 5.5t-14 12.5t-11.5 14.5t-4.5 12.5q0 27 39 57.5t90 57t99.5 43.5t67.5 17q60 0 60 -26z" />
    <glyph glyph-name="afii10061" horiz-adv-x="620" 
d="M730 596q0 -40 -25.5 -62.5t-69.5 -28.5q-15 -1 -45.5 -16t-65 -35.5t-67.5 -41.5t-53 -36q20 -28 40.5 -55.5t41.5 -53.5q32 -41 57 -65.5t38 -31.5q23 -10 30 -26.5t7 -45.5q0 -34 -28.5 -56.5t-67.5 -22.5q-14 3 -27 9.5t-29 21.5t-35 39t-43 61q-4 5 -28.5 47
t-70.5 119q-17 -11 -26 -16t-34 -15q-19 -35 -30 -56.5t-24 -49.5q-6 -15 -6 -32q0 -8 3.5 -31t-0.5 -35q-6 -32 -36 -50.5t-65 -18.5q-27 0 -46.5 19t-19.5 51q0 16 22 72q36 94 57 150.5t28 76.5q52 170 95 242q37 64 80 64q16 0 30 -15t14 -33q0 -27 -26 -102
q-11 -29 -21 -58.5t-20 -58.5q1 0 19.5 12t46.5 31t61 41l63 42l52.5 35t29.5 20q97 58 131 58q63 0 63 -63zM755 891q0 -19 -5 -39t-15 -36.5t-24.5 -27.5t-32.5 -11t-44 -7.5t-58 -19t-66.5 -26t-68.5 -27.5q-5 0 -12 5.5t-14 12.5t-11.5 15t-4.5 12q0 18 18.5 38
t47.5 39.5t64 37t67.5 31t59.5 21.5t39 8q60 0 60 -26z" />
    <glyph glyph-name="afii10060" horiz-adv-x="605" 
d="M513 165q-1 -11 -0.5 -29.5t2 -35.5t3 -28.5t1.5 -8.5q0 -43 -16 -57.5t-62 -14.5q-13 0 -25 6.5t-21 16.5t-14.5 22.5t-5.5 23.5q0 19 14 67q11 37 18.5 60t12 39.5t6.5 29t2 28.5q0 32 -16 46t-49 14q-69 0 -125 -47q-4 -26 -8 -52.5t-8 -52.5q-5 -32 -11.5 -55.5
t-13.5 -37.5q-10 -26 -28.5 -50.5t-36.5 -32.5q-32 -18 -57 0t-25 62q0 35 25 119q11 37 22 68t21 56q13 30 25.5 60t24.5 61l39 99q-107 -22 -177 -22q-23 0 -41.5 12t-18.5 34q0 60 55 73q24 5 60.5 12t77 14t79.5 13t67 10q60 8 102.5 13t73 8t52 4.5t39.5 1.5
q52 0 75 -17t23 -61q0 -16 -12.5 -32.5t-31.5 -30t-40 -22t-38 -8.5t-27.5 5t-18.5 11.5t-16.5 11.5t-21.5 5q-12 0 -35.5 -2t-46.5 -5t-39.5 -5t-14.5 -2q-5 -17 -11.5 -35.5t-13.5 -38.5q-17 -49 -30 -76q25 14 72.5 21.5t94.5 7.5q53 0 76.5 -34t23.5 -88v-19
q0 -20 -4.5 -41t-10 -39.5t-10.5 -33t-6 -21.5z" />
    <glyph glyph-name="afii10145" horiz-adv-x="630" 
d="M280 -88q-7 -14 -14 -30.5t-16 -30.5t-21 -23.5t-29 -9.5q-26 0 -36 18q-8 14 -5.5 36t9.5 46t15.5 46t12.5 34q-21 0 -40 -0.5t-37 -0.5q-47 0 -60 3q-38 8 -38 49q0 12 11 52.5t26 90t31 100.5t27 84q16 53 32 107.5t34 106.5t43.5 78t50.5 26q15 0 31 -16t16 -35
q0 -6 -6 -30t-15.5 -57.5t-21.5 -72.5t-23 -75.5t-20.5 -66t-14.5 -44.5q-5 -17 -11.5 -41.5t-13 -48.5t-14.5 -44t-16 -28q10 -1 23.5 -1.5t28.5 -0.5q30 0 70.5 1t86.5 3q13 37 24 68t19 56q15 43 24.5 70.5t13.5 40.5q9 27 18.5 60.5t18.5 65t16.5 59t13.5 42.5
q38 102 96 102q23 0 33 -16.5t10 -52.5q0 -38 -53 -203q-25 -74 -49.5 -148.5t-47.5 -148.5q-6 -18 -10.5 -40.5t-12.5 -42t-21 -33t-34 -13.5q-29 0 -58.5 -0.5t-60.5 -0.5q-6 -16 -9.5 -26.5t-7 -19t-7.5 -18.5t-12 -26z" />
    <glyph glyph-name="afii10099" horiz-adv-x="574" 
d="M292 581q-5 -15 -19.5 -57t-32 -93.5t-35 -104.5t-27.5 -90l44 47q34 37 64 82t61 85q86 107 132 107q21 0 32 -28.5t11 -99.5q0 -81 -43 -249q-16 -63 -28 -104t-24 -74.5t-26 -67t-34 -81.5q-23 -54 -50.5 -96.5t-53.5 -72.5q-75 -85 -157 -85q-58 0 -126 63
q-73 69 -73 143q0 5 7.5 14.5t18.5 20t24 19t23 10.5q3 1 19.5 -22.5t38 -51.5t44.5 -51.5t41 -23.5q51 0 90 61q2 3 26.5 63t72.5 177q20 47 35 111t28 120q6 26 8.5 40t2.5 38q-3 -3 -21 -24.5t-40.5 -48.5t-44 -52.5t-31.5 -37.5q-83 -92 -132 -127q-35 -24 -61 -24
q-22 0 -31.5 15t-12.5 37l145 492q-19 -2 -31.5 -3.5t-17.5 -0.5q-22 0 -29.5 6t-7.5 29q0 27 35 51.5t88 40.5q14 52 21 68q29 68 77 68q30 0 41 -9t11 -26q0 -12 -4 -31.5t-11 -49.5q35 0 60.5 2.5t57.5 2.5q65 0 88 -17q16 -12 16 -41q-6 -59 -92 -59q-27 0 -69 -2.5
t-98 -7.5z" />
    <glyph glyph-name="afii10109" horiz-adv-x="521" 
d="M350 264q6 -22 19.5 -43t34.5 -37q18 -13 42 -27.5t46.5 -28t38 -25t15.5 -19.5q2 -9 -6.5 -23t-22.5 -27t-30.5 -22.5t-31.5 -9.5q-23 0 -50.5 14.5t-55 37.5t-52 51.5t-40.5 57.5q-48 -55 -93 -94q-65 -56 -100 -56q-19 0 -28.5 16t-9.5 35q0 28 6 69.5t15.5 85
t20.5 84t20 67.5q6 18 15.5 43t20 47.5t21.5 38t20 16.5q11 1 25 -3t26.5 -11t21 -17t7.5 -21q-1 -9 -8 -35.5t-17.5 -63t-24 -80.5t-28.5 -87q25 33 50 64t50 59q66 76 114 120q60 54 89 54q24 0 29 -14t5 -51q0 -50 -32 -71q-33 -22 -54.5 -34.5t-42.5 -33.5l-7 -7
t-18 -19zM659 755q0 -19 -5 -39t-15 -36.5t-24.5 -27.5t-32.5 -11t-44 -7.5t-58 -19t-66.5 -26t-68.5 -27.5q-5 0 -12 5.5t-14 12.5t-11.5 15t-4.5 12q0 18 18.5 38t47.5 39.5t64 37t67.5 31t59.5 21.5t39 8q60 0 60 -26z" />
    <glyph glyph-name="afii10108" horiz-adv-x="574" 
d="M249 167q-83 -92 -132 -127q-35 -24 -61 -24q-22 0 -31.5 15t-12.5 37l145 492q-19 -2 -31.5 -3.5t-17.5 -0.5q-22 0 -29.5 6t-7.5 29q0 27 35 51.5t88 40.5q14 52 21 68q29 68 77 68q30 0 41 -9t11 -26q0 -12 -4 -31.5t-11 -49.5q35 0 60.5 2.5t57.5 2.5q65 0 88 -17
q16 -12 16 -41q-6 -59 -92 -59q-27 0 -69 -2.5t-98 -7.5q-5 -15 -19.5 -57t-32 -93.5t-35 -104.5t-27.5 -90l44 47q34 37 64 82t61 85q86 107 132 107q29 0 37 -24.5t8 -73.5q0 -14 -2 -43.5t-5 -61.5t-5 -61t-2 -43q0 -4 6.5 -22t14 -38.5t14 -38.5t6.5 -22q0 -49 -30 -87
t-78 -38q-25 0 -43.5 20.5t-18.5 46.5q0 9 0.5 35.5t1.5 57t1.5 57t0.5 35.5l1 74q-3 -3 -21.5 -25.5t-41.5 -50t-44.5 -53t-29.5 -34.5z" />
    <glyph glyph-name="nonbreakingspace" unicode="&#xa0;" horiz-adv-x="441" 
d="M441 817q0 -37 -16.5 -58.5t-53.5 -21.5q-64 0 -64 54q0 4 6 19t15.5 31t21.5 28.5t23 12.5q24 0 46 -22t22 -43zM239 819q0 -31 -22 -54t-53 -23q-33 0 -49 13.5t-16 31.5q2 3 12.5 23t27 43.5t28.5 23.5q26 0 51 -23q21 -20 21 -35z" />
    <glyph glyph-name="afii10062" unicode="&#xa1;" 
d="M242 243q-4 7 -16.5 31t-32.5 67q-19 37 -34.5 68t-29.5 50q-15 19 -27.5 32t-21.5 25t-14 27t-5 37q0 39 22 64t60 25q25 0 56.5 -37.5t63.5 -111.5q20 -47 33.5 -79.5t20.5 -49.5q18 42 35.5 84.5t36.5 84.5q30 67 58.5 100t47.5 33q22 0 41.5 -15t19.5 -32
q0 -21 -25 -80q-10 -24 -26 -59t-35 -75.5t-39.5 -83.5t-40.5 -84q-32 -67 -55 -110t-35 -62q-29 -45 -58 -72q-34 -33 -71 -45q-27 -9 -67 -9q-12 0 -23.5 11t-20.5 28t-14 37.5t-5 38.5q0 12 9.5 20t24 14t31.5 10.5t31 9.5q24 7 39.5 19.5t27 27t20.5 30.5t18 31z
M556 820q0 -29 -29.5 -54.5t-69.5 -45t-81 -31t-64 -11.5q-70 0 -107 48q-31 40 -31 94q0 25 15 40t50 15q43 0 59.5 -20.5t28.5 -46.5q9 -16 27 -16q88 0 160 49q11 7 20 7q22 0 22 -28z" />
    <glyph glyph-name="afii10110" unicode="&#xa2;" horiz-adv-x="489" 
d="M350 211l-29 -29t-59 -60q-63 -64 -96 -90q-55 -41 -92 -41q-28 0 -43 27t-15 60q0 17 5 54t14.5 82.5t23 94t31.5 88.5t40 66t47 26q19 0 31.5 -15.5t12.5 -34.5q0 3 -6 -16t-15 -49t-19.5 -66t-19.5 -66t-15 -49t-6 -15q0 -18 4 -29.5t19 -11.5t37 19t46.5 49t50 66
t47 69.5t37 60.5t20.5 38q10 20 29.5 33.5t38.5 13.5q20 0 27.5 -7.5t7.5 -30.5q0 -75 -44 -251q-15 -59 -30 -111t-29 -95q-11 -35 -21.5 -70.5t-21.5 -70.5q-20 -62 -45 -112t-50 -86q-71 -101 -152 -101q-59 0 -126 63q-73 69 -73 143q0 5 7.5 15t18.5 20.5t23.5 19
t23.5 9.5q3 0 19 -23t37.5 -51t45 -51.5t41.5 -23.5q45 0 81 68q12 22 24.5 59t24.5 79.5t23 86t20 78.5q5 20 9.5 37.5t10 36.5t12.5 41.5t17 52.5zM586 694q0 -29 -29.5 -54.5t-69.5 -45t-81 -31t-64 -11.5q-70 0 -107 48q-31 40 -31 94q0 25 15 40t50 15q43 0 59.5 -20.5
t28.5 -46.5q9 -16 27 -16q88 0 160 49q11 7 20 7q22 0 22 -28z" />
    <glyph glyph-name="afii10057" unicode="&#xa3;" horiz-adv-x="581" 
d="M701 589q0 -39 -23 -66t-56 -27q-22 0 -49 7t-35 7q-25 -40 -37 -74.5t-24 -85.5q-11 -50 -20.5 -91.5t-19.5 -73.5q-13 -44 -26 -77.5t-26 -56.5q-31 -55 -66 -55q-19 0 -56 10.5t-77.5 25t-77.5 30.5t-55 27q-93 55 -93 119q0 14 11 28t27 25.5t34.5 19t34.5 7.5
q29 0 41 -8.5t12 -20.5q0 -9 -5 -21q-7 -14 9 -27t44 -24.5t62 -20.5t62 -14q16 31 31.5 84.5t30 107.5t26.5 98t21 56q-26 -5 -48.5 -8t-44.5 -3q-44 0 -66 9q-30 12 -30 42q0 48 56.5 70.5t149.5 22.5q10 0 33 3t52.5 7t62 7t60.5 3q12 0 25 -5.5t24 -14t18.5 -19.5
t7.5 -23z" />
    <glyph glyph-name="afii10050" unicode="&#xa5;" horiz-adv-x="434" 
d="M485 579q-21 -8 -40 -8q-12 0 -30 1.5t-19 1.5q-28 0 -59 -5.5t-55 -11.5q-13 -31 -23 -59t-18 -53q-11 -33 -21 -68.5t-18.5 -69.5t-15 -64.5t-10.5 -52.5q-11 -64 -11 -106q0 -40 -22 -66.5t-62 -26.5q-24 0 -46 22t-22 50q0 48 19 117q2 5 11 34t21.5 66.5t25 74.5
t21.5 59q13 32 27 63.5t28 63.5q-9 3 -22 7t-25 9.5t-20.5 13t-8.5 18.5q0 26 15 44.5t40.5 30.5t58.5 19t69 10q16 0 43.5 2t55.5 4.5t50 4.5t26 2q7 15 7 28t-6 25t-13 22t-13 18.5t-6 14.5q0 7 10.5 21.5t24 29.5t27.5 26.5t21 11.5q32 0 55 -35.5t23 -85.5
q0 -97 -28 -146q-23 -40 -65 -57z" />
    <glyph glyph-name="brokenbar" unicode="&#xa6;" horiz-adv-x="417" 
d="M281 264q0 -80 0.5 -165t1.5 -175q1 -8 1 -14v-10q0 -42 -14.5 -64.5t-54.5 -22.5q-15 0 -23 12t-8 28q0 31 -0.5 64.5t-1.5 70.5q-4 127 -5.5 195.5t-1.5 78.5q0 23 16.5 36.5t36.5 14.5t36.5 -10.5t16.5 -38.5zM234 370q-21 -2 -38.5 17.5t-17.5 36.5q0 40 1 101.5
t2 127t2 127.5t2 103q0 21 15.5 33.5t35.5 12.5q27 0 36 -14.5t9 -43.5q0 -11 -0.5 -22t-0.5 -22l1 -401q0 -17 -14 -36.5t-33 -19.5z" />
    <glyph glyph-name="section" unicode="&#xa7;" horiz-adv-x="403" 
d="M527 628q0 -29 -16 -54t-36 -25q-37 0 -44.5 17.5t-7.5 42.5q0 9 -19 9q-18 0 -38 -6.5t-37 -17.5t-28 -26t-11 -33q0 -19 11.5 -44t27.5 -50.5t31.5 -49t22.5 -40.5q18 -41 18 -86q0 -90 -117 -119q-6 -1 -13.5 -1.5t-17.5 -0.5q-20 0 -33.5 2t-23.5 2
q11 -14 24.5 -33.5t25 -40t19 -39.5t7.5 -31q0 -61 -61 -95q-49 -27 -103 -27q-77 0 -111 49q-19 29 -20 61t18 55q18 18 34.5 15t29.5 -14.5t23 -26.5l14 -21q13 -17 26.5 -16t24.5 9.5t17.5 20.5t5.5 18q0 14 -12.5 34t-29 41t-32.5 39.5t-22 29.5q-37 64 -37 134
q0 69 70 106q50 28 94 28q30 0 42 -14q11 -13 13.5 -29t-4.5 -30t-24 -23.5t-45 -9.5q-23 0 -40 -10t-17 -44q0 -26 21.5 -46t60.5 -20t63 20t24 51q0 12 -15 47.5t-33 75t-33 74.5t-15 46q0 57 46 119q59 80 146 80q78 0 111 -34q25 -25 25 -69z" />
    <glyph glyph-name="afii10023" unicode="&#xa8;" horiz-adv-x="482" 
d="M647 658q0 -29 -13.5 -46t-36.5 -26t-54 -12t-66 -3q-52 0 -116 -9l-38 -6l-38 -6q-11 -38 -22.5 -76t-22.5 -76q5 0 35 3.5t65.5 8t65.5 8t35 3.5q27 0 44 -3.5t17 -29.5q0 -67 -151 -98q-23 -5 -58.5 -10t-84.5 -10l-49 -142q5 2 41 8t78 13.5t78 13t42 5.5q52 0 69 -9
q24 -13 24 -54q0 -80 -72 -80q-26 0 -39 5q-30 0 -67 -5t-78.5 -12t-85 -16.5t-85.5 -18.5q-23 0 -39.5 16.5t-16.5 34.5q2 14 60 209q18 62 27.5 99.5t18.5 67.5t21.5 59t37.5 74q-23 0 -39 10t-11 31q4 21 35 40.5t83 33.5t121 22.5t150 8.5h77q58 -1 58 -26zM581 857
q0 -37 -16.5 -58.5t-53.5 -21.5q-64 0 -64 54q0 4 6 19t15.5 31t21.5 28.5t23 12.5q24 0 46 -22t22 -43zM379 859q0 -31 -22 -54t-53 -23q-33 0 -49 13.5t-16 31.5q2 3 12.5 23t27 43.5t28.5 23.5q26 0 51 -23q21 -20 21 -35z" />
    <glyph glyph-name="copyright" unicode="&#xa9;" horiz-adv-x="753" 
d="M794 453q0 -84 -20.5 -153t-70.5 -146q-64 -101 -139 -153q-86 -59 -193 -59q-114 0 -191 113q-68 101 -68 229q0 161 143 304q139 137 283 137q54 0 101 -22.5t81 -60t54 -87t20 -102.5zM697 440q0 91 -41.5 143.5t-112.5 52.5q-55 0 -114 -29.5t-107.5 -76
t-79.5 -103.5t-31 -113q0 -115 35 -190q45 -94 140 -94q84 0 149 53q51 42 105 132q34 56 45.5 106.5t11.5 118.5zM606 445q0 -19 -9.5 -33t-27.5 -14q-9 0 -21 4t-23.5 9t-21.5 9t-16 4q-18 0 -35.5 -18.5t-31 -43.5t-21.5 -51t-8 -40q0 -12 3.5 -16.5t19.5 -4.5
q17 0 56 21q23 13 46 25t46 25q39 0 39 -32q0 -21 -24.5 -44t-60.5 -43t-76 -32.5t-70 -12.5q-15 0 -29 9t-24 24t-16 34t-6 38q0 82 52 161q61 96 154 96q45 0 75 -23t30 -51z" />
    <glyph glyph-name="afii10053" unicode="&#xaa;" horiz-adv-x="472" 
d="M553 607q0 -16 -7.5 -32t-19.5 -28.5t-26.5 -20t-28.5 -7.5q-3 0 -11 5t-18.5 10.5t-22 10.5t-20.5 5q-85 0 -146 -100q-80 -130 -80 -230q1 -10 2.5 -17t2.5 -12q9 -30 23 -30q1 0 21 7t49 18t63.5 23t63.5 23t49 18t21 7q21 0 30.5 -13.5t9.5 -53.5q0 -23 -27.5 -46.5
t-68.5 -45.5t-88 -41t-86 -33q-94 -33 -115 -33q-41 0 -68 48.5t-27 118.5q0 73 46 190q54 140 132 225q97 109 212 109q8 0 30 -7.5t45 -18.5t41.5 -24t18.5 -25zM211 342q0 30 18.5 46.5t45.5 16.5q7 0 20 -0.5t26 -1.5t24.5 -1.5t17.5 -0.5q34 0 64 8q7 1 21 8
q28 0 47 -10.5t19 -31.5q0 -28 -21 -47t-53 -31t-69 -17t-68 -5q-47 0 -69.5 12t-22.5 55z" />
    <glyph glyph-name="guillemotleft" unicode="&#xab;" horiz-adv-x="736" 
d="M422 445q0 -12 -19 -32t-45 -41t-52 -40t-39 -29q30 -47 49 -77.5t27 -44.5q22 -40 22 -58t-7.5 -36.5t-19.5 -33t-28 -24t-32 -9.5q-20 0 -49 34.5t-56 79.5t-46 87.5t-19 59.5q0 20 30 49.5t68 58t73 51.5t46 29q41 24 69 24q14 0 21 -13.5t7 -34.5zM666 452
q0 -28 -45.5 -62t-110.5 -80q22 -34 38 -58.5t25 -39.5q35 -59 35 -82q0 -18 -7.5 -36t-19.5 -33t-27.5 -24.5t-31.5 -9.5q-20 0 -49 35t-56 80t-46.5 87.5t-19.5 58.5q0 15 17 35t40 39.5t47 36t38 26.5q59 42 75 51q40 24 70 24q14 0 21 -13.5t7 -34.5z" />
    <glyph glyph-name="logicalnot" unicode="&#xac;" horiz-adv-x="639" 
d="M557 288q0 -58 -15 -103q-25 -73 -81 -73q-28 0 -42 23.5t-14 91.5v22l-289 -47q-29 0 -47.5 11t-18.5 32q0 60 179 98q131 28 243 28q54 0 69.5 -16.5t15.5 -66.5z" />
    <glyph glyph-name="hyphen" unicode="&#xad;" horiz-adv-x="639" 
d="M591 284q0 -22 -10.5 -35t-27 -19t-38 -5.5t-42.5 5.5q-41 9 -66 9q-15 0 -43.5 -4t-63.5 -11t-73.5 -15t-73.5 -17q-28 0 -46.5 10.5t-18.5 31.5q0 62 177 102q134 31 240 31q55 0 70.5 -16.5t15.5 -66.5z" />
    <glyph glyph-name="registered" unicode="&#xae;" horiz-adv-x="787" 
d="M794 453q0 -84 -20.5 -153t-70.5 -146q-64 -101 -139 -153q-86 -59 -193 -59q-114 0 -191 113q-68 101 -68 229q0 161 143 304q139 137 283 137q54 0 101 -22.5t81 -60t54 -87t20 -102.5zM697 440q0 91 -41.5 143.5t-112.5 52.5q-55 0 -114 -29.5t-107.5 -76
t-79.5 -103.5t-31 -113q0 -115 35 -190q45 -94 140 -94q84 0 149 53q51 42 105 132q34 56 45.5 106.5t11.5 118.5zM618 498q0 -18 -12.5 -38.5t-31 -40.5t-41 -38t-42.5 -30q11 -14 23 -28t23 -28q7 -10 13.5 -20t13.5 -20q9 -15 7.5 -29t-9 -24t-19.5 -16t-24 -6t-27.5 12
t-32.5 31t-34.5 42t-34.5 44q-18 -69 -18 -70q-2 -7 -5 -13.5t-5 -11.5q-8 -18 -18.5 -28.5t-27.5 -10.5q-18 0 -32 15.5t-14 48.5q0 154 62.5 235t211.5 81q11 0 24 -5t24 -13t18.5 -18.5t7.5 -20.5zM509 484q-9 1 -20 1.5t-29 0.5q-26 0 -32 -14.5t-10 -31.5
q-5 -16 -8.5 -28.5t-5.5 -21.5q9 2 27 11t36 21t32.5 25.5t15.5 24.5q1 12 -6 12z" />
    <glyph glyph-name="afii10056" unicode="&#xaf;" horiz-adv-x="335" 
d="M307 592q0 -51 -20 -128q-37 -144 -39 -147q-21 -101 -21 -199q0 -21 -12 -39t-28.5 -30.5t-34 -19.5t-29.5 -7q-23 0 -40 12.5t-17 36.5q6 31 10.5 57t8.5 45q23 117 44.5 205t45.5 173q15 55 39 82t46 27q25 0 36 -21t11 -47zM456 787q0 -37 -16.5 -58.5t-53.5 -21.5
q-64 0 -64 54q0 4 6 19t15.5 31t21.5 28.5t23 12.5q24 0 46 -22t22 -43zM254 789q0 -31 -22 -54t-53 -23q-33 0 -49 13.5t-16 31.5q2 3 12.5 23t27 43.5t28.5 23.5q26 0 51 -23q21 -20 21 -35z" />
    <glyph glyph-name="degree" unicode="&#xb0;" 
d="M542 713q0 -43 -78 -121q-94 -94 -201 -94q-56 0 -82.5 26.5t-26.5 75.5q0 20 24 55.5t57 70t67 60.5t54 26q65 0 117 -20q69 -27 69 -79zM341 688q-11 0 -17.5 -10.5t-6.5 -26.5q0 -12 11 -18t22 -6q13 0 20.5 10.5t7.5 22.5q0 14 -11 21t-26 7z" />
    <glyph glyph-name="plusminus" unicode="&#xb1;" horiz-adv-x="883" 
d="M848 455q0 -37 -19 -58t-57 -21q-2 0 -12.5 -0.5t-25 -1.5t-30 -1.5t-27.5 -0.5q-32 0 -66 -4t-66 -8q-11 -69 -12 -78q-2 -20 -3.5 -42.5t-1.5 -45.5q0 -62 -12 -80q-21 -32 -97 -32q-21 0 -30 19t-9 45q0 12 3 34t7.5 49t10.5 57t12 57l-49 -10.5t-37 -7.5
q-95 -19 -134 -19q-23 0 -46 8.5t-23 31.5q0 66 181 106q35 8 70 13.5t70 9.5q0 68 25 124q32 74 89 74q17 0 24 -10.5t7 -29.5q0 -3 -2 -19.5t-5 -37t-5 -40.5t-2 -29q37 0 64 0.5t48.5 1.5t39.5 1.5t38 0.5q31 0 56.5 -14.5t25.5 -41.5zM734 -84q-47 0 -105 -3t-117.5 -6
t-117 -6t-103.5 -3q-5 0 -23 -1t-40 -2.5t-45 -2.5t-39 -1q-53 0 -53 21q0 12 5.5 29.5t15 33.5t21.5 27.5t25 11.5q30 0 91 3q83 4 135.5 6t75.5 2q12 0 53.5 1.5t88.5 3.5t88.5 3.5t53.5 1.5q34 0 41.5 -6.5t7.5 -28.5q0 -12 -6 -26.5t-15 -27.5t-19 -21.5t-19 -8.5z" />
    <glyph glyph-name="afii10055" unicode="&#xb2;" horiz-adv-x="335" 
d="M307 592q0 -51 -20 -128q-37 -144 -39 -147q-21 -101 -21 -199q0 -21 -12 -39t-28.5 -30.5t-34 -19.5t-29.5 -7q-23 0 -40 12.5t-17 36.5q6 31 10.5 57t8.5 45q23 117 44.5 205t45.5 173q15 55 39 82t46 27q25 0 36 -21t11 -47z" />
    <glyph glyph-name="afii10103" unicode="&#xb3;" horiz-adv-x="263" 
d="M326 679q0 -7 -8 -22t-19.5 -29.5t-23.5 -25.5t-21 -11t-24.5 10t-31.5 24t-27.5 28t-11.5 23t9 24t21.5 29.5t26 25.5t22.5 11q14 0 29 -8t28.5 -20.5t22 -28t8.5 -30.5zM236 441q0 -31 -33 -123q-5 -12 -19.5 -43t-14.5 -57q0 -9 2.5 -20t6 -22.5t6 -20.5t2.5 -13
q0 -18 -15 -52q-39 -88 -101 -88q-32 0 -41.5 26t-9.5 62q0 21 10 63t24 88.5t30.5 90.5t28.5 70q46 99 86 99q19 0 28.5 -17t9.5 -43z" />
    <glyph glyph-name="afii10098" unicode="&#xb4;" horiz-adv-x="453" 
d="M555 495q-23 -67 -69.5 -98t-116.5 -31q-46 0 -82 7.5t-62 13.5q-21 -76 -31.5 -141t-19 -113.5t-17.5 -79.5t-27 -39q-18 -9 -62 -9q-28 0 -42.5 22.5t-14.5 50.5q30 88 54.5 160.5t24.5 124.5q0 10 -2 26t-2 24q0 7 1 15t3 13q10 33 30 59t41 26q41 -15 86.5 -27.5
t79.5 -12.5q53 0 90 18q20 9 28 35t8 52q0 -2 -5.5 7.5t-12.5 22t-12.5 25.5t-5.5 18q0 7 10.5 21.5t24 29.5t27.5 26.5t21 11.5q32 0 55 -35.5t23 -85.5q0 -41 -4.5 -69t-18.5 -68z" />
    <glyph glyph-name="paragraph" unicode="&#xb6;" horiz-adv-x="752" 
d="M282 125q-8 -43 -8 -72q0 -9 1 -26.5t1 -26.5q3 -12 -0.5 -30t-13 -35t-25.5 -29t-37 -12q-28 0 -53.5 24.5t-25.5 56.5q0 12 6.5 39t17 64.5t25 83.5t29.5 95q24 75 34 112.5t17 62t16.5 50.5t31.5 78q4 0 -17 -5t-49.5 -11.5t-56.5 -12t-38 -5.5q-23 0 -41.5 12
t-18.5 35q0 60 55 73q-1 0 19.5 3.5t53 10t72 14.5t76.5 15t66 12.5t41 7.5q73 12 123 20t77 12q116 18 130 18q50 0 78.5 -22.5t28.5 -69.5q0 -17 -8.5 -33.5t-22 -30t-29.5 -22t-31 -8.5q-6 0 -13.5 6.5t-16.5 13.5t-18.5 13.5t-19.5 6.5h-75q-44 -154 -75 -267t-46 -175
q-5 -22 -6.5 -43t-1.5 -32t1 -37t-4.5 -52.5t-21 -47t-49.5 -20.5q-29 0 -54.5 25.5t-25.5 56.5q0 24 24 105l28 88l28 88q19 58 32.5 104t23.5 78l37 117q-5 -1 -27 -5t-46.5 -8t-46.5 -7.5t-27 -4.5q-4 -20 -13 -51.5t-20 -71t-24 -83.5t-25 -87q-31 -110 -42 -158z" />
    <glyph glyph-name="periodcentered" unicode="&#xb7;" horiz-adv-x="502" 
d="M358 326q1 -9 -7.5 -29t-22 -41t-28.5 -36.5t-26 -15.5q-17 0 -34.5 5t-32 13t-23.5 18.5t-9 22.5q0 8 10 26.5t23.5 38t28 34.5t23.5 17q11 2 27.5 -2.5t32.5 -13t27 -18.5t11 -19z" />
    <glyph glyph-name="afii10071" unicode="&#xb8;" horiz-adv-x="411" 
d="M417 438q0 -45 -6 -66q-5 -18 -17 -40.5t-29 -45t-37.5 -42.5t-42.5 -32q-29 -17 -59.5 -33.5t-59.5 -32.5q2 -12 5.5 -18.5t11.5 -6.5q43 0 113 19t140 40q24 0 24 -34q0 -19 -21.5 -37.5t-55 -35t-73.5 -31t-77 -25t-66.5 -16.5t-41.5 -6q-23 0 -42 14.5t-32.5 36
t-21 47.5t-7.5 49q0 56 25 122.5t67 124t97.5 96t116.5 38.5q40 0 64.5 -23.5t24.5 -61.5zM289 407q-28 0 -53.5 -28t-47.5 -73q-7 -14 -14.5 -32t-16.5 -41q17 8 34 20t35 26q13 10 23.5 20t20.5 20q22 23 30.5 33t8.5 32q-4 9 -9 16t-11 7zM461 687q0 -37 -16.5 -58.5
t-53.5 -21.5q-64 0 -64 54q0 4 6 19t15.5 31t21.5 28.5t23 12.5q24 0 46 -22t22 -43zM259 689q0 -31 -22 -54t-53 -23q-33 0 -49 13.5t-16 31.5q2 3 12.5 23t27 43.5t28.5 23.5q26 0 51 -23q21 -20 21 -35z" />
    <glyph glyph-name="afii61352" unicode="&#xb9;" horiz-adv-x="1076" 
d="M1057 592q0 -90 -62 -203q-77 -140 -185 -140q-40 0 -71 37.5t-31 96.5q0 84 65 188q78 123 181 123q18 0 36 -9.5t33 -24.5t24.5 -33t9.5 -35zM948 144q0 -19 -10.5 -30t-28.5 -17t-41 -7.5t-47 -1.5q-68 0 -102 8q-63 16 -63 62q0 29 27 40.5t69 11.5q21 0 39 -1.5
t35 -1.5q23 0 45 -2.5t39 -9t27.5 -19t10.5 -32.5zM703 698v-117q0 -32 -25 -58q-23 -24 -38.5 -34.5t-29.5 -23.5t-29 -36t-38 -72q-47 -101 -71 -153.5t-26 -54.5q-58 -109 -97 -109q-22 0 -33 18t-15.5 47.5t-5 68.5t-0.5 81q0 75 -5.5 107t-16.5 50q-55 -173 -96 -280
q-43 -112 -94 -112q-9 0 -18.5 5.5t-17.5 14t-13.5 18.5t-5.5 19q0 11 8 44.5t19.5 77.5t25 92t25 88t19.5 65.5l8 25.5q7 43 11.5 72.5t8.5 45.5q12 54 47 54q26 0 53 -21q4 6 10 15.5t12.5 18.5t13 15.5t11.5 6.5q27 0 51.5 -28.5t39.5 -85.5q11 -43 21 -86.5t21 -86.5
q6 6 19 30.5t29 58t32.5 71t29.5 68t21 49t6 14.5q42 87 68 87q28 0 48 -26q17 -23 17 -44zM921 473q0 9 -8 15t-20 9q-16 4 -29.5 -10.5t-20 -33.5t-2 -35.5t24.5 -16.5q16 0 33.5 25t21.5 47z" />
    <glyph glyph-name="afii10101" unicode="&#xba;" horiz-adv-x="419" 
d="M176 220q-13 -33 -13 -67q0 -23 10 -30t35 -7q32 0 90 30q16 9 44 26t55 28t47 9t20 -31q0 -41 -101 -109q-119 -80 -245 -80q-51 0 -74 33.5t-23 88.5q0 19 6 44.5t15.5 51.5t21 51t23.5 42q30 43 61.5 78.5t65.5 64.5q82 69 149 69q29 0 52 -15.5t23 -42.5
q0 -34 -26 -42q-58 -5 -99 -26.5t-83 -73.5q16 0 26.5 2.5t28.5 2.5q45 0 71 9q6 2 11 5q30 0 47.5 -10t17.5 -32q0 -26 -18 -41.5t-47.5 -24t-65.5 -11t-72 -2.5h-27q-13 0 -16 2.5t-10 7.5z" />
    <glyph glyph-name="guillemotright" unicode="&#xbb;" horiz-adv-x="736" 
d="M345 83q0 29 45.5 62.5t110.5 79.5l-48 72q-51 79 -51 108q0 17 7.5 35t20 33t28 25t31.5 10q20 0 49 -35t56 -80t46.5 -87.5t19.5 -58.5q0 -17 -23 -42t-56 -52t-70.5 -52t-67.5 -42q-41 -24 -70 -24q-14 0 -21 13.5t-7 34.5zM102 76q0 18 33 49q12 12 122 93
q-30 46 -49 77t-27 45q-22 40 -22 58t7.5 36t19.5 33t28 24.5t32 9.5q20 0 49 -35t56 -80t46.5 -87.5t19.5 -58.5q0 -17 -23 -42t-56 -51.5t-71 -51.5t-68 -43q-41 -24 -69 -24q-14 0 -21 13.5t-7 34.5z" />
    <glyph glyph-name="afii10105" unicode="&#xbc;" horiz-adv-x="385" 
d="M337 442q0 1 -4.5 -20.5t-12 -55t-16 -73.5t-16 -78t-14 -68t-8.5 -42q-10 -46 -18.5 -91t-18.5 -90q-11 -50 -26 -88t-30 -62q-39 -62 -99 -62q-26 0 -54.5 12.5t-56.5 31t-52.5 40t-42.5 39.5q-28 28 -28 46q0 37 23 64t49 27q13 0 27 -13t27 -30t25 -34.5t20 -25.5
q13 -15 20 -22.5t36 -7.5q14 0 25 21t20 55t16.5 78.5t15.5 90.5q6 39 13 80t13.5 81t14 76.5t15.5 64.5q12 43 47 75q30 27 53 27q20 0 28.5 -9.5t8.5 -36.5zM363 655q0 -9 -8 -24t-19.5 -29t-24 -24.5t-21.5 -10.5q-8 0 -24 10.5t-32 24.5t-27.5 28.5t-11.5 22.5t9.5 23
t22 30t26 26t21.5 11q14 0 29.5 -8t28.5 -21t22 -28.5t9 -30.5z" />
    <glyph glyph-name="afii10054" unicode="&#xbd;" horiz-adv-x="500" 
d="M535 569q0 -29 -12.5 -51t-31.5 -22q-3 0 -15.5 8t-29 18t-33.5 18t-29 8q-37 0 -63 -14.5t-26 -46.5q0 -7 11.5 -28.5t29 -48.5t37 -55.5t35.5 -51t24.5 -34.5t4.5 -6q50 -80 50 -118q0 -62 -32.5 -100t-73.5 -38q-47 0 -92.5 11.5t-91.5 32.5q-34 15 -64 35.5t-52 41.5
t-35 42t-13 38q0 31 14.5 59t32.5 28q34 0 44 -3q22 -7 22 -32q2 -16 21 -39t45.5 -43t53 -34.5t43.5 -14.5q49 0 49 37q0 8 -20 40t-44.5 67.5t-45.5 64.5t-23 32q-47 80 -47 124q0 33 16.5 65t44.5 57t64 40.5t75 15.5t94 -30q63 -34 63 -73z" />
    <glyph glyph-name="afii10102" unicode="&#xbe;" horiz-adv-x="409" 
d="M332 358q-10 0 -20 10t-10 19q0 5 3 13t3 12q0 10 -11 10q-18 0 -34.5 -21t-16.5 -48q0 -15 9 -29l18 -28l10.5 -18.5t23 -42t23 -45.5t10.5 -30q0 -45 -67 -111q-85 -84 -202 -84q-49 0 -68 6q-33 11 -33 42q0 22 15 37t38 24.5t50.5 13.5t51.5 4q28 0 48.5 13.5
t20.5 27.5q1 5 -9.5 30t-23 54t-23 54.5t-10.5 32.5q0 77 94 170q100 99 200 99q18 0 39 -17t21 -37q0 -12 -16 -39.5t-39.5 -55t-49 -48t-45.5 -18.5z" />
    <glyph glyph-name="afii10104" unicode="&#xbf;" horiz-adv-x="263" 
d="M211 674q0 -8 -8 -22.5t-19 -29t-23.5 -25.5t-21.5 -11t-24.5 10t-31.5 24t-27.5 28t-11.5 23t9 24t21.5 29.5t26 25.5t22.5 11q13 0 28.5 -8t29 -20.5t22 -28t8.5 -30.5zM236 441q0 -31 -33 -123q-5 -12 -19.5 -43t-14.5 -57q0 -9 2.5 -20t6 -22.5t6 -20.5t2.5 -13
q0 -18 -15 -52q-39 -88 -101 -88q-32 0 -41.5 26t-9.5 62q0 21 10 63t24 88.5t30.5 90.5t28.5 70q46 99 86 99q19 0 28.5 -17t9.5 -43zM416 679q0 -7 -8 -22t-19.5 -29.5t-23.5 -25.5t-21 -11t-24.5 10t-31.5 24t-27.5 28t-11.5 23t9 24t21.5 29.5t26 25.5t22.5 11
q14 0 29 -8t28.5 -20.5t22 -28t8.5 -30.5z" />
    <glyph glyph-name="afii10017" unicode="&#xc0;" horiz-adv-x="555" 
d="M624 353q0 -23 -12 -43t-36 -27q-29 -9 -49 -13.5t-30 -8.5l-1 -61q0 -6 5.5 -15.5t12.5 -20.5t12.5 -22.5t5.5 -23.5q0 -26 -15 -63q-41 -99 -118 -99q-36 0 -46.5 22.5t-10.5 61.5q0 11 3 32.5t7 49t7 58t3 58.5q-50 -20 -79.5 -33t-48.5 -24q-36 -22 -55 -40t-39 -54
q-42 -75 -45 -80q-25 -34 -60 -34q-8 5 -14 9.5l-10 7.5q-17 14 -19 29.5t3.5 31t15.5 31t16 27.5q26 51 64.5 118t87.5 150q130 215 180 275q37 45 70 45t50.5 -21t17.5 -87l-1 -202q14 2 27.5 3.5t26.5 1.5q35 0 55.5 -9t18.5 -30zM360 490l-93 -162q4 2 20.5 6t34.5 9
t31.5 8t10.5 1q0 8 0.5 19.5t0.5 23t0.5 20.5t0.5 12q0 22 -1 37t-5 26z" />
    <glyph glyph-name="afii10018" unicode="&#xc1;" horiz-adv-x="552" 
d="M447 236q0 62 -18 85t-66 23q-69 0 -125 -47q-4 -26 -7.5 -44t-7.5 -32t-9 -27.5t-13 -29.5q-6 -14 -9.5 -21.5t-8 -12t-10.5 -8.5t-17 -10q26 -14 49.5 -18.5t71.5 -4.5q82 0 130 51q40 43 40 96zM435 449q26 0 49.5 -11.5t41.5 -31.5t29 -48t11 -61q0 -69 -28 -130
t-75.5 -106.5t-109.5 -71.5t-131 -26q-41 0 -79.5 9.5t-68.5 25t-48 37t-18 45.5q0 14 16.5 28.5t32.5 14.5q-5 10 -5 24q0 16 7 38t17 46t21.5 47.5t20.5 42.5q13 30 25.5 60t24.5 61l39 99q-9 3 -22 7t-25 9.5t-20.5 13t-8.5 18.5q0 23 15 42.5t40.5 33t58.5 21t69 7.5
q10 0 47 3t79 6t79 6t47 3q33 0 54 -3t33 -11t16.5 -22.5t4.5 -38.5q0 -16 -12.5 -32.5t-31.5 -30t-40 -22t-38 -8.5t-27.5 5t-18.5 11.5t-16.5 11.5t-21.5 5q-12 0 -35.5 -2t-46.5 -5t-39.5 -5t-14.5 -2q-5 -17 -11.5 -35.5t-13.5 -38.5q-17 -49 -30 -76q27 15 72 26t86 11
z" />
    <glyph glyph-name="afii10019" unicode="&#xc2;" horiz-adv-x="572" 
d="M594 603q0 -34 -8 -68t-28 -60q-21 -29 -36.5 -47.5t-23.5 -28.5q45 -19 62.5 -46t17.5 -79q0 -135 -108 -225q-104 -86 -248 -86q-41 0 -79.5 9.5t-68.5 25t-48 37t-18 45.5q0 14 16.5 28.5t32.5 14.5q-5 10 -5 24q0 16 7 38t17 46t21.5 47.5t20.5 42.5q13 30 25.5 60
t24.5 61l39 99q-9 3 -22 7t-25 9.5t-20.5 13t-8.5 18.5q0 27 19.5 48.5t50 36t67 22t70.5 7.5q101 0 146 -9q110 -23 110 -91zM449 543q2 11 -12 17t-36 6q-17 0 -28.5 -2t-36.5 -7l-54 -129q50 13 76.5 20t28.5 8q51 24 62 87zM452 197q1 6 1 13v10q0 45 -26.5 65.5
t-75.5 28.5q-17 2 -40 3t-51 1h-15q-15 -91 -44 -154q-6 -14 -9.5 -21.5t-8 -12t-10.5 -8.5t-17 -10q26 -14 49.5 -18.5t71.5 -4.5q80 0 130 38q39 32 45 70z" />
    <glyph glyph-name="afii10020" unicode="&#xc3;" horiz-adv-x="399" 
d="M13 63q0 48 19 117q2 5 11 34t21.5 66.5t25 74.5t21.5 59q13 32 27 63.5t28 63.5q-9 3 -22 7t-25 9.5t-20.5 13t-8.5 18.5q0 23 15 42.5t40.5 33t58.5 21t69 7.5q12 0 41.5 2.5t63 5.5t63.5 5.5t42 2.5q33 0 54 -3t33 -11t16.5 -22.5t4.5 -38.5q0 -16 -12.5 -32.5
t-31.5 -30t-40 -22t-38 -8.5t-27 5t-18.5 11t-17 11t-21.5 5q-34 0 -60.5 -6t-42.5 -10q-13 -31 -23 -59t-18 -53q-11 -33 -21 -68.5t-18.5 -69.5t-15 -64.5t-10.5 -52.5q-11 -64 -11 -106q0 -40 -22 -66.5t-62 -26.5q-24 0 -46 22t-22 50z" />
    <glyph glyph-name="afii10021" unicode="&#xc4;" horiz-adv-x="642" 
d="M412 294q4 47 7.5 79.5t5.5 58t4.5 47t5.5 46.5q-11 -17 -24.5 -38.5t-26.5 -42.5t-24 -38.5t-16 -26.5q-12 -20 -34.5 -63.5t-44.5 -88t-38.5 -77t-15.5 -31.5q6 0 34 1t60 2t59.5 2t33.5 1q2 21 4.5 64t9.5 105zM615 51q0 -7 -8.5 -31.5t-19.5 -54t-23 -57t-18 -41.5
q-17 -41 -31 -58t-34 -17q-55 0 -55 42q0 9 3.5 26t9.5 39t13 46l14 48h-386q-7 -13 -15 -30t-18 -40q-11 -26 -17 -40.5t-7 -15.5q-5 -13 -9.5 -26.5t-11 -24t-17.5 -17.5t-29 -7q-28 0 -36.5 11t-8.5 40q0 18 17 73.5t46 134.5q15 41 44.5 60.5t60.5 19.5q18 0 39 40
t47 89q17 32 40 74t51 94q35 64 54.5 100t24.5 44q44 78 79 116q44 48 80 48q40 0 54 -19.5t14 -57.5v-20q0 -23 -2.5 -54t-5.5 -61t-5.5 -53t-2.5 -30q0 -46 -5 -94.5t-11 -103.5v-113q32 -4 58.5 -24t26.5 -55z" />
    <glyph glyph-name="afii10022" unicode="&#xc5;" horiz-adv-x="482" 
d="M647 658q0 -29 -13.5 -46t-36.5 -26t-54 -12t-66 -3q-52 0 -116 -9l-38 -6l-38 -6q-11 -38 -22.5 -76t-22.5 -76q5 0 35 3.5t65.5 8t65.5 8t35 3.5q27 0 44 -3.5t17 -29.5q0 -67 -151 -98q-23 -5 -58.5 -10t-84.5 -10l-49 -142q5 2 41 8t78 13.5t78 13t42 5.5q52 0 69 -9
q24 -13 24 -54q0 -80 -72 -80q-26 0 -39 5q-30 0 -67 -5t-78.5 -12t-85 -16.5t-85.5 -18.5q-23 0 -39.5 16.5t-16.5 34.5q2 14 60 209q18 62 27.5 99.5t18.5 67.5t21.5 59t37.5 74q-23 0 -39 10t-11 31q4 21 35 40.5t83 33.5t121 22.5t150 8.5h77q58 -1 58 -26z" />
    <glyph glyph-name="afii10024" unicode="&#xc6;" horiz-adv-x="870" 
d="M357 308q-57 -71 -103.5 -126t-81.5 -93q-75 -81 -108 -81q-43 0 -61.5 16.5t-18.5 57.5q0 36 13 56.5t34 34.5t46.5 26.5t49.5 33.5q37 31 80 76t81 84q-21 35 -32.5 53.5t-13.5 21.5q-19 27 -39 40.5t-36.5 26.5t-27 31t-10.5 54q0 29 23 51t55 22q24 0 55 -33
t62.5 -79t60 -94.5t48.5 -79.5q25 88 38.5 133t14.5 48q40 127 94 127q17 0 32 -17t15 -35q0 -30 -28 -123q-11 -35 -21 -69.5t-21 -69.5q59 59 101 100.5t68 64.5q122 108 169 108q63 0 63 -63q0 -42 -23 -66t-76 -40q-18 -5 -44 -21t-53.5 -37t-55 -44t-48.5 -43
q37 -65 75 -116q58 -79 90 -94q22 -10 29 -27t7 -45q0 -40 -33 -59t-74 -19q-18 2 -37.5 20t-40 45.5t-40 60t-36.5 62.5l-54 96q-6 -5 -13 -8.5t-12 -5.5q-8 -18 -16 -45.5t-14.5 -57t-10.5 -56t-4 -43.5q-7 -32 -36 -50.5t-65 -18.5q-27 0 -46.5 20.5t-19.5 49.5
q0 5 10.5 32t24 62t27 69t19.5 52q-10 7 -16.5 12t-14.5 12z" />
    <glyph glyph-name="afii10025" unicode="&#xc7;" horiz-adv-x="480" 
d="M519 249q0 -102 -98 -179q-91 -71 -185 -71q-112 0 -180 51q-51 39 -51 73q0 38 16.5 60.5t45.5 22.5q22 0 41.5 -13t41 -28.5t45.5 -28.5t55 -13q26 0 50 10.5t43 27.5t30.5 40t11.5 48q0 74 -69 74q-2 0 -11.5 -1.5t-20.5 -4t-21.5 -4t-15.5 -1.5q-42 0 -42 61
q0 15 16.5 35t39.5 26q21 6 45.5 16t44.5 23.5t33.5 29.5t13.5 35q0 28 -15 37t-44 9q-40 0 -98 -43q-29 -20 -51 -20q-20 0 -29 17.5t-9 45.5q0 32 42 65q62 48 172 48q74 0 116 -42q37 -37 37 -88q0 -76 -37 -117q-20 -22 -75 -51q47 -13 79.5 -57t32.5 -93z" />
    <glyph glyph-name="afii10026" unicode="&#xc8;" horiz-adv-x="598" 
d="M501 409q-6 -6 -27.5 -29t-50.5 -55.5t-62.5 -69.5t-65.5 -71.5t-57.5 -62t-39.5 -40.5q-92 -90 -125 -90q-28 0 -49.5 18.5t-21.5 43.5q0 18 29 100q13 35 25.5 71t25.5 71q2 5 14.5 48.5t29 97t32.5 103t25 67.5q31 64 70 64q14 0 30.5 -15.5t16.5 -34.5
q0 -30 -50 -188q-7 -23 -20 -63t-33 -96l-26 -72q28 29 55.5 59t55.5 60q23 25 62 66.5t80 86.5t77 86.5t54 67.5q14 22 26.5 28t30.5 6h17q25 0 34 -20.5t9 -48.5q0 -26 -12 -68.5t-28 -88t-32.5 -89t-25.5 -70.5q-35 -105 -35 -121q0 -9 10 -30t10 -33q0 -46 -37.5 -69
t-87.5 -23q-26 0 -44 16t-18 39q0 28 41 137q17 46 39.5 99t48.5 113z" />
    <glyph glyph-name="afii10027" unicode="&#xc9;" horiz-adv-x="653" 
d="M501 409q-6 -6 -27.5 -29t-50.5 -55.5t-62.5 -69.5t-65.5 -71.5t-57.5 -62t-39.5 -40.5q-92 -90 -125 -90q-28 0 -49.5 18.5t-21.5 43.5q0 18 29 100q13 35 25.5 71t25.5 71q2 5 14.5 48.5t29 97t32.5 103t25 67.5q31 64 70 64q14 0 30.5 -15.5t16.5 -34.5
q0 -30 -50 -188q-7 -23 -20 -63t-33 -96l-26 -72q28 29 55.5 59t55.5 60q23 25 62 66.5t80 86.5t77 86.5t54 67.5q14 22 26.5 28t30.5 6h17q25 0 34 -20.5t9 -48.5q0 -26 -12 -68.5t-28 -88t-32.5 -89t-25.5 -70.5q-35 -105 -35 -121q0 -9 10 -30t10 -33q0 -46 -37.5 -69
t-87.5 -23q-26 0 -44 16t-18 39q0 28 41 137q17 46 39.5 99t48.5 113zM703 826q0 -29 -29.5 -55t-69.5 -45.5t-81 -30.5t-64 -11q-70 0 -107 48q-31 40 -31 94q0 25 15 40t50 15q44 0 60 -20.5t28 -46.5q9 -16 27 -16q88 0 160 49q11 7 20 7q22 0 22 -28z" />
    <glyph glyph-name="afii10028" unicode="&#xca;" horiz-adv-x="620" 
d="M730 596q0 -40 -25.5 -62.5t-69.5 -28.5q-15 -1 -45.5 -16t-65 -35.5t-67.5 -41.5t-53 -36q20 -28 40.5 -55.5t41.5 -53.5q32 -41 57 -65.5t38 -31.5q23 -10 30 -26.5t7 -45.5q0 -34 -28.5 -56.5t-67.5 -22.5q-14 3 -27 9.5t-29 21.5t-35 39t-43 61q-4 5 -28.5 47
t-70.5 119q-17 -11 -26 -16t-34 -15q-19 -35 -30 -56.5t-24 -49.5q-6 -15 -6 -32q0 -8 3.5 -31t-0.5 -35q-6 -32 -36 -50.5t-65 -18.5q-27 0 -46.5 19t-19.5 51q0 16 22 72q36 94 57 150.5t28 76.5q52 170 95 242q37 64 80 64q16 0 30 -15t14 -33q0 -27 -26 -102
q-11 -29 -21 -58.5t-20 -58.5q1 0 19.5 12t46.5 31t61 41l63 42l52.5 35t29.5 20q97 58 131 58q63 0 63 -63z" />
    <glyph glyph-name="afii10029" unicode="&#xcb;" horiz-adv-x="550" 
d="M137 29q-33 -35 -64 -45q-18 -7 -53 -7q-26 0 -38.5 30.5t-12.5 69.5q0 23 21.5 31t43.5 15q25 9 49 31.5t47 54t44 68.5t40 75q30 61 59.5 121.5t61.5 120.5q34 62 66.5 92.5t58.5 30.5q40 0 54.5 -19.5t14.5 -59.5v-17q0 -22 -2.5 -54t-6 -63.5t-6 -58t-2.5 -37.5
q0 -51 -3.5 -108.5t-5.5 -101.5q0 -7 7.5 -20.5t16.5 -28.5t16.5 -30.5t7.5 -27.5q0 -48 -34 -81t-87 -33q-36 0 -46.5 22.5t-10.5 61.5v38.5t0.5 40.5t2.5 50.5t6 68.5q1 6 5.5 55.5t13.5 142.5q7 77 9 90q-4 -7 -20 -39t-43 -88q-35 -74 -48 -102q-112 -237 -162 -289z
" />
    <glyph glyph-name="afii10030" unicode="&#xcc;" horiz-adv-x="861" 
d="M236 353q14 33 29.5 91t37 114.5t50.5 98t69 41.5q50 0 62 -31t12 -87q0 -15 -1.5 -45t-3.5 -68.5t-4 -82.5l-4 -88q0 -5 1 -4.5t4 0.5t18 19.5t36.5 49.5t46 66t47 68t38.5 55.5t21 29.5q78 102 106 102q41 0 54.5 -30.5t13.5 -71.5q0 -34 -11 -85.5t-24 -105.5
t-24 -104.5t-11 -84.5q0 -20 4.5 -28.5t9.5 -14.5t9.5 -15.5t4.5 -32.5q0 -42 -24.5 -73t-67.5 -31t-58.5 36.5t-15.5 84.5q0 19 7 58t16 83.5t18 86.5t13 67q-20 -29 -40 -59t-40 -59q-36 -53 -65 -93t-51 -67q-66 -81 -91 -81q-39 0 -51.5 28t-12.5 71v65.5t0.5 70t1.5 65
t4 50.5q-26 -60 -49 -109.5t-42 -89.5q-25 -51 -42.5 -89t-36.5 -65t-42 -45t-59 -30q-27 -9 -67 -9q-26 0 -38.5 30.5t-12.5 69.5q0 11 8.5 19t21 13.5t27.5 9.5t28 8q26 8 50.5 31.5t46.5 55.5t40.5 69t32.5 72z" />
    <glyph glyph-name="afii10031" unicode="&#xcd;" horiz-adv-x="577" 
d="M636 600q0 -29 -12.5 -72t-30 -89t-36 -89t-29.5 -73q-38 -102 -38 -123q0 -8 10 -25t10 -30q0 -48 -36 -70t-89 -22q-26 0 -44 16t-18 39q0 9 10.5 40t25 67t28 70.5t19.5 51.5q-18 -2 -48 -6.5t-59 -8.5t-51.5 -8t-26.5 -4q-8 -20 -13.5 -34t-9.5 -22q-11 -26 -20 -37
q18 -28 19 -32q7 -15 7 -37q0 -20 -11 -40t-28.5 -36t-38.5 -25.5t-42 -9.5q-27 0 -48.5 18.5t-21.5 43.5q0 6 11.5 35.5t26 65.5t28.5 69.5t19 45.5q1 10 -9 26.5t-10 26.5q0 21 6 29q1 1 11.5 8t30.5 21q51 130 77 184q52 109 85 109q15 0 31 -16t16 -35q0 -14 -10 -45
t-24 -67t-28.5 -69.5t-22.5 -52.5q42 4 106 12q5 1 26.5 4t58.5 8q10 20 26.5 62t28.5 78q15 43 27 69t24.5 39.5t26.5 17.5t32 4q17 0 24.5 -13t7.5 -29q0 -10 -2 -24t-2 -16z" />
    <glyph glyph-name="afii10032" unicode="&#xce;" horiz-adv-x="498" 
d="M587 555q0 -172 -79 -311q-34 -61 -78.5 -109t-99.5 -85q-99 -66 -186 -66q-24 0 -45.5 11.5t-37.5 30.5t-25 44.5t-9 54.5q0 114 9 167q15 90 68 184q68 118 144 168q52 34 116 34q17 0 30.5 -1.5t30.5 -3.5q7 26 12.5 33t26.5 7q16 0 37.5 -19.5t40.5 -45.5t32 -52.5
t13 -40.5zM454 473q0 33 -28.5 52.5t-81.5 19.5q-97 0 -157 -156q-44 -115 -44 -192q0 -34 18 -57t45 -23q104 0 181 126q67 110 67 230z" />
    <glyph glyph-name="afii10033" unicode="&#xcf;" horiz-adv-x="530" 
d="M467 571q-1 0 -22.5 -2t-46.5 -4t-46.5 -4t-22.5 -2q-22 -52 -43.5 -114.5t-40.5 -119.5q-11 -31 -22.5 -60.5t-22.5 -58.5q-8 -19 -19.5 -46.5t-27.5 -65.5q-18 -44 -34.5 -69t-47.5 -25q-56 0 -56 63q0 6 8 29t20.5 54.5t27 67.5t28 68.5t23.5 57t13 32.5l63 176
q-28 -3 -45.5 11.5t-17.5 44.5q0 22 18.5 42.5t44.5 25.5q24 5 61 9t80.5 7t89 5t87.5 2q75 0 99.5 -15t24.5 -44q0 -25 -14.5 -38t-41.5 -18q-14 -40 -27 -79t-27 -79q-16 -48 -30 -91.5t-26 -82.5q-27 -88 -27 -107q0 -8 10 -26t10 -30q0 -47 -36.5 -69.5t-88.5 -22.5
q-26 0 -44 16t-18 39q0 14 17.5 69t53.5 149l58 152t58 153z" />
    <glyph glyph-name="afii10034" unicode="&#xd0;" horiz-adv-x="461" 
d="M556 548q0 -76 -67 -150q-37 -41 -86.5 -73t-112.5 -58q-28 -12 -55 -24.5t-54 -24.5l-25 -169q-4 -25 -26 -43.5t-62 -18.5q-22 0 -39 19t-17 45q6 22 13 47t14 53q11 39 18 67.5t11 45.5q9 35 21.5 77.5t28.5 89.5t33 97t35 99q5 13 31.5 27.5t59.5 27t65.5 20.5
t48.5 8q48 0 102 -45q63 -53 63 -117zM415 515q0 33 -15.5 48.5t-55.5 15.5q-52 0 -80 -55q-10 -19 -19.5 -43t-18.5 -49t-15.5 -49.5t-10.5 -43.5q27 10 52.5 21.5t48.5 26.5q47 31 75 60q39 39 39 68z" />
    <glyph glyph-name="afii10035" unicode="&#xd1;" horiz-adv-x="472" 
d="M553 607q0 -16 -7.5 -32t-19.5 -28.5t-26.5 -20t-28.5 -7.5q-3 0 -11 5t-18.5 10.5t-22 10.5t-20.5 5q-85 0 -146 -100q-80 -130 -80 -230q1 -10 2.5 -17t2.5 -12q9 -30 23 -30q1 0 21 7t49 18t63.5 23t63.5 23t49 18t21 7q21 0 30.5 -13.5t9.5 -53.5q0 -23 -27.5 -46.5
t-68.5 -45.5t-88 -41t-86 -33q-94 -33 -115 -33q-41 0 -68 48.5t-27 118.5q0 73 46 190q54 140 132 225q97 109 212 109q8 0 30 -7.5t45 -18.5t41.5 -24t18.5 -25z" />
    <glyph glyph-name="afii10036" unicode="&#xd2;" horiz-adv-x="468" 
d="M608 620q0 -17 -8.5 -33.5t-22 -30t-29.5 -22t-31 -8.5q-6 0 -13.5 6t-16.5 14t-18.5 14t-19.5 6h-75q-33 -116 -56 -199.5t-37 -144.5q-5 -21 -6.5 -42.5t-1.5 -31.5q0 -11 1 -37t-4.5 -52.5t-21.5 -47t-49 -20.5q-29 0 -54.5 24.5t-25.5 57.5q0 12 8 43.5t19.5 71
t25.5 83t26 80t20 61t9 26.5l37 117q-12 -4 -40 -9.5t-58.5 -11t-58.5 -9t-41 -3.5q-23 0 -41.5 12t-18.5 35q0 25 9.5 39.5t23 23t29 12t28.5 5.5q38 6 62 10t50.5 8.5t63 10.5t99.5 16q59 10 92 14.5t38 4.5q51 0 79 -22.5t28 -70.5z" />
    <glyph glyph-name="afii10037" unicode="&#xd3;" 
d="M242 243q-4 7 -16.5 31t-32.5 67q-19 37 -34.5 68t-29.5 50q-15 19 -27.5 32t-21.5 25t-14 27t-5 37q0 39 22 64t60 25q25 0 56.5 -37.5t63.5 -111.5q20 -47 33.5 -79.5t20.5 -49.5q18 42 35.5 84.5t36.5 84.5q30 67 58.5 100t47.5 33q22 0 41.5 -15t19.5 -32
q0 -21 -25 -80q-10 -24 -26 -59t-35 -75.5t-39.5 -83.5t-40.5 -84q-32 -67 -55 -110t-35 -62q-29 -45 -58 -72q-34 -33 -71 -45q-27 -9 -67 -9q-12 0 -23.5 11t-20.5 28t-14 37.5t-5 38.5q0 12 9.5 20t24 14t31.5 10.5t31 9.5q24 7 39.5 19.5t27 27t20.5 30.5t18 31z" />
    <glyph glyph-name="afii10038" unicode="&#xd4;" horiz-adv-x="690" 
d="M652 379q0 75 -36 103t-106 28q-3 -15 -11.5 -44.5t-17.5 -58t-15.5 -48.5t-6.5 -15q-9 -33 -14.5 -53t-7.5 -27q-5 -17 -11 -36.5t-13 -40.5q85 0 164 70q75 66 75 122zM255 473q-20 -12 -38.5 -32t-33 -44t-23.5 -50t-9 -50q0 -20 15 -37.5t36.5 -30.5t45.5 -20.5
t43 -7.5q9 32 21 72.5t24.5 82.5t25 82t23.5 70q-51 -8 -77.5 -14t-52.5 -21zM16 283q0 30 7.5 61.5t21 61t30.5 55t37 42.5q50 45 136 80q94 39 173 39q8 21 13.5 49t14 53t21 42.5t35.5 17.5q34 0 50.5 -15t16.5 -34q0 -20 -7.5 -49t-20.5 -64q88 -9 154 -32
q48 -18 68 -56t20 -92q0 -135 -114 -242q-118 -111 -282 -111q-2 -7 -7.5 -26t-13.5 -50q-22 -88 -47 -88q-12 0 -28.5 3.5t-31.5 9.5t-25.5 14.5t-10.5 19.5q0 12 0.5 23t2 23.5t4.5 30t9 42.5q-94 14 -154 59q-72 54 -72 133z" />
    <glyph glyph-name="afii10039" unicode="&#xd5;" horiz-adv-x="538" 
d="M581 646q0 -3 -26 -37t-59 -77t-64.5 -83.5t-43.5 -57.5q23 -42 43.5 -81.5t36.5 -77.5q46 -104 46 -157q0 -41 -18.5 -62.5t-60.5 -21.5q-14 0 -27.5 9t-19.5 27q-8 27 -13.5 45.5t-11 34.5t-11.5 32t-16 38q-24 52 -47 83q-12 -17 -38 -52.5t-52.5 -71.5t-46.5 -62.5
l-20 -26.5q-8 -17 -14 -30.5t-14.5 -23t-23.5 -14.5t-41 -5q-30 0 -43.5 22.5t-11.5 45.5q0 12 27.5 51.5t66 88t79.5 97.5t69 81q-16 33 -54 93q-73 116 -73 132q1 13 9.5 28.5t20.5 28.5t25.5 21.5t26.5 6.5q11 0 30.5 -22.5t40.5 -52.5t39.5 -60.5t27.5 -47.5
q15 20 45 57t62.5 73t61.5 63t42 27q9 0 18.5 -6t17.5 -15.5t12.5 -20t2.5 -19.5z" />
    <glyph glyph-name="afii10040" unicode="&#xd6;" horiz-adv-x="654" 
d="M493 494q10 37 18 63t13 42q38 102 96 102q23 0 33 -16.5t10 -52.5q0 -28 -12.5 -72t-29.5 -91t-35 -92t-28 -75q-41 -119 -48 -166q49 -5 63 -20.5t14 -49.5q0 -7 -7.5 -43.5t-22 -77t-35 -73.5t-47.5 -33q-55 0 -63 42q0 2 3.5 18.5t9 37t10 39.5t5.5 26
q-37 0 -85.5 -0.5t-108.5 -1.5q-43 0 -75.5 -1.5t-62.5 -1.5q-48 0 -67.5 10t-19.5 42q0 12 11 52.5t26 90t31 100.5t27 84q16 53 32 107.5t34 106.5t43.5 78t50.5 26q15 0 31 -16t16 -35q0 -6 -6 -30t-15.5 -57.5t-21.5 -72.5t-23 -75.5t-20.5 -66t-14.5 -44.5
q-5 -17 -11.5 -41.5t-13 -48.5t-14.5 -44t-16 -28q10 -1 23.5 -1.5t28.5 -0.5q30 0 70.5 1t86.5 3q13 37 24 68t19 56q15 43 24.5 70.5t13.5 40.5q9 28 18 58t18 64z" />
    <glyph glyph-name="afii10041" unicode="&#xd7;" horiz-adv-x="483" 
d="M572 625q-15 -43 -38 -104.5t-45.5 -126t-38.5 -124t-16 -99.5q0 -12 9.5 -28t9.5 -26q0 -41 -24 -71q-31 -39 -96 -39q-25 0 -43.5 16.5t-18.5 38.5q0 46 22.5 108t50.5 133q-28 -18 -49.5 -30.5t-41 -20t-39.5 -10.5t-46 -3q-44 0 -75 22t-31 65q0 26 4 59t11 68.5
t17 71t22 65.5q16 41 43.5 63t53.5 22q6 0 12.5 -6.5t12 -16t8.5 -21t0 -20.5q-22 -80 -39 -132.5t-17 -78.5q0 -25 10 -38t36 -13t63.5 21t79.5 49q13 36 26.5 72t28.5 73q24 58 46 78.5t63 20.5q17 0 23 -9.5t6 -28.5z" />
    <glyph glyph-name="afii10042" unicode="&#xd8;" horiz-adv-x="924" 
d="M500 101h188q20 59 36.5 124l33 130t36.5 127.5t47 116.5q24 48 70 48q44 0 44 -69q0 -11 -7.5 -43.5t-19 -76.5t-25.5 -94.5t-27.5 -97.5t-25.5 -85.5t-18 -58.5q-8 -23 -13.5 -46t-16 -41.5t-28.5 -30t-49 -11.5h-259q-102 0 -183.5 -11t-160.5 -24q-46 0 -70.5 10
t-24.5 37q0 6 6 29t15 54.5t20 68t21.5 71t19.5 62t13 41.5q16 53 32 107t34 107q18 52 43.5 78t50.5 26q14 0 30.5 -15.5t16.5 -34.5q0 -13 -11.5 -55.5t-27 -95t-33 -106t-29.5 -89.5q-7 -21 -15 -46.5t-16.5 -49.5t-16.5 -44.5t-14 -31.5q49 6 100 13t96 7
q41 109 62.5 166t22.5 62q23 68 42 139q15 56 29.5 90.5t29 54.5t30.5 27t36 7q44 0 44 -69q0 -24 -13 -65.5t-31 -86.5t-36 -87t-28 -69q-21 -60 -33.5 -102t-16.5 -67z" />
    <glyph glyph-name="afii10043" unicode="&#xd9;" horiz-adv-x="883" 
d="M462 112h198q10 32 20 65l20 66q3 9 13 42.5t21.5 74t22 78.5t15.5 56q14 53 23 82.5t11 34.5q22 48 70 48q44 0 44 -69q0 -26 -10 -66.5t-24 -85.5t-28 -87.5t-22 -70.5q-32 -116 -42 -168q42 0 61 -12.5t19 -55.5q0 -22 -14 -66t-33 -86q-31 -75 -65 -75q-57 0 -64 43
q-1 8 2 23t7.5 32.5t10 35t9.5 30.5q-46 5 -116.5 8.5t-146.5 3.5q-42 0 -90.5 -4t-99.5 -9t-103 -9t-102 -4q-41 0 -54 6q-23 11 -23 43q0 9 14.5 63.5t38 133.5t52 170t56.5 174q18 52 43.5 78t50.5 26q14 0 30.5 -15.5t16.5 -34.5q0 -13 -11.5 -55.5t-27 -95t-33 -106.5
t-29.5 -90q-6 -20 -15 -44.5t-18 -48.5l-16.5 -44t-10.5 -30q-1 0 23.5 2.5t57.5 5t65.5 5t46.5 2.5l64 184l64 184q15 56 29.5 90.5t29 54.5t31 27t35.5 7q23 0 33 -16.5t10 -52.5q0 -27 -12 -68t-28.5 -85.5t-34 -87.5t-28.5 -73q-24 -67 -38.5 -108t-18.5 -56z" />
    <glyph glyph-name="afii10044" unicode="&#xda;" horiz-adv-x="559" 
d="M452 197q0 7 1 15.5t1 12.5q0 44 -20 69t-57 25q-16 0 -30 -1.5t-25 -1.5t-37 1t-40 1q-15 -91 -44 -154q-6 -14 -9.5 -21.5t-8 -12t-10.5 -8.5t-17 -10q26 -14 49.5 -18.5t71.5 -4.5q80 0 130 38q39 32 45 70zM435 435q27 0 53 -12.5t46 -34.5t32 -51.5t12 -62.5
q0 -135 -108 -225q-104 -86 -248 -86q-41 0 -79.5 9.5t-68.5 25t-48 37t-18 45.5q0 14 16.5 28.5t32.5 14.5q-5 10 -5 24q0 16 7 38t17 46t21.5 47.5t20.5 42.5q13 30 25.5 60t24.5 61l39 99q-47 0 -69 9q-20 8 -24.5 21.5t1 29.5t18 31t26.5 24q55 37 155 37q24 0 36 -2.5
t16 -7.5t3.5 -13.5t-0.5 -20.5q0 -8 -8.5 -32.5t-21 -56.5t-28 -67t-29.5 -65q19 0 42 1t44.5 2.5t39.5 2.5t27 1z" />
    <glyph glyph-name="afii10045" unicode="&#xdb;" horiz-adv-x="750" 
d="M425 197q0 7 1 15.5t1 12.5q0 44 -20 69t-57 25q-15 0 -29.5 -1.5t-24.5 -1.5q-12 0 -38 1t-40 1q-15 -91 -44 -154q-6 -14 -9.5 -21.5t-8 -12t-10.5 -8.5t-17 -10q26 -14 49.5 -18.5t71.5 -4.5q80 0 130 38q39 32 45 70zM408 435q27 0 53 -12.5t46 -34.5t32 -51.5
t12 -62.5q0 -136 -107 -225q-104 -86 -249 -86q-41 0 -79.5 9.5t-68.5 25t-48 37t-18 45.5q0 14 16.5 28.5t32.5 14.5q-5 10 -5 24q0 30 24 84q11 23 22 45t20 45q24 59 47 118.5t48 118.5q57 135 101 135q22 0 38.5 -11t16.5 -33q0 -8 -8 -32.5t-21 -56.5t-28.5 -67
t-29.5 -65q19 0 42 1t44.5 2.5t39.5 2.5t27 1zM858 632q0 -7 -6.5 -30t-16 -52.5t-21 -61t-20.5 -56t-14 -37.5t-3 -5q-17 -50 -28.5 -91.5t-17.5 -73.5q-2 -10 -3 -33t-1 -37v-47q0 -18 -9 -35.5t-23.5 -32t-33 -25.5t-37.5 -15q-12 -3 -23.5 3.5t-19.5 19t-13 29t-5 32.5
q0 32 11 78.5t26.5 97t33.5 97.5t32 78q17 41 34.5 81.5t35.5 80.5q20 43 39 64.5t33 21.5q26 0 38 -14t12 -37z" />
    <glyph glyph-name="afii10046" unicode="&#xdc;" horiz-adv-x="538" 
d="M432 197q0 7 1 15.5t1 12.5q0 44 -20 69t-57 25q-15 0 -29.5 -1.5t-24.5 -1.5q-12 0 -38 1t-40 1q-15 -91 -44 -154q-6 -14 -9.5 -21.5t-8 -12t-10.5 -8.5t-17 -10q26 -14 49.5 -18.5t71.5 -4.5q80 0 130 38q39 32 45 70zM415 435q27 0 53 -12.5t46 -34.5t32 -51.5
t12 -62.5q0 -136 -107 -225q-104 -86 -249 -86q-41 0 -79.5 9.5t-68.5 25t-48 37t-18 45.5q0 14 16.5 28.5t32.5 14.5q-5 10 -5 24q0 30 24 84q10 23 21.5 45t20.5 45q24 59 47 118.5t48 118.5q57 135 101 135q22 0 38.5 -11t16.5 -33q0 -8 -8.5 -32.5t-21 -56.5t-28 -67
t-29.5 -65q19 0 42 1t44.5 2.5t39.5 2.5t27 1z" />
    <glyph glyph-name="afii10047" unicode="&#xdd;" horiz-adv-x="507" 
d="M150 -4q-89 0 -135.5 22t-46.5 50q0 10 9 28t22 35.5t27.5 30.5t26.5 13q1 0 16.5 -6.5t35 -14.5t39 -14.5t29.5 -6.5q77 0 162 84q98 98 98 225q0 57 -9 82q-15 42 -58 42q-26 0 -57 -27t-90 -77q-25 -20 -42 -20q-10 0 -22.5 8.5t-24 20.5t-19 26.5t-7.5 26.5
q0 16 18 36.5t46.5 41.5t62.5 41.5t66 36.5t57.5 25.5t37.5 9.5q80 0 120 -40q47 -47 47 -170q0 -133 -60 -251q-46 -90 -123 -166q-54 -53 -104 -72.5t-122 -19.5zM402 344q0 -30 -18.5 -46.5t-45.5 -16.5q-8 0 -20.5 0.5t-25.5 1.5t-24.5 1.5t-17.5 0.5q-34 0 -64 -8
q-8 -1 -21 -8q-28 0 -47 10.5t-19 31.5q0 28 21 47t53 31t68.5 17t68.5 5q47 0 69.5 -12t22.5 -55z" />
    <glyph glyph-name="afii10048" unicode="&#xde;" horiz-adv-x="820" 
d="M764 459q0 33 -28.5 52.5t-81.5 19.5q-97 0 -157 -156q-44 -115 -44 -192q0 -34 18 -57t45 -23q104 0 181 126q67 110 67 230zM215 264q-8 -20 -13.5 -34t-9.5 -22q-11 -26 -20 -37q18 -28 19 -32q7 -15 7 -37q0 -20 -11 -40t-28.5 -36t-38.5 -25.5t-42 -9.5
q-27 0 -48.5 18.5t-21.5 43.5q0 5 12 36.5t27.5 68.5t29.5 70t17 41q0 6 -3 14t-7 16t-7 14.5t-3 8.5q0 21 18.5 40.5t31.5 41.5q22 104 60 183q40 88 75 88q13 0 29.5 -17.5t16.5 -32.5q-4 -15 -7.5 -27t-5.5 -21q-18 -64 -28.5 -103t-14.5 -53q42 9 84 18.5t81 22.5
q68 118 144 168q52 34 116 34q17 0 30.5 -1.5t30.5 -3.5q6 22 12.5 30.5t27.5 8.5q17 0 38 -19.5t39.5 -45.5t31.5 -52t13 -40q0 -172 -79 -311q-34 -61 -78.5 -109t-99.5 -85q-99 -66 -186 -66q-24 0 -45.5 11.5t-37.5 30.5t-25 44.5t-9 54.5q0 67 2.5 112t12.5 89
q-13 -4 -27 -9t-30 -10q-4 -1 -24 -8.5t-56 -20.5z" />
    <glyph glyph-name="afii10049" unicode="&#xdf;" horiz-adv-x="559" 
d="M232 488q-1 -9 -1.5 -15t-0.5 -9q0 -46 27 -61.5t73 -15.5h113l67 157q-41 23 -122 23q-82 0 -120 -24q-32 -20 -36 -55zM105 411q0 134 99 211q92 72 239 72q42 0 80.5 -9.5t68.5 -25t48 -37t18 -45.5q0 -13 -7.5 -20t-16 -12.5t-16 -11.5t-7.5 -16q0 -18 -15 -51.5
t-27 -58.5l-26 -62t-25 -63q-16 -40 -26 -73t-15 -58q-1 -6 -1.5 -10t-0.5 -6q0 -11 13.5 -32t13.5 -44q0 -16 -15 -29t-36 -22t-44 -14t-38 -5q-29 0 -41.5 20t-12.5 47q0 31 24.5 80.5t68.5 140.5h-78q-38 -59 -89 -120q-29 -34 -56.5 -60.5t-53.5 -45.5q-20 -13 -34 -23
t-26.5 -17t-25.5 -10t-31 -3q-25 0 -41 34t-16 71q0 22 26 34q38 13 75.5 31.5t66.5 40.5q46 34 77 76q-44 10 -70.5 45.5t-26.5 80.5z" />
    <glyph glyph-name="afii10065" unicode="&#xe0;" horiz-adv-x="607" 
d="M606 88q-2 -1 -34 -17.5t-94 -47.5q-70 -35 -87 -35q-30 0 -50 18t-20 42q0 31 7 71t10 59q-28 -26 -56 -53t-57 -53q-38 -34 -72 -50.5t-59 -16.5q-38 0 -66.5 26.5t-28.5 56.5q0 41 57 142q62 108 133 184q85 91 149 91q23 0 47 -15.5t24 -40.5q12 16 26 36t35 20
q23 0 38.5 -5.5t15.5 -26.5q0 -17 -5 -42.5t-13 -56t-17.5 -63.5t-18.5 -65q-5 -19 -11 -51.5t-6 -48.5q0 -18 7 -18l26 9t57.5 20.5t58 20.5l26.5 9q22 0 30.5 -8.5t8.5 -26.5q0 -14 -20 -33.5t-41 -30.5zM321 392q-23 0 -55.5 -34.5t-62.5 -79.5t-51 -88.5t-21 -61.5
q42 29 77.5 58t63.5 58q66 68 66 105q1 7 1.5 13t0.5 10q0 20 -19 20z" />
    <glyph glyph-name="afii10066" unicode="&#xe1;" horiz-adv-x="428" 
d="M332 328q0 40 -1 70.5t-4.5 59t-10.5 59.5t-18 71q-14 50 -28 81t-14 53q0 24 43.5 44.5t101 35.5t114.5 23.5t84 8.5q30 0 42 -7.5t12 -35.5q0 -20 -16 -32.5t-37 -19.5t-41.5 -10.5t-30.5 -6.5l-68 -20l-68 -20q8 -21 19 -71.5t18 -102.5q6 -44 10 -85t4 -80
q0 -80 -22 -144.5t-61.5 -110.5t-94.5 -70.5t-121 -24.5q-56 0 -92.5 30.5t-36.5 88.5q0 27 6 60t17 66t25.5 64t30.5 54q64 91 106 126q32 26 56 26q14 0 26.5 -11.5t12.5 -26.5q0 -22 -25 -61t-55 -83t-55 -88t-25 -77q0 -21 12 -35t37 -14q56 0 104 78q44 73 44 138z" />
    <glyph glyph-name="afii10067" unicode="&#xe2;" horiz-adv-x="497" 
d="M260 453q35 34 65.5 64t55.5 57q24 26 39.5 42t24 28t12 22.5t3.5 24.5q0 15 -11 15q-22 0 -45 -21.5t-46.5 -57t-47.5 -81t-50 -93.5zM402 411q29 0 50.5 -24.5t21.5 -65.5q0 -90 -46 -160q-32 -49 -109 -114q-17 -13 -31 -22.5t-29.5 -14.5t-34.5 -7.5t-45 -2.5
q-50 0 -89.5 25t-39.5 73q0 65 20.5 142.5t53 156.5t71.5 153.5t76 133.5q52 82 124 130.5t146 48.5q51 0 67.5 -28.5t16.5 -79.5q0 -45 -90 -154q-34 -41 -80.5 -91t-105.5 -109l-78 -76t-77 -76q0 -2 -4.5 -12.5t-9.5 -23.5t-9 -25.5t-4 -19.5q0 -20 12.5 -34.5
t36.5 -14.5q57 0 99 61q38 56 38 120q0 18 -7 40t-7 27q0 21 19.5 32.5t43.5 11.5z" />
    <glyph glyph-name="afii10068" unicode="&#xe3;" horiz-adv-x="326" 
d="M97 323q-7 0 -15.5 5.5t-16 14t-12.5 18.5t-5 19q0 24 22.5 49.5t54 47t64.5 35t53 13.5q43 0 75.5 -21t32.5 -57q0 -80 -40 -132q-20 -24 -70 -72q-12 -11 -28.5 -24.5t-31 -28.5t-25 -29.5t-10.5 -27.5q0 -12 15 -12q42 0 95.5 30t108.5 62q14 0 22 -10t8 -24
q0 -28 -31 -60.5t-72.5 -60t-83.5 -46t-65 -18.5q-56 0 -96 31q-45 35 -45 84q0 19 12 39.5t32.5 41.5t46.5 43t53 43q61 48 73 66q10 13 10 38q0 7 -12 7t-27.5 -10t-32 -22t-32 -22t-27.5 -10z" />
    <glyph glyph-name="afii10069" unicode="&#xe4;" horiz-adv-x="404" 
d="M439 337q-19 -92 -58 -166.5t-101 -126.5q-32 -26 -63 -36t-80 -10q-25 0 -48 11.5t-41 31t-28.5 45.5t-10.5 54q0 63 26 132q10 26 25.5 54t34 54t38.5 49t38 39q55 49 99 49q13 0 25 -11t12 -28q0 -10 -12.5 -25.5t-28.5 -32.5t-33 -33.5t-26 -28.5q-78 -110 -78 -179
q0 -22 13.5 -43t36.5 -21q26 0 45 11t34 31t28.5 49.5t29.5 66.5q6 13 12 39.5t11 56t8 57t3 41.5q0 66 -24 104q-13 19 -63 62q-18 17 -120 66q-42 20 -58 38q-7 7 -7 24q0 22 14 41t36 19q9 0 28.5 -6.5t44 -17.5t50.5 -24.5t47 -28.5q62 -44 102 -111q46 -77 46 -167
v-19.5t1 -22.5q0 -15 -0.5 -25t-1 -19t-2 -18.5t-4.5 -24.5z" />
    <glyph glyph-name="afii10070" unicode="&#xe5;" horiz-adv-x="411" 
d="M417 438q0 -45 -6 -66q-5 -18 -17 -40.5t-29 -45t-37.5 -42.5t-42.5 -32q-29 -17 -59.5 -33.5t-59.5 -32.5q2 -12 5.5 -18.5t11.5 -6.5q43 0 113 19t140 40q24 0 24 -34q0 -19 -21.5 -37.5t-55 -35t-73.5 -31t-77 -25t-66.5 -16.5t-41.5 -6q-23 0 -42 14.5t-32.5 36
t-21 47.5t-7.5 49q0 56 25 122.5t67 124t97.5 96t116.5 38.5q40 0 64.5 -23.5t24.5 -61.5zM289 407q-28 0 -53.5 -28t-47.5 -73q-7 -14 -14.5 -32t-16.5 -41q17 8 34 20t35 26q13 10 23.5 20t20.5 20q22 23 30.5 33t8.5 32q-4 9 -9 16t-11 7z" />
    <glyph glyph-name="afii10072" unicode="&#xe6;" horiz-adv-x="980" 
d="M282 147q-43 -66 -106.5 -104.5t-131.5 -38.5q-9 0 -17.5 9t-16 22.5t-12 29.5t-4.5 30t18 26.5t45.5 26.5t59.5 30.5t59.5 39t45.5 52t18 69.5q0 18 -6 30t-21 12q-38 0 -64.5 -20t-52.5 -43q-20 0 -30 13t-10 29q0 37 56 90q65 62 137 62q48 0 77.5 -34.5t29.5 -86.5
q0 -21 -6.5 -45t-7.5 -28q14 11 27 21.5t23 20.5q23 21 35 32t13 12q10 8 22 23t28 36q56 78 67 78q30 0 38 -20.5t8 -53.5q0 -17 -8.5 -52t-20 -73.5t-23 -74t-17.5 -51.5q17 18 47 46t63 58t64 56.5t49 41.5q41 33 85 55.5t85 22.5q24 0 47.5 -15.5t23.5 -42.5
q0 -40 -19 -48.5t-63 -8.5q-30 0 -58.5 -23t-50 -55.5t-35 -68.5t-13.5 -62q0 -15 11.5 -28t32.5 -13q27 0 57 4.5t61 15.5q29 11 59 22t59 22q18 0 22 -11.5t4 -23.5q0 -28 -98 -85q-109 -63 -203 -63q-48 0 -80 34t-32 85q0 3 1 17t3 31t4 35.5t3 30.5
q-46 -58 -82.5 -101.5t-64.5 -74.5q-59 -65 -76 -65q-28 0 -47 11.5t-19 37.5q0 15 11.5 51.5t27 79t32.5 83t27 63.5q-13 -10 -39.5 -36t-56 -55t-56 -55t-38.5 -37z" />
    <glyph glyph-name="afii10073" unicode="&#xe7;" horiz-adv-x="391" 
d="M128 128q-26 3 -34 15.5t-8 38.5q0 30 7 44t31 20q156 40 156 106q0 23 -11.5 45t-35.5 22q-46 0 -83 -24.5t-74 -49.5q-18 0 -25 10.5t-7 28.5q0 30 18 58t48 49.5t68 34.5t79 13q77 0 121 -53q36 -45 36 -104q0 -88 -75 -141q-52 -36 -131 -49q90 -24 124 -76
q30 -45 30 -118q0 -66 -28.5 -141t-76.5 -138.5t-112 -105t-135 -41.5q-39 0 -74 20.5t-62 52t-43 70t-16 75.5q0 6 9 18t21.5 24.5t26.5 21.5t25 9q12 0 26.5 -27t31.5 -59t36 -59t41 -27q18 0 41.5 13.5t46.5 34t42.5 44t31.5 42.5q46 77 46 173q0 68 -33 99
q-25 23 -79 31z" />
    <glyph glyph-name="afii10074" unicode="&#xe8;" horiz-adv-x="567" 
d="M573 66q0 -10 -8.5 -23.5t-21.5 -25.5t-27 -20.5t-26 -8.5q-35 0 -58.5 20t-38 49t-22 62.5t-9.5 60.5q-41 -44 -62 -65.5t-22 -22.5q-25 -24 -48.5 -42t-45.5 -31q-55 -31 -110 -31q-25 0 -40.5 16.5t-15.5 37.5q0 34 30 134q11 37 18 60t9 31q35 114 69 170
q44 71 94 71q13 0 24 -12t11 -21q-4 -36 -18.5 -69.5t-30.5 -67.5t-30.5 -68t-18.5 -71v-15q0 -20 19 -20q14 0 36.5 17.5t48.5 42t52 51.5t45 46q32 93 75 135q31 31 67 31q19 0 28 -13t9 -34q0 -2 -9 -31t-20 -66.5t-20 -74t-9 -54.5q0 -40 24 -77q12 -19 25.5 -36.5
t26.5 -34.5z" />
    <glyph glyph-name="afii10075" unicode="&#xe9;" horiz-adv-x="570" 
d="M573 66q0 -10 -8.5 -23.5t-21.5 -25.5t-27 -20.5t-26 -8.5q-35 0 -58.5 20t-38 49t-22 62.5t-9.5 60.5q-41 -44 -62 -65.5t-22 -22.5q-25 -24 -48.5 -42t-45.5 -31q-55 -31 -110 -31q-25 0 -40.5 16.5t-15.5 37.5q0 34 30 134q11 37 18 60t9 31q35 114 69 170
q44 71 94 71q13 0 24 -12t11 -21q-4 -36 -18.5 -69.5t-30.5 -67.5t-30.5 -68t-18.5 -71v-15q0 -20 19 -20q14 0 36.5 17.5t48.5 42t52 51.5t45 46q32 93 75 135q31 31 67 31q19 0 28 -13t9 -34q0 -2 -9 -31t-20 -66.5t-20 -74t-9 -54.5q0 -40 24 -77q12 -19 25.5 -36.5
t26.5 -34.5zM667 731q0 -26 -27 -49t-63.5 -40.5t-73.5 -28t-58 -10.5q-65 0 -99 43q-15 18 -22 41.5t-4 45.5t18.5 37t46.5 15q14 0 27.5 -13t26.5 -28t24 -28t19 -13q33 0 70 11t76 36q9 6 19 6q20 0 20 -25z" />
    <glyph glyph-name="afii10076" unicode="&#xea;" horiz-adv-x="521" 
d="M350 264q6 -22 19.5 -43t34.5 -37q18 -13 42 -27.5t46.5 -28t38 -25t15.5 -19.5q2 -9 -6.5 -23t-22.5 -27t-30.5 -22.5t-31.5 -9.5q-23 0 -50.5 14.5t-55 37.5t-52 51.5t-40.5 57.5q-48 -55 -93 -94q-65 -56 -100 -56q-19 0 -28.5 16t-9.5 35q0 28 6 69.5t15.5 85
t20.5 84t20 67.5q6 18 15.5 43t20 47.5t21.5 38t20 16.5q11 1 25 -3t26.5 -11t21 -17t7.5 -21q-1 -9 -8 -35.5t-17.5 -63t-24 -80.5t-28.5 -87q25 33 50 64t50 59q66 76 114 120q60 54 89 54q24 0 29 -14t5 -51q0 -50 -32 -71q-33 -22 -54.5 -34.5t-42.5 -33.5l-7 -7
t-18 -19z" />
    <glyph glyph-name="afii10077" unicode="&#xeb;" horiz-adv-x="504" 
d="M242 317q9 18 20 41t24 45t27 38.5t30 21.5q58 19 97 19q22 0 27 -13.5t5 -47.5q0 -10 -4.5 -44.5t-9.5 -74.5t-9.5 -74.5t-4.5 -44.5q0 -9 9 -26.5t20 -35.5t19.5 -34t7.5 -23q-2 -8 -12 -20t-23 -23t-26 -18.5t-20 -7.5q-29 0 -48 18.5t-29.5 44t-14.5 53t-4 46.5
q0 81 15 153q-38 -76 -63 -123q-23 -43 -40 -73.5t-30 -47.5q-28 -39 -58 -55t-65 -16q-14 0 -29.5 3.5t-28 10t-21 15t-8.5 18.5q0 13 3 30.5t8.5 34t12 28.5t13.5 14q1 0 9 -1t18 -2.5l20 -3t16 -1.5q14 0 34.5 18.5t41.5 45.5t40.5 57.5t30.5 54.5z" />
    <glyph glyph-name="afii10078" unicode="&#xec;" horiz-adv-x="810" 
d="M455 496q13 0 26.5 -20t13.5 -45q0 -8 -5 -42.5t-12 -76t-13.5 -81t-9.5 -56.5q98 151 158 232q66 89 90 89q20 0 33 -11.5t13 -35.5q0 -9 -2 -26t-4 -37l-4 -40t-2 -35q0 -6 -0.5 -17.5t-0.5 -24.5t-0.5 -24t-0.5 -14v-37q1 -18 11.5 -34.5t22.5 -31.5t21.5 -29.5
t9.5 -27.5q0 -9 -6 -24.5t-15 -30.5t-20 -25.5t-22 -10.5q-39 0 -69.5 19t-46.5 52q-12 27 -16 60.5t-4 79.5v18q-25 -31 -50 -63t-50 -62q-81 -93 -129 -93q-25 0 -39.5 17.5t-14.5 40.5l29 183q1 6 3 17.5t5 24.5t6 24.5t5 15.5q-18 -36 -34.5 -67.5t-32.5 -58.5
q-34 -61 -58.5 -98t-46.5 -57.5t-43.5 -28t-49.5 -9.5q-12 0 -28.5 4t-31 11t-24.5 17t-10 22q0 13 2.5 30.5t7.5 33t13 26t20 10.5q2 0 10.5 -1.5t19 -2.5t20 -2.5t13.5 -1.5q14 0 34.5 18.5t42 45.5t41 57.5t31.5 54.5q37 69 64 109q21 32 36.5 47t26.5 21t18 6h13t17 -2
t18 -2z" />
    <glyph glyph-name="afii10079" unicode="&#xed;" horiz-adv-x="536" 
d="M84 278q6 19 19 58t29.5 78t35.5 69t36 32q10 1 24 -3t26 -11t20 -17t6 -21q0 -1 -7.5 -21t-17 -45.5t-18.5 -49t-12 -31.5q50 9 96.5 15t75.5 6q11 35 23 66t26 60q11 24 37 39t45 15q18 0 23.5 -9t5.5 -28v-27q-11 -42 -22.5 -86t-20.5 -82.5t-15 -68.5t-6 -43
q0 -15 4.5 -30.5t9.5 -29t8.5 -24t2.5 -14.5q-1 -7 -11 -19.5t-24.5 -24.5t-30 -20.5t-27.5 -8.5q-15 0 -27.5 10.5t-21.5 26.5t-14 35.5t-5 38.5q0 39 10 89q-27 6 -56 6q-24 0 -53 -5t-78 -16q-3 -11 -4 -35t-5.5 -50.5t-15.5 -51.5t-34 -38q-28 -16 -57 -16
q-18 0 -26.5 17t-8.5 35q0 28 6 53t15 60q-27 0 -43 10.5t-16 32.5q0 21 26 40.5t67 33.5z" />
    <glyph glyph-name="afii10080" unicode="&#xee;" horiz-adv-x="448" 
d="M519 424q-9 -2 -23 -5.5l-30 -7.5t-30 -7t-23 -3q8 -11 13 -17.5t7.5 -13.5t3.5 -16.5t1 -25.5q0 -90 -49 -169q-39 -64 -111 -124q-32 -27 -61 -37t-81 -10q-57 0 -93 30.5t-36 89.5q0 65 29 144q23 63 49 99q65 92 106 126q32 26 57 26q12 0 25.5 -11.5t13.5 -25.5
q0 -21 -25 -59.5t-55.5 -83t-55.5 -89t-25 -77.5q0 -20 12.5 -34.5t36.5 -14.5q56 0 101 70q41 65 41 129q0 9 -3.5 25t-7.5 34t-7.5 35t-3.5 27q0 25 22.5 40t56 23.5t73 11t72.5 2.5q20 0 35 -6.5t15 -16.5q0 -20 -16 -38t-34 -20z" />
    <glyph glyph-name="afii10081" unicode="&#xef;" horiz-adv-x="514" 
d="M501 426q0 -10 -4 -45t-9.5 -75.5t-9.5 -75.5t-4 -45q0 -14 2 -31t25 -62q9 -19 8 -28q-2 -7 -12 -19.5t-23.5 -24.5t-28.5 -20.5t-27 -8.5q-22 0 -37.5 16.5t-25 40t-13.5 49t-4 42.5q0 26 5 59t13 75q-18 -25 -39 -52t-46 -55q-20 -23 -38.5 -42.5t-34.5 -34.5
q-59 -55 -71 -62q-38 -26 -74 -26q-19 0 -29.5 17t-10.5 36q0 46 9 100.5t23.5 110t32.5 107t37 90.5q24 50 41 52q10 1 24.5 -3t27 -11.5t21 -17.5t7.5 -21q-2 -22 -11.5 -58.5t-22 -76t-25 -77t-19.5 -61.5q46 62 102 126q34 39 62.5 69.5t53.5 52.5q61 55 91 55
q24 0 29 -14t5 -51z" />
    <glyph glyph-name="afii10082" unicode="&#xf0;" horiz-adv-x="480" 
d="M505 346q0 -97 -95 -221q-100 -130 -190 -130q-19 0 -44.5 11t-47.5 26q-6 -22 -10.5 -58.5t-9.5 -78.5t-12.5 -85.5t-18.5 -78.5t-27.5 -57.5t-40.5 -22.5q-37 0 -47.5 23.5t-10.5 61.5q0 8 9 49.5t22 99t28 121t27.5 115t20 82.5t5.5 22q6 25 13.5 55.5t16.5 62t18 62
t18 56.5q14 39 37 51q14 7 47 7q21 0 28 -9t7 -28q0 -17 -5 -42q43 36 69 53q49 31 81 31q61 0 86.5 -38t25.5 -140zM374 330q0 41 -3 52q-6 20 -25 20q-61 0 -98 -51q-10 -13 -24.5 -43t-28.5 -65t-26.5 -69.5t-18.5 -56.5q5 10 15.5 17.5t22.5 7.5q10 -1 23 -14t30 -13
q24 0 48 26.5t43 62.5t30.5 72t11.5 54z" />
    <glyph glyph-name="afii10083" unicode="&#xf1;" horiz-adv-x="402" 
d="M441 183q0 -42 -89 -111q-109 -83 -234 -83q-51 0 -74 33.5t-23 88.5q0 19 6 44.5t15.5 51.5t21 51t23.5 42q30 43 61.5 78.5t65.5 64.5q82 69 149 69q29 0 52 -15.5t23 -42.5q0 -20 -11 -30t-26 -15t-31.5 -6.5t-27.5 -4.5q-31 -8 -63 -35.5t-57.5 -63.5t-42 -75
t-16.5 -71q0 -25 23 -25q19 0 46 10.5t57 25.5t59.5 32t52.5 29q22 0 31 -12.5t9 -29.5z" />
    <glyph glyph-name="afii10084" unicode="&#xf2;" horiz-adv-x="796" 
d="M723 -14q-38 0 -66.5 18.5t-42.5 50.5q-6 15 -8 33t-2 41q0 15 1 42.5t1 37.5q-26 -31 -52.5 -61.5t-53.5 -60.5q-43 -47 -77.5 -69.5t-55.5 -22.5q-24 0 -37 18t-13 40l43 179q1 4 4 15.5t6 24t6 24t5 15.5q-8 -8 -73 -101q-34 -49 -64 -87t-55 -66q-74 -80 -116 -80
q-28 0 -40.5 22t-12.5 50q5 22 9 39t8 30q7 28 17.5 62.5t20.5 74.5q10 41 18 83.5t19 83.5q24 88 86 88q34 0 34 -39q0 -8 -1.5 -21.5t-1.5 -16.5q0 -4 -5.5 -32t-13.5 -64.5t-16 -73.5t-13 -59q4 0 19 15.5t35.5 39t43 51t41 51t31.5 39.5l13 16q68 75 99 75q9 0 18.5 -7
t17 -17.5t12.5 -21.5t5 -19q0 -1 -7.5 -36t-17 -78.5t-18 -81.5t-9.5 -46q20 25 40.5 50.5t40.5 50.5q69 85 117 138q64 70 83 70t31.5 -11.5t12.5 -34.5q0 -17 -12 -45q-14 -34 -22 -58.5t-12.5 -47t-5.5 -46.5t-1 -57q0 -19 8.5 -34.5t19 -29.5t19 -27t8.5 -27
q0 -11 -6.5 -26t-17 -29t-22 -24t-22.5 -10z" />
    <glyph glyph-name="afii10085" unicode="&#xf3;" horiz-adv-x="489" 
d="M350 211l-29 -29t-59 -60q-63 -64 -96 -90q-55 -41 -92 -41q-28 0 -43 27t-15 60q0 17 5 54t14.5 82.5t23 94t31.5 88.5t40 66t47 26q19 0 31.5 -15.5t12.5 -34.5q0 3 -6 -16t-15 -49t-19.5 -66t-19.5 -66t-15 -49t-6 -15q0 -18 4 -29.5t19 -11.5t37 19t46.5 49t50 66
t47 69.5t37 60.5t20.5 38q10 20 29.5 33.5t38.5 13.5q20 0 27.5 -7.5t7.5 -30.5q0 -75 -44 -251q-15 -59 -30 -111t-29 -95q-11 -35 -21.5 -70.5t-21.5 -70.5q-20 -62 -45 -112t-50 -86q-71 -101 -152 -101q-59 0 -126 63q-73 69 -73 143q0 5 7.5 15t18.5 20.5t23.5 19
t23.5 9.5q3 0 19 -23t37.5 -51t45 -51.5t41.5 -23.5q45 0 81 68q12 22 24.5 59t24.5 79.5t23 86t20 78.5q5 20 9.5 37.5t10 36.5t12.5 41.5t17 52.5z" />
    <glyph glyph-name="afii10086" unicode="&#xf4;" horiz-adv-x="737" 
d="M639 330q0 34 -5.5 44t-26.5 10q-18 0 -39.5 -11.5t-42.5 -32t-39.5 -47.5t-31.5 -59q-8 -20 -19.5 -55.5t-20.5 -61.5q6 10 16 17.5t23 7.5q9 -1 22 -14t30 -13q25 0 49 26.5t43 62t30.5 71.5t11.5 55zM366 384q-11 -11 -21.5 -12.5t-19.5 1.5t-16.5 7t-13.5 4
q-41 0 -108 -72q-72 -78 -72 -141q0 -25 16.5 -39.5t39.5 -14.5q11 0 28.5 10.5t38.5 27t44 37.5t47 43q8 36 15 66t22 83zM386 450q3 10 11.5 38t18.5 59t19 58.5t12 37.5q13 40 38 52q13 7 46 7q16 0 22 -7t6 -19v-4.5t-2 -13t-8.5 -32.5t-18.5 -64q-21 -72 -36 -117
q26 16 47.5 26.5t37.5 17.5q39 16 75 16q49 0 80 -40q36 -45 36 -119q0 -97 -95 -221q-100 -130 -191 -130q-19 0 -45.5 12.5t-54.5 29.5q-12 -43 -30 -123q-7 -31 -12 -50t-8 -32.5t-4 -25t-1 -27.5q0 -13 4 -33t4 -33q0 -30 -23.5 -56.5t-60.5 -26.5q-35 0 -47 22t-12 63
q0 9 8 41.5t20 76t26 91.5t26 88l19.5 65t6.5 22q-44 -47 -80 -72q-47 -32 -87 -32q-55 0 -94.5 35.5t-39.5 86.5v26q0 45 7.5 80t35.5 77q57 83 129 140q83 65 159 65q24 0 39 -19q9 -10 17 -36z" />
    <glyph glyph-name="afii10087" unicode="&#xf5;" horiz-adv-x="484" 
d="M543 489q0 -18 -22.5 -47.5t-53.5 -61t-65 -62t-56 -51.5q10 -18 21 -36t22 -35q27 -42 42 -42q28 3 36 -14t8 -49q0 -44 -33 -70q-29 -23 -66 -23q-10 0 -30 22.5t-40.5 51t-37 54t-20.5 31.5q-23 -23 -39.5 -39t-25.5 -26q-41 -44 -44 -62q-9 -44 -27 -69t-58 -25
q-26 0 -42 19.5t-16 45.5q0 21 16 47.5t43 57.5t63 67l77 77q-38 57 -103 122q-2 2 -12.5 8.5t-22.5 16t-22 21t-10 22.5q0 8 8.5 20.5t21.5 24.5t27.5 20.5t26.5 8.5q35 0 78 -39t101 -124q52 55 85 87.5t46 43.5q52 43 81 43q17 0 30 -12t13 -24z" />
    <glyph glyph-name="afii10088" unicode="&#xf6;" horiz-adv-x="559" 
d="M569 47q-23 -65 -35.5 -106.5t-12.5 -64.5q-1 -4 -1 -8v-6q0 -11 4 -30t2 -30q-3 -33 -24.5 -57.5t-54.5 -24.5q-35 0 -45.5 21t-10.5 59q0 15 5 40.5t14 55t20.5 61t24.5 58.5q-18 -11 -45.5 -18t-53 -5.5t-44 14t-18.5 41.5q0 23 8.5 57t13.5 56q-89 -102 -107 -117
q-63 -54 -138 -54q-21 0 -39.5 15.5t-18.5 35.5q0 38 12.5 94t28.5 120q12 52 25.5 92t27.5 68q36 68 84 68q13 0 24.5 -10.5t11.5 -19.5q0 -32 -18 -78q-5 -13 -12 -31.5t-13 -36.5t-11 -32t-6 -19q-14 -50 -14 -67v-13q0 -19 20 -19q14 0 35 15t45.5 38t50 49.5t47.5 50.5
q24 88 55 125q24 28 54 28q17 0 27.5 -12.5t10.5 -31.5q0 -33 -13 -81q-1 -4 -8 -27t-20 -65q-8 -28 -16.5 -58.5t-8.5 -50.5q-1 -3 -1 -13q0 -27 16 -27q3 0 12 2t20 4.5t23 4.5t19 2q22 0 36 -15t14 -35q0 -2 -2 -12z" />
    <glyph glyph-name="afii10089" unicode="&#xf7;" horiz-adv-x="431" 
d="M36 325q2 11 11 40.5t22.5 60.5t29.5 55t31 24q18 0 36 -16t18 -37q0 -22 -13.5 -54.5t-22.5 -62t-4.5 -50.5t40.5 -21q17 0 29 3t23.5 10t25.5 18.5t35 29.5q11 31 24 66q5 11 12 26.5t16 34.5q12 24 38.5 38.5t45.5 14.5q14 0 20 -6t8 -15t1 -20.5t-1 -22.5
q-31 -94 -51 -170q-23 -84 -23 -110q0 -13 4 -28.5t8.5 -29.5t7.5 -24.5t2 -15.5q-2 -6 -13 -18t-26 -24t-30.5 -21t-27.5 -9q-15 0 -27 10t-20.5 25.5t-12.5 34t-4 36.5q0 19 4 43t10 51q-46 -26 -77 -36t-55 -10q-16 0 -33 8.5t-30.5 20.5t-22 26t-8.5 26q0 15 -1.5 38
t-1.5 24q0 18 3 37z" />
    <glyph glyph-name="afii10090" unicode="&#xf8;" horiz-adv-x="841" 
d="M331 171q-89 -101 -114 -122q-71 -60 -146 -60q-21 0 -39.5 15.5t-18.5 35.5q0 38 12.5 94t28.5 120q12 52 25.5 92t27.5 68q36 68 84 68q13 0 24.5 -10.5t11.5 -19.5q0 -32 -18 -78q-5 -13 -12 -31.5t-13 -36.5t-11 -32t-6 -19q-14 -50 -14 -67v-13q0 -19 20 -19
q16 0 37.5 15t46 39t52.5 54t57 62q22 71 50 110q32 44 71 44q13 0 24 -11t11 -20q0 -21 -12.5 -57.5t-22.5 -65.5q-9 -26 -15 -44t-9 -29q-14 -48 -14 -66v-14q0 -10 4 -15t16 -5t32.5 16.5t44 39.5t47 49t39.5 44q22 86 62 128q28 30 62 30q17 0 27 -13t10 -32
q0 -1 -6.5 -27.5t-13.5 -60t-13.5 -66.5t-6.5 -48q0 -19 5.5 -40t19.5 -40t28.5 -37t28.5 -36q0 -10 -7.5 -22.5t-18 -24t-23 -19t-23.5 -7.5q-34 0 -57.5 18.5t-39.5 45.5t-25 58.5t-14 58.5q-28 -31 -46.5 -51.5t-28.5 -30.5q-45 -45 -85 -69q-49 -28 -102 -28
q-21 0 -38.5 14.5t-17.5 33.5q0 22 4 45q2 6 18 89z" />
    <glyph glyph-name="afii10091" unicode="&#xf9;" horiz-adv-x="825" 
d="M627 0q-26 0 -43.5 13t-17.5 42q0 21 4 40q0 3 19 73q-89 -100 -107 -115q-64 -55 -138 -55q-21 0 -39 15t-18 36q0 17 6 52.5t14 66.5q-46 -51 -72.5 -79.5t-34.5 -35.5q-64 -55 -138 -55q-21 0 -39 15t-18 36q0 23 8 69q1 4 8.5 40t22.5 104q24 104 55 161q36 68 84 68
q13 0 24 -11t11 -20q0 -21 -12.5 -56.5t-22.5 -65.5q-7 -17 -13.5 -35.5t-11.5 -37.5q-14 -50 -14 -67q0 -21 2.5 -27t18.5 -6q33 0 72 41t106 112q10 38 22.5 68t26.5 53q34 52 72 52q13 0 24.5 -10.5t11.5 -20.5q0 -23 -12 -58t-24 -64l-23 -73q-14 -51 -14 -67v-13
q0 -10 4 -15t16 -5q14 0 33 13t42 34.5t49 49t54 56.5q23 88 54 126q24 28 55 28q17 0 27 -13t10 -32q0 -18 -3 -36t-9.5 -43.5t-17 -61t-25.5 -87.5q-11 -36 -12 -55q-1 -16 3.5 -28t13.5 -12q8 0 29 7t43 7t36.5 -14.5t14.5 -34.5q0 -2 -0.5 -5.5t-1.5 -8.5
q-20 -64 -34.5 -108.5t-14.5 -62.5q0 -17 4 -36t4 -26q0 -8 -4 -23t-13 -31t-24.5 -27.5t-38.5 -11.5q-36 0 -46 20.5t-10 59.5q0 28 17 84.5t47 131.5q-44 -25 -102 -25z" />
    <glyph glyph-name="afii10092" unicode="&#xfa;" horiz-adv-x="518" 
d="M353 281q-18 0 -45.5 -13t-40.5 -28q-10 -28 -19 -55t-9 -41q0 -17 12.5 -28.5t43.5 -11.5q16 0 34 11.5t33 28t25 36t10 35.5q0 35 -10.5 50.5t-33.5 15.5zM435 380q19 0 34.5 -10t26 -25.5t16 -35t5.5 -38.5q0 -100 -61 -170q-23 -28 -55 -50t-72 -39q-63 -26 -102 -26
q-21 0 -43 8.5t-39 22.5t-28 32.5t-11 38.5q0 11 7 35t15.5 51t17 50.5t11.5 32.5q6 19 12.5 40.5t13 41t11.5 35.5t8 25q-19 -6 -48 -12t-48 -6q-50 0 -66 22t-16 64q0 21 9.5 34.5t39.5 13.5q22 0 46.5 -14.5t51.5 -14.5q5 0 23.5 10t39.5 22t39.5 22t23.5 10
q19 0 30.5 -9.5t11.5 -25.5q0 -6 -5.5 -30t-13 -52.5t-14.5 -55t-11 -39.5q33 23 67 32.5t73 9.5z" />
    <glyph glyph-name="afii10093" unicode="&#xfb;" horiz-adv-x="687" 
d="M578 454q23 22 42 33t43 11q18 0 26.5 -16t8.5 -37q0 -11 -10 -49.5t-21.5 -82.5t-21.5 -83t-10 -50q0 -10 7 -20.5t15.5 -20.5t15.5 -19.5t7 -18.5q0 -10 -7 -29.5t-18 -39t-24 -34t-26 -14.5q-24 0 -42.5 12t-30.5 32t-18.5 45.5t-6.5 52.5q0 44 10 86.5t29 110.5
q1 1 -14 -9.5t-35.5 -24t-40.5 -27.5t-28 -21q0 -32 -7.5 -62t-22.5 -67q-24 -60 -85 -94t-150 -34q-22 0 -48 11.5t-48.5 29.5t-38 41t-15.5 46q0 58 18 121q3 11 19.5 54t47.5 117q19 43 49 72t72 29q13 0 22 -18.5t9 -32.5q0 -10 -11 -34q-19 -42 -31.5 -70t-17.5 -41
q-7 -17 -13 -35.5t-11 -37.5q-17 -60 -17 -86q0 -24 21.5 -31t48.5 -7q20 0 36.5 9.5t28.5 25t19 35t7 40.5q-3 -1 -11 -1q-25 0 -41.5 21t-16.5 45q0 17 6.5 34.5t17.5 32t26.5 24t32.5 9.5q63 0 88 -42q38 14 83.5 44t82.5 65z" />
    <glyph glyph-name="afii10094" unicode="&#xfc;" horiz-adv-x="438" 
d="M264 281q-18 0 -45.5 -13t-40.5 -28q-10 -28 -19 -55t-9 -41q0 -17 12.5 -28.5t43.5 -11.5q16 0 34 11.5t33 28t25 36t10 35.5q0 35 -10.5 50.5t-33.5 15.5zM346 380q20 0 35 -10t25.5 -25.5t16 -35t5.5 -38.5q0 -100 -61 -170q-23 -28 -55 -50t-72 -39q-63 -26 -102 -26
q-21 0 -42.5 8.5t-38.5 22.5t-27.5 32t-10.5 38q0 46 17 103q4 14 12 34.5t17.5 43.5t18.5 45.5t15 39.5q26 71 51 116q12 23 29 34.5t43 11.5q21 0 31.5 -6.5t10.5 -28.5q0 -10 -6.5 -28t-15.5 -38.5t-19 -40.5t-17 -35q33 23 67 32.5t73 9.5z" />
    <glyph glyph-name="afii10095" unicode="&#xfd;" horiz-adv-x="466" 
d="M326 199l-92 -2q-45 0 -71 -9q-6 -2 -11 -5q-30 0 -47.5 10t-17.5 32q0 26 18 41.5t47.5 24t65.5 11t72 2.5q28 0 40 -8t25 -21q5 19 10 34t2 26q0 37 -16.5 57t-53.5 20q-30 0 -59.5 -8.5t-60.5 -17.5q-23 0 -35 13t-12 29q0 15 15 31t41 29t59 21.5t69 8.5
q78 0 118 -52q39 -50 39 -125q0 -45 -9.5 -93.5t-28.5 -83.5q-43 -79 -110 -129.5t-138 -50.5q-24 0 -52 3.5t-52 11.5t-40 21.5t-16 33.5q0 33 10.5 58.5t39.5 25.5q27 0 53 -15t57 -15q49 0 82.5 23t58.5 68z" />
    <glyph glyph-name="afii10096" unicode="&#xfe;" horiz-adv-x="708" 
d="M304 192l-113 -21q-3 -13 -5 -32.5t-3.5 -38.5t-2.5 -33.5t-1 -19.5q-5 -31 -32.5 -49t-58.5 -18q-18 0 -28.5 17t-10.5 35q0 45 13 113q-28 0 -45 10.5t-17 31.5q0 23 23 41.5t65 33.5q5 22 16 61.5t25.5 78t30.5 67t31 29.5q10 2 24 -2t27 -11.5t21.5 -17t6.5 -20.5
q0 -5 -5 -23t-12 -40.5t-14.5 -45.5t-12.5 -38q37 7 61.5 9t47.5 2h14q4 7 14.5 23.5t12.5 18.5q62 89 132 137q52 36 82 36q13 0 25.5 -11.5t12.5 -25.5q0 -19 -22.5 -41t-46.5 -41q-42 -39 -86 -108q-56 -89 -56 -140q0 -22 12 -35.5t37 -13.5q55 0 100 70q41 65 41 129
q0 6 -3.5 18.5t-7 26t-7 26t-3.5 19.5q-2 16 9.5 28.5t38.5 13.5q12 4 26.5 -4t27.5 -19.5t23 -23t12 -14.5q5 -12 5 -50q0 -91 -48 -169q-19 -29 -46.5 -61t-64.5 -63q-31 -26 -62 -36t-81 -10q-56 0 -92.5 30.5t-36.5 88.5q0 16 2 39.5t5 42.5z" />
    <glyph glyph-name="afii10097" unicode="&#xff;" horiz-adv-x="518" 
d="M140 374q5 21 22.5 40.5t41.5 36t51.5 28.5t51.5 19q43 12 75.5 17t64.5 5q16 0 33.5 -1.5t37.5 -2.5q15 0 26 -18.5t8 -36.5q-1 -14 -11 -23.5t-22 -13.5q-7 -22 -17 -61t-19 -80.5t-15.5 -79.5t-6.5 -58t12.5 -40t12.5 -39q0 -10 -14.5 -21.5t-33.5 -22t-37 -17.5
t-25 -7q-25 0 -36 28t-11 64q0 40 15 100q-12 -16 -28.5 -34.5t-34.5 -37.5t-35.5 -36.5t-32.5 -30.5q-35 -30 -59.5 -41.5t-58.5 -11.5q-16 0 -35.5 8t-36 20t-27 25t-7.5 24q3 12 10 26.5t16 27t19 20.5t17 8q6 0 18 -4t23.5 -9t21 -9t11.5 -4q25 0 56.5 24.5t59.5 53.5
q-21 4 -40.5 16.5t-33.5 30.5t-22.5 40t-8.5 44q0 8 1.5 18t2.5 16zM370 292l41 125q-8 0 -24 2.5t-21 2.5q-17 0 -37 -7.5t-37 -20t-28.5 -29.5t-11.5 -35q0 -22 23 -32t48 -10q11 0 25 1.5t22 2.5z" />
    <glyph glyph-name="dotlessi" unicode="&#x131;" horiz-adv-x="263" 
d="M236 441q0 -31 -33 -123q-5 -12 -19.5 -43t-14.5 -57q0 -9 2.5 -20t6 -22.5t6 -20.5t2.5 -13q0 -18 -15 -52q-39 -88 -101 -88q-32 0 -41.5 26t-9.5 62q0 21 10 63t24 88.5t30.5 90.5t28.5 70q46 99 86 99q19 0 28.5 -17t9.5 -43z" />
    <glyph glyph-name="afii10059" unicode="&#x152;" horiz-adv-x="822" 
d="M711 188q0 7 1 15t1 12q0 94 -94 94q-24 0 -49.5 -1.5t-35.5 -1.5q-15 -91 -44 -154q-6 -14 -9.5 -21.5t-8 -12t-10.5 -8.5t-17 -10q26 -14 49.5 -18.5t71.5 -4.5q79 0 115 40q22 25 30 71zM603 681q22 0 38.5 -11t16.5 -33q0 -8 -8 -32.5t-21 -56.5t-28.5 -67t-29.5 -65
q33 0 64 5t59 5q27 0 53 -12.5t46 -34.5t32 -51.5t12 -62.5q0 -69 -24.5 -126.5t-68 -99.5t-103 -65t-130.5 -23q-41 0 -79.5 9.5t-68.5 25t-48 37t-18 45.5q0 14 16.5 28.5t32.5 14.5q-4 7 -4 22q0 33 16.5 66.5t47.5 91.5q-18 -2 -48 -6.5t-59 -8.5t-51.5 -8t-26.5 -4
q-8 -20 -13.5 -34t-9.5 -22q-11 -26 -20 -37q18 -28 19 -32q7 -15 7 -37q0 -20 -11 -40t-28.5 -36t-38.5 -25.5t-42 -9.5q-27 0 -48.5 18.5t-21.5 43.5q0 6 11.5 35.5t26 65.5t28.5 69.5t19 45.5q1 10 -9 26.5t-10 26.5q0 21 6 29q1 1 11.5 8t30.5 21q51 130 77 184
q52 109 85 109q15 0 31 -16t16 -35q0 -14 -10 -45t-24 -67t-28.5 -69.5t-22.5 -52.5q42 4 106 12q5 1 26.5 4t58.5 8q30 77 55 131.5t45 85.5q34 52 60 52z" />
    <glyph glyph-name="afii10107" unicode="&#x153;" horiz-adv-x="727" 
d="M573 281q-18 0 -45.5 -13t-40.5 -28q-10 -28 -19 -55t-9 -41q0 -17 12.5 -28.5t43.5 -11.5q16 0 34 11.5t33 28t25 36t10 35.5q0 35 -10.5 50.5t-33.5 15.5zM180 187q-3 -11 -4 -35t-5.5 -50.5t-15.5 -51.5t-34 -38q-28 -16 -57 -16q-18 0 -26.5 17t-8.5 35q0 28 6 53
t15 60q-27 0 -43 10.5t-16 32.5q0 21 26 40.5t67 33.5q6 19 19 58t29.5 78t35.5 69t36 32q10 1 24 -3t26 -11t20 -17t6 -21q0 -1 -7.5 -21t-17 -45.5t-18.5 -49t-12 -31.5q50 9 96.5 15t75.5 6q5 12 9 22.5t11 25t17 34.5l25 50q12 23 29 34.5t43 11.5q21 0 31.5 -6.5
t10.5 -28.5q0 -10 -6.5 -28t-15.5 -38.5t-19 -40.5t-17 -35q33 23 67 32.5t73 9.5q19 0 34.5 -10t26 -25.5t16 -35t5.5 -38.5q0 -100 -61 -170q-23 -28 -55 -50t-72 -39q-63 -26 -102 -26q-21 0 -42.5 8.5t-38.5 22.5t-27.5 32t-10.5 38q0 68 20 123q-18 0 -33 -1t-33 -3
t-42 -7t-60 -12z" />
    <glyph glyph-name="afii10058" unicode="&#x160;" horiz-adv-x="784" 
d="M636 423q57 0 114 -48q63 -53 63 -117q0 -141 -72.5 -217.5t-212.5 -76.5q-53 0 -91 29q-37 30 -48.5 77t-11.5 99q0 45 1 67.5t4 46.5t7.5 61.5t11.5 112.5q7 77 9 90q-4 -7 -20 -39t-43 -88q-35 -74 -48 -102q-112 -237 -162 -289q-33 -35 -64 -45q-18 -7 -53 -7
q-26 0 -38.5 30.5t-12.5 69.5q0 23 21.5 31t43.5 15q25 9 49 31.5t47 54t44 68.5t40 75q30 61 59.5 121.5t61.5 120.5q34 62 66.5 92.5t58.5 30.5q40 0 54.5 -19.5t14.5 -59.5v-17q0 -24 -2.5 -61t-5.5 -72.5t-5.5 -62t-2.5 -29.5q17 9 30 14.5t26.5 8t29 3.5t37.5 1z
M510 321q0 -34 -3.5 -66t-3.5 -57q0 -41 11 -73t47 -32q59 0 105 35q54 42 54 118q0 41 -28 64t-84 23q-8 0 -21 -2t-27 -4t-27.5 -4t-22.5 -2z" />
    <glyph glyph-name="afii10106" unicode="&#x161;" horiz-adv-x="667" 
d="M525 263q-18 0 -45.5 -13t-40.5 -28q-10 -28 -19 -55t-9 -41q0 -17 12.5 -28.5t43.5 -11.5q16 0 34 11.5t33 28t25 36t10 35.5q0 35 -10.5 50.5t-33.5 15.5zM208 81q-62 -71 -123 -71q-14 0 -29.5 3.5t-28 10t-21 15t-8.5 18.5q0 13 3 30.5t8.5 34t12 28.5t13.5 14
q1 0 9 -1t18 -2.5l20 -3t16 -1.5q12 0 38.5 21t56 50t54.5 59t34 49q9 18 20 41t24 45t27 38.5t30 21.5q31 10 52 13t49 3q21 0 31.5 -6.5t10.5 -28.5q0 -10 -6.5 -28t-15.5 -38.5t-19 -40.5t-17 -35q33 23 67 32.5t73 9.5q19 0 34.5 -10t26 -25.5t16 -35t5.5 -38.5
q0 -100 -61 -170q-23 -28 -55 -50t-72 -39q-63 -26 -102 -26q-23 0 -44.5 8t-38 21.5t-27 31t-10.5 37.5t5 44.5t12.5 50t16.5 49.5t16 43q-16 -25 -29.5 -46.5t-25.5 -38.5q-38 -56 -66 -87z" />
    <glyph glyph-name="afii10193" unicode="&#x178;" horiz-adv-x="567" 
d="M573 66q0 -10 -8.5 -23.5t-21.5 -25.5t-27 -20.5t-26 -8.5q-35 0 -58.5 20t-38 49t-22 62.5t-9.5 60.5q-41 -44 -62 -65.5t-22 -22.5q-25 -24 -48.5 -42t-45.5 -31q-55 -31 -110 -31q-25 0 -40.5 16.5t-15.5 37.5q0 34 30 134q11 37 18 60t9 31q35 114 69 170
q44 71 94 71q13 0 24 -12t11 -21q-4 -36 -18.5 -69.5t-30.5 -67.5t-30.5 -68t-18.5 -71v-15q0 -20 19 -20q14 0 36.5 17.5t48.5 42t52 51.5t45 46q32 93 75 135q31 31 67 31q19 0 28 -13t9 -34q0 -2 -9 -31t-20 -66.5t-20 -74t-9 -54.5q0 -40 24 -77q12 -19 25.5 -36.5
t26.5 -34.5zM388 -35q0 -84 -64 -169q-56 -75 -87 -75q-8 0 -19.5 8.5t-11.5 14.5q0 12 11 39t23.5 56t23.5 55.5t11 38.5q0 3 -7.5 11t-17 17.5t-17 19.5t-7.5 16q0 7 10.5 21.5t24 29.5t27.5 26.5t21 11.5q33 0 56 -35t23 -86z" />
    <glyph glyph-name="afii10100" unicode="&#x192;" horiz-adv-x="326" 
d="M97 323q-7 0 -15.5 5.5t-16 14t-12.5 18.5t-5 19q0 24 22.5 49.5t54 47t64.5 35t53 13.5q43 0 75.5 -21t32.5 -57q0 -80 -40 -132q-20 -24 -70 -72q-12 -11 -28.5 -24.5t-31 -28.5t-25 -29.5t-10.5 -27.5q0 -12 15 -12q42 0 95.5 30t108.5 62q14 0 22 -10t8 -24
q0 -28 -31 -60.5t-72.5 -60t-83.5 -46t-65 -18.5q-56 0 -96 31q-45 35 -45 84q0 19 12 39.5t32.5 41.5t46.5 43t53 43q61 48 73 66q10 13 10 38q0 7 -12 7t-27.5 -10t-32 -22t-32 -22t-27.5 -10zM515 771q0 -19 -5 -39t-15 -36.5t-24.5 -27.5t-32.5 -11t-44 -7.5t-58 -19
t-66.5 -26t-68.5 -27.5q-5 0 -12 5.5t-14 12.5t-11.5 15t-4.5 12q0 18 18.5 38t47.5 39.5t64 37t67.5 31t59.5 21.5t39 8q60 0 60 -26z" />
    <glyph glyph-name="accent" unicode="&#x2c6;" horiz-adv-x="543" 
d="M604 730q0 -28 -22 -50t-53 -22q-34 0 -55 24t-55 71q-7 -7 -22.5 -23.5t-38.5 -42.5q-65 -74 -94 -74q-19 0 -32.5 18.5t-13.5 35.5q0 16 58 81q10 12 35.5 41.5t55.5 60t57.5 54.5t42.5 24q13 0 26 -13t24.5 -29.5t19.5 -32t11 -20.5l33 -42q23 -29 23 -61z" />
    <glyph glyph-name="Accent" unicode="&#x2dc;" horiz-adv-x="510" 
d="M639 831q0 -25 -14 -47.5t-36 -39.5t-48.5 -27t-51.5 -10q-42 0 -75.5 13t-66.5 39q-19 -21 -33 -33.5t-48 -12.5q-21 0 -37.5 13t-16.5 33q0 18 19 45.5t45 53.5t54 44.5t47 18.5q16 0 36 -11t43 -23.5t47.5 -23.5t48.5 -11q14 0 28 7t21 7q16 0 27 -8.5t11 -26.5z" />
    <glyph glyph-name="FLW268" unicode="&#x401;" horiz-adv-x="482" 
d="M647 658q0 -29 -13.5 -46t-36.5 -26t-54 -12t-66 -3q-52 0 -116 -9l-38 -6l-38 -6q-11 -38 -22.5 -76t-22.5 -76q5 0 35 3.5t65.5 8t65.5 8t35 3.5q27 0 44 -3.5t17 -29.5q0 -67 -151 -98q-23 -5 -58.5 -10t-84.5 -10l-49 -142q5 2 41 8t78 13.5t78 13t42 5.5q52 0 69 -9
q24 -13 24 -54q0 -80 -72 -80q-26 0 -39 5q-30 0 -67 -5t-78.5 -12t-85 -16.5t-85.5 -18.5q-23 0 -39.5 16.5t-16.5 34.5q2 14 60 209q18 62 27.5 99.5t18.5 67.5t21.5 59t37.5 74q-23 0 -39 10t-11 31q4 21 35 40.5t83 33.5t121 22.5t150 8.5h77q58 -1 58 -26zM581 857
q0 -37 -16.5 -58.5t-53.5 -21.5q-64 0 -64 54q0 4 6 19t15.5 31t21.5 28.5t23 12.5q24 0 46 -22t22 -43zM379 859q0 -31 -22 -54t-53 -23q-33 0 -49 13.5t-16 31.5q2 3 12.5 23t27 43.5t28.5 23.5q26 0 51 -23q21 -20 21 -35z" />
    <glyph glyph-name="FLW256" unicode="&#x402;" horiz-adv-x="552" 
d="M309 687q60 8 102.5 13t73 8t52 4.5t39.5 1.5q52 0 75 -17t23 -61q0 -16 -12.5 -32.5t-31.5 -30t-40 -22t-38 -8.5t-27.5 5t-18.5 11.5t-16.5 11.5t-21.5 5q-12 0 -35.5 -2t-46.5 -5t-39.5 -5t-14.5 -2q-5 -17 -11.5 -35.5t-13.5 -38.5q-17 -49 -30 -76q27 15 72 26
t86 11q26 0 49.5 -11.5t41.5 -31.5t29 -48t11 -61q0 -60 -21 -123t-59.5 -114.5t-92 -84.5t-117.5 -33q-74 0 -104 33q-24 27 -24 83q0 12 13.5 26.5t29.5 16.5q21 3 34.5 -3.5t24 -15t21.5 -16.5t29 -8q79 0 118 67q29 50 29 111q0 62 -18 85t-66 23q-69 0 -125 -47
q-8 -48 -15.5 -79t-22.5 -62q-10 -26 -28.5 -50.5t-36.5 -32.5q-32 -18 -57 0.5t-25 61.5q0 37 34 115q11 26 19 43.5t12 27.5q13 30 25.5 60t24.5 61l39 99q-107 -22 -177 -22q-23 0 -41.5 12t-18.5 34q0 60 55 73q24 5 60.5 12t77 14t79.5 13t67 10z" />
    <glyph glyph-name="FLW257" unicode="&#x403;" horiz-adv-x="399" 
d="M13 63q0 48 19 117q2 5 11 34t21.5 66.5t25 74.5t21.5 59q13 32 27 63.5t28 63.5q-9 3 -22 7t-25 9.5t-20.5 13t-8.5 18.5q0 23 15 42.5t40.5 33t58.5 21t69 7.5q12 0 41.5 2.5t63 5.5t63.5 5.5t42 2.5q33 0 54 -3t33 -11t16.5 -22.5t4.5 -38.5q0 -16 -12.5 -32.5
t-31.5 -30t-40 -22t-38 -8.5t-27 5t-18.5 11t-17 11t-21.5 5q-34 0 -60.5 -6t-42.5 -10q-13 -31 -23 -59t-18 -53q-11 -33 -21 -68.5t-18.5 -69.5t-15 -64.5t-10.5 -52.5q-11 -64 -11 -106q0 -40 -22 -66.5t-62 -26.5q-24 0 -46 22t-22 50zM608 912q0 -19 -5 -39t-15 -36.5
t-24.5 -27.5t-32.5 -11t-44.5 -7.5t-57.5 -19t-66 -25.5t-69 -28q-5 0 -12 5.5t-14 12.5t-11.5 14.5t-4.5 12.5q0 27 39 57.5t90 57t99.5 43.5t67.5 17q60 0 60 -26z" />
    <glyph glyph-name="FLW269" unicode="&#x404;" horiz-adv-x="472" 
d="M553 607q0 -16 -7.5 -32t-19.5 -28.5t-26.5 -20t-28.5 -7.5q-3 0 -11 5t-18.5 10.5t-22 10.5t-20.5 5q-85 0 -146 -100q-80 -130 -80 -230q1 -10 2.5 -17t2.5 -12q9 -30 23 -30q1 0 21 7t49 18t63.5 23t63.5 23t49 18t21 7q21 0 30.5 -13.5t9.5 -53.5q0 -23 -27.5 -46.5
t-68.5 -45.5t-88 -41t-86 -33q-94 -33 -115 -33q-41 0 -68 48.5t-27 118.5q0 73 46 190q54 140 132 225q97 109 212 109q8 0 30 -7.5t45 -18.5t41.5 -24t18.5 -25zM211 342q0 30 18.5 46.5t45.5 16.5q7 0 20 -0.5t26 -1.5t24.5 -1.5t17.5 -0.5q34 0 64 8q7 1 21 8
q28 0 47 -10.5t19 -31.5q0 -28 -21 -47t-53 -31t-69 -17t-68 -5q-47 0 -69.5 12t-22.5 55z" />
    <glyph glyph-name="FLW279" unicode="&#x405;" horiz-adv-x="500" 
d="M535 569q0 -29 -12.5 -51t-31.5 -22q-3 0 -15.5 8t-29 18t-33.5 18t-29 8q-37 0 -63 -14.5t-26 -46.5q0 -7 11.5 -28.5t29 -48.5t37 -55.5t35.5 -51t24.5 -34.5t4.5 -6q50 -80 50 -118q0 -62 -32.5 -100t-73.5 -38q-47 0 -92.5 11.5t-91.5 32.5q-34 15 -64 35.5t-52 41.5
t-35 42t-13 38q0 31 14.5 59t32.5 28q34 0 44 -3q22 -7 22 -32q2 -16 21 -39t45.5 -43t53 -34.5t43.5 -14.5q49 0 49 37q0 8 -20 40t-44.5 67.5t-45.5 64.5t-23 32q-47 80 -47 124q0 33 16.5 65t44.5 57t64 40.5t75 15.5t94 -30q63 -34 63 -73z" />
    <glyph glyph-name="FLW271" unicode="&#x406;" horiz-adv-x="335" 
d="M307 592q0 -51 -20 -128q-37 -144 -39 -147q-21 -101 -21 -199q0 -21 -12 -39t-28.5 -30.5t-34 -19.5t-29.5 -7q-23 0 -40 12.5t-17 36.5q6 31 10.5 57t8.5 45q23 117 44.5 205t45.5 173q15 55 39 82t46 27q25 0 36 -21t11 -47z" />
    <glyph glyph-name="FLW270" unicode="&#x407;" horiz-adv-x="335" 
d="M307 592q0 -51 -20 -128q-37 -144 -39 -147q-21 -101 -21 -199q0 -21 -12 -39t-28.5 -30.5t-34 -19.5t-29.5 -7q-23 0 -40 12.5t-17 36.5q6 31 10.5 57t8.5 45q23 117 44.5 205t45.5 173q15 55 39 82t46 27q25 0 36 -21t11 -47zM456 787q0 -37 -16.5 -58.5t-53.5 -21.5
q-64 0 -64 54q0 4 6 19t15.5 31t21.5 28.5t23 12.5q24 0 46 -22t22 -43zM254 789q0 -31 -22 -54t-53 -23q-33 0 -49 13.5t-16 31.5q2 3 12.5 23t27 43.5t28.5 23.5q26 0 51 -23q21 -20 21 -35z" />
    <glyph glyph-name="FLW266" unicode="&#x408;" horiz-adv-x="581" 
d="M701 589q0 -39 -23 -66t-56 -27q-22 0 -49 7t-35 7q-25 -40 -37 -74.5t-24 -85.5q-11 -50 -20.5 -91.5t-19.5 -73.5q-13 -44 -26 -77.5t-26 -56.5q-31 -55 -66 -55q-19 0 -56 10.5t-77.5 25t-77.5 30.5t-55 27q-93 55 -93 119q0 14 11 28t27 25.5t34.5 19t34.5 7.5
q29 0 41 -8.5t12 -20.5q0 -9 -5 -21q-7 -14 9 -27t44 -24.5t62 -20.5t62 -14q16 31 31.5 84.5t30 107.5t26.5 98t21 56q-26 -5 -48.5 -8t-44.5 -3q-44 0 -66 9q-30 12 -30 42q0 48 56.5 70.5t149.5 22.5q10 0 33 3t52.5 7t62 7t60.5 3q12 0 25 -5.5t24 -14t18.5 -19.5
t7.5 -23z" />
    <glyph glyph-name="FLW348" unicode="&#x409;" horiz-adv-x="784" 
d="M636 423q57 0 114 -48q63 -53 63 -117q0 -141 -72.5 -217.5t-212.5 -76.5q-53 0 -91 29q-37 30 -48.5 77t-11.5 99q0 45 1 67.5t4 46.5t7.5 61.5t11.5 112.5q7 77 9 90q-4 -7 -20 -39t-43 -88q-35 -74 -48 -102q-112 -237 -162 -289q-33 -35 -64 -45q-18 -7 -53 -7
q-26 0 -38.5 30.5t-12.5 69.5q0 23 21.5 31t43.5 15q25 9 49 31.5t47 54t44 68.5t40 75q30 61 59.5 121.5t61.5 120.5q34 62 66.5 92.5t58.5 30.5q40 0 54.5 -19.5t14.5 -59.5v-17q0 -24 -2.5 -61t-5.5 -72.5t-5.5 -62t-2.5 -29.5q17 9 30 14.5t26.5 8t29 3.5t37.5 1z
M510 321q0 -34 -3.5 -66t-3.5 -57q0 -41 11 -73t47 -32q59 0 105 35q54 42 54 118q0 41 -28 64t-84 23q-8 0 -21 -2t-27 -4t-27.5 -4t-22.5 -2z" />
    <glyph glyph-name="FLW346" unicode="&#x40a;" horiz-adv-x="822" 
d="M711 188q0 7 1 15t1 12q0 94 -94 94q-24 0 -49.5 -1.5t-35.5 -1.5q-15 -91 -44 -154q-6 -14 -9.5 -21.5t-8 -12t-10.5 -8.5t-17 -10q26 -14 49.5 -18.5t71.5 -4.5q79 0 115 40q22 25 30 71zM603 681q22 0 38.5 -11t16.5 -33q0 -8 -8 -32.5t-21 -56.5t-28.5 -67t-29.5 -65
q33 0 64 5t59 5q27 0 53 -12.5t46 -34.5t32 -51.5t12 -62.5q0 -69 -24.5 -126.5t-68 -99.5t-103 -65t-130.5 -23q-41 0 -79.5 9.5t-68.5 25t-48 37t-18 45.5q0 14 16.5 28.5t32.5 14.5q-4 7 -4 22q0 33 16.5 66.5t47.5 91.5q-18 -2 -48 -6.5t-59 -8.5t-51.5 -8t-26.5 -4
q-8 -20 -13.5 -34t-9.5 -22q-11 -26 -20 -37q18 -28 19 -32q7 -15 7 -37q0 -20 -11 -40t-28.5 -36t-38.5 -25.5t-42 -9.5q-27 0 -48.5 18.5t-21.5 43.5q0 6 11.5 35.5t26 65.5t28.5 69.5t19 45.5q1 10 -9 26.5t-10 26.5q0 21 6 29q1 1 11.5 8t30.5 21q51 130 77 184
q52 109 85 109q15 0 31 -16t16 -35q0 -14 -10 -45t-24 -67t-28.5 -69.5t-22.5 -52.5q42 4 106 12q5 1 26.5 4t58.5 8q30 77 55 131.5t45 85.5q34 52 60 52z" />
    <glyph glyph-name="FLW259" unicode="&#x40b;" horiz-adv-x="605" 
d="M513 165q-1 -11 -0.5 -29.5t2 -35.5t3 -28.5t1.5 -8.5q0 -43 -16 -57.5t-62 -14.5q-13 0 -25 6.5t-21 16.5t-14.5 22.5t-5.5 23.5q0 19 14 67q11 37 18.5 60t12 39.5t6.5 29t2 28.5q0 32 -16 46t-49 14q-69 0 -125 -47q-4 -26 -8 -52.5t-8 -52.5q-5 -32 -11.5 -55.5
t-13.5 -37.5q-10 -26 -28.5 -50.5t-36.5 -32.5q-32 -18 -57 0t-25 62q0 35 25 119q11 37 22 68t21 56q13 30 25.5 60t24.5 61l39 99q-107 -22 -177 -22q-23 0 -41.5 12t-18.5 34q0 60 55 73q24 5 60.5 12t77 14t79.5 13t67 10q60 8 102.5 13t73 8t52 4.5t39.5 1.5
q52 0 75 -17t23 -61q0 -16 -12.5 -32.5t-31.5 -30t-40 -22t-38 -8.5t-27.5 5t-18.5 11.5t-16.5 11.5t-21.5 5q-12 0 -35.5 -2t-46.5 -5t-39.5 -5t-14.5 -2q-5 -17 -11.5 -35.5t-13.5 -38.5q-17 -49 -30 -76q25 14 72.5 21.5t94.5 7.5q53 0 76.5 -34t23.5 -88v-19
q0 -20 -4.5 -41t-10 -39.5t-10.5 -33t-6 -21.5z" />
    <glyph glyph-name="FLW258" unicode="&#x40c;" horiz-adv-x="620" 
d="M730 596q0 -40 -25.5 -62.5t-69.5 -28.5q-15 -1 -45.5 -16t-65 -35.5t-67.5 -41.5t-53 -36q20 -28 40.5 -55.5t41.5 -53.5q32 -41 57 -65.5t38 -31.5q23 -10 30 -26.5t7 -45.5q0 -34 -28.5 -56.5t-67.5 -22.5q-14 3 -27 9.5t-29 21.5t-35 39t-43 61q-4 5 -28.5 47
t-70.5 119q-17 -11 -26 -16t-34 -15q-19 -35 -30 -56.5t-24 -49.5q-6 -15 -6 -32q0 -8 3.5 -31t-0.5 -35q-6 -32 -36 -50.5t-65 -18.5q-27 0 -46.5 19t-19.5 51q0 16 22 72q36 94 57 150.5t28 76.5q52 170 95 242q37 64 80 64q16 0 30 -15t14 -33q0 -27 -26 -102
q-11 -29 -21 -58.5t-20 -58.5q1 0 19.5 12t46.5 31t61 41l63 42l52.5 35t29.5 20q97 58 131 58q63 0 63 -63zM755 891q0 -19 -5 -39t-15 -36.5t-24.5 -27.5t-32.5 -11t-44 -7.5t-58 -19t-66.5 -26t-68.5 -27.5q-5 0 -12 5.5t-14 12.5t-11.5 15t-4.5 12q0 18 18.5 38
t47.5 39.5t64 37t67.5 31t59.5 21.5t39 8q60 0 60 -26z" />
    <glyph glyph-name="FLW264" unicode="&#x40e;" 
d="M242 243q-4 7 -16.5 31t-32.5 67q-19 37 -34.5 68t-29.5 50q-15 19 -27.5 32t-21.5 25t-14 27t-5 37q0 39 22 64t60 25q25 0 56.5 -37.5t63.5 -111.5q20 -47 33.5 -79.5t20.5 -49.5q18 42 35.5 84.5t36.5 84.5q30 67 58.5 100t47.5 33q22 0 41.5 -15t19.5 -32
q0 -21 -25 -80q-10 -24 -26 -59t-35 -75.5t-39.5 -83.5t-40.5 -84q-32 -67 -55 -110t-35 -62q-29 -45 -58 -72q-34 -33 -71 -45q-27 -9 -67 -9q-12 0 -23.5 11t-20.5 28t-14 37.5t-5 38.5q0 12 9.5 20t24 14t31.5 10.5t31 9.5q24 7 39.5 19.5t27 27t20.5 30.5t18 31z
M556 820q0 -29 -29.5 -54.5t-69.5 -45t-81 -31t-64 -11.5q-70 0 -107 48q-31 40 -31 94q0 25 15 40t50 15q43 0 59.5 -20.5t28.5 -46.5q9 -16 27 -16q88 0 160 49q11 7 20 7q22 0 22 -28z" />
    <glyph glyph-name="FLW260" unicode="&#x40f;" horiz-adv-x="630" 
d="M280 -88q-7 -14 -14 -30.5t-16 -30.5t-21 -23.5t-29 -9.5q-26 0 -36 18q-8 14 -5.5 36t9.5 46t15.5 46t12.5 34q-21 0 -40 -0.5t-37 -0.5q-47 0 -60 3q-38 8 -38 49q0 12 11 52.5t26 90t31 100.5t27 84q16 53 32 107.5t34 106.5t43.5 78t50.5 26q15 0 31 -16t16 -35
q0 -6 -6 -30t-15.5 -57.5t-21.5 -72.5t-23 -75.5t-20.5 -66t-14.5 -44.5q-5 -17 -11.5 -41.5t-13 -48.5t-14.5 -44t-16 -28q10 -1 23.5 -1.5t28.5 -0.5q30 0 70.5 1t86.5 3q13 37 24 68t19 56q15 43 24.5 70.5t13.5 40.5q9 27 18.5 60.5t18.5 65t16.5 59t13.5 42.5
q38 102 96 102q23 0 33 -16.5t10 -52.5q0 -38 -53 -203q-25 -74 -49.5 -148.5t-47.5 -148.5q-6 -18 -10.5 -40.5t-12.5 -42t-21 -33t-34 -13.5q-29 0 -58.5 -0.5t-60.5 -0.5q-6 -16 -9.5 -26.5t-7 -19t-7.5 -18.5t-12 -26z" />
    <glyph glyph-name="FLW282" unicode="&#x410;" horiz-adv-x="555" 
d="M624 353q0 -23 -12 -43t-36 -27q-29 -9 -49 -13.5t-30 -8.5l-1 -61q0 -6 5.5 -15.5t12.5 -20.5t12.5 -22.5t5.5 -23.5q0 -26 -15 -63q-41 -99 -118 -99q-36 0 -46.5 22.5t-10.5 61.5q0 11 3 32.5t7 49t7 58t3 58.5q-50 -20 -79.5 -33t-48.5 -24q-36 -22 -55 -40t-39 -54
q-42 -75 -45 -80q-25 -34 -60 -34q-8 5 -14 9.5l-10 7.5q-17 14 -19 29.5t3.5 31t15.5 31t16 27.5q26 51 64.5 118t87.5 150q130 215 180 275q37 45 70 45t50.5 -21t17.5 -87l-1 -202q14 2 27.5 3.5t26.5 1.5q35 0 55.5 -9t18.5 -30zM360 490l-93 -162q4 2 20.5 6t34.5 9
t31.5 8t10.5 1q0 8 0.5 19.5t0.5 23t0.5 20.5t0.5 12q0 22 -1 37t-5 26z" />
    <glyph glyph-name="FLW283" unicode="&#x411;" horiz-adv-x="552" 
d="M447 236q0 62 -18 85t-66 23q-69 0 -125 -47q-4 -26 -7.5 -44t-7.5 -32t-9 -27.5t-13 -29.5q-6 -14 -9.5 -21.5t-8 -12t-10.5 -8.5t-17 -10q26 -14 49.5 -18.5t71.5 -4.5q82 0 130 51q40 43 40 96zM435 449q26 0 49.5 -11.5t41.5 -31.5t29 -48t11 -61q0 -69 -28 -130
t-75.5 -106.5t-109.5 -71.5t-131 -26q-41 0 -79.5 9.5t-68.5 25t-48 37t-18 45.5q0 14 16.5 28.5t32.5 14.5q-5 10 -5 24q0 16 7 38t17 46t21.5 47.5t20.5 42.5q13 30 25.5 60t24.5 61l39 99q-9 3 -22 7t-25 9.5t-20.5 13t-8.5 18.5q0 23 15 42.5t40.5 33t58.5 21t69 7.5
q10 0 47 3t79 6t79 6t47 3q33 0 54 -3t33 -11t16.5 -22.5t4.5 -38.5q0 -16 -12.5 -32.5t-31.5 -30t-40 -22t-38 -8.5t-27.5 5t-18.5 11.5t-16.5 11.5t-21.5 5q-12 0 -35.5 -2t-46.5 -5t-39.5 -5t-14.5 -2q-5 -17 -11.5 -35.5t-13.5 -38.5q-17 -49 -30 -76q27 15 72 26t86 11
z" />
    <glyph glyph-name="FLW284" unicode="&#x412;" horiz-adv-x="572" 
d="M594 603q0 -34 -8 -68t-28 -60q-21 -29 -36.5 -47.5t-23.5 -28.5q45 -19 62.5 -46t17.5 -79q0 -135 -108 -225q-104 -86 -248 -86q-41 0 -79.5 9.5t-68.5 25t-48 37t-18 45.5q0 14 16.5 28.5t32.5 14.5q-5 10 -5 24q0 16 7 38t17 46t21.5 47.5t20.5 42.5q13 30 25.5 60
t24.5 61l39 99q-9 3 -22 7t-25 9.5t-20.5 13t-8.5 18.5q0 27 19.5 48.5t50 36t67 22t70.5 7.5q101 0 146 -9q110 -23 110 -91zM449 543q2 11 -12 17t-36 6q-17 0 -28.5 -2t-36.5 -7l-54 -129q50 13 76.5 20t28.5 8q51 24 62 87zM452 197q1 6 1 13v10q0 45 -26.5 65.5
t-75.5 28.5q-17 2 -40 3t-51 1h-15q-15 -91 -44 -154q-6 -14 -9.5 -21.5t-8 -12t-10.5 -8.5t-17 -10q26 -14 49.5 -18.5t71.5 -4.5q80 0 130 38q39 32 45 70z" />
    <glyph glyph-name="FLW285" unicode="&#x413;" horiz-adv-x="399" 
d="M13 63q0 48 19 117q2 5 11 34t21.5 66.5t25 74.5t21.5 59q13 32 27 63.5t28 63.5q-9 3 -22 7t-25 9.5t-20.5 13t-8.5 18.5q0 23 15 42.5t40.5 33t58.5 21t69 7.5q12 0 41.5 2.5t63 5.5t63.5 5.5t42 2.5q33 0 54 -3t33 -11t16.5 -22.5t4.5 -38.5q0 -16 -12.5 -32.5
t-31.5 -30t-40 -22t-38 -8.5t-27 5t-18.5 11t-17 11t-21.5 5q-34 0 -60.5 -6t-42.5 -10q-13 -31 -23 -59t-18 -53q-11 -33 -21 -68.5t-18.5 -69.5t-15 -64.5t-10.5 -52.5q-11 -64 -11 -106q0 -40 -22 -66.5t-62 -26.5q-24 0 -46 22t-22 50z" />
    <glyph glyph-name="FLW286" unicode="&#x414;" horiz-adv-x="642" 
d="M412 294q4 47 7.5 79.5t5.5 58t4.5 47t5.5 46.5q-11 -17 -24.5 -38.5t-26.5 -42.5t-24 -38.5t-16 -26.5q-12 -20 -34.5 -63.5t-44.5 -88t-38.5 -77t-15.5 -31.5q6 0 34 1t60 2t59.5 2t33.5 1q2 21 4.5 64t9.5 105zM615 51q0 -7 -8.5 -31.5t-19.5 -54t-23 -57t-18 -41.5
q-17 -41 -31 -58t-34 -17q-55 0 -55 42q0 9 3.5 26t9.5 39t13 46l14 48h-386q-7 -13 -15 -30t-18 -40q-11 -26 -17 -40.5t-7 -15.5q-5 -13 -9.5 -26.5t-11 -24t-17.5 -17.5t-29 -7q-28 0 -36.5 11t-8.5 40q0 18 17 73.5t46 134.5q15 41 44.5 60.5t60.5 19.5q18 0 39 40
t47 89q17 32 40 74t51 94q35 64 54.5 100t24.5 44q44 78 79 116q44 48 80 48q40 0 54 -19.5t14 -57.5v-20q0 -23 -2.5 -54t-5.5 -61t-5.5 -53t-2.5 -30q0 -46 -5 -94.5t-11 -103.5v-113q32 -4 58.5 -24t26.5 -55z" />
    <glyph glyph-name="FLW287" unicode="&#x415;" horiz-adv-x="482" 
d="M647 658q0 -29 -13.5 -46t-36.5 -26t-54 -12t-66 -3q-52 0 -116 -9l-38 -6l-38 -6q-11 -38 -22.5 -76t-22.5 -76q5 0 35 3.5t65.5 8t65.5 8t35 3.5q27 0 44 -3.5t17 -29.5q0 -67 -151 -98q-23 -5 -58.5 -10t-84.5 -10l-49 -142q5 2 41 8t78 13.5t78 13t42 5.5q52 0 69 -9
q24 -13 24 -54q0 -80 -72 -80q-26 0 -39 5q-30 0 -67 -5t-78.5 -12t-85 -16.5t-85.5 -18.5q-23 0 -39.5 16.5t-16.5 34.5q2 14 60 209q18 62 27.5 99.5t18.5 67.5t21.5 59t37.5 74q-23 0 -39 10t-11 31q4 21 35 40.5t83 33.5t121 22.5t150 8.5h77q58 -1 58 -26z" />
    <glyph glyph-name="FLW288" unicode="&#x416;" horiz-adv-x="870" 
d="M357 308q-57 -71 -103.5 -126t-81.5 -93q-75 -81 -108 -81q-43 0 -61.5 16.5t-18.5 57.5q0 36 13 56.5t34 34.5t46.5 26.5t49.5 33.5q37 31 80 76t81 84q-21 35 -32.5 53.5t-13.5 21.5q-19 27 -39 40.5t-36.5 26.5t-27 31t-10.5 54q0 29 23 51t55 22q24 0 55 -33
t62.5 -79t60 -94.5t48.5 -79.5q25 88 38.5 133t14.5 48q40 127 94 127q17 0 32 -17t15 -35q0 -30 -28 -123q-11 -35 -21 -69.5t-21 -69.5q59 59 101 100.5t68 64.5q122 108 169 108q63 0 63 -63q0 -42 -23 -66t-76 -40q-18 -5 -44 -21t-53.5 -37t-55 -44t-48.5 -43
q37 -65 75 -116q58 -79 90 -94q22 -10 29 -27t7 -45q0 -40 -33 -59t-74 -19q-18 2 -37.5 20t-40 45.5t-40 60t-36.5 62.5l-54 96q-6 -5 -13 -8.5t-12 -5.5q-8 -18 -16 -45.5t-14.5 -57t-10.5 -56t-4 -43.5q-7 -32 -36 -50.5t-65 -18.5q-27 0 -46.5 20.5t-19.5 49.5
q0 5 10.5 32t24 62t27 69t19.5 52q-10 7 -16.5 12t-14.5 12z" />
    <glyph glyph-name="FLW289" unicode="&#x417;" horiz-adv-x="480" 
d="M519 249q0 -102 -98 -179q-91 -71 -185 -71q-112 0 -180 51q-51 39 -51 73q0 38 16.5 60.5t45.5 22.5q22 0 41.5 -13t41 -28.5t45.5 -28.5t55 -13q26 0 50 10.5t43 27.5t30.5 40t11.5 48q0 74 -69 74q-2 0 -11.5 -1.5t-20.5 -4t-21.5 -4t-15.5 -1.5q-42 0 -42 61
q0 15 16.5 35t39.5 26q21 6 45.5 16t44.5 23.5t33.5 29.5t13.5 35q0 28 -15 37t-44 9q-40 0 -98 -43q-29 -20 -51 -20q-20 0 -29 17.5t-9 45.5q0 32 42 65q62 48 172 48q74 0 116 -42q37 -37 37 -88q0 -76 -37 -117q-20 -22 -75 -51q47 -13 79.5 -57t32.5 -93z" />
    <glyph glyph-name="FLW290" unicode="&#x418;" horiz-adv-x="598" 
d="M501 409q-6 -6 -27.5 -29t-50.5 -55.5t-62.5 -69.5t-65.5 -71.5t-57.5 -62t-39.5 -40.5q-92 -90 -125 -90q-28 0 -49.5 18.5t-21.5 43.5q0 18 29 100q13 35 25.5 71t25.5 71q2 5 14.5 48.5t29 97t32.5 103t25 67.5q31 64 70 64q14 0 30.5 -15.5t16.5 -34.5
q0 -30 -50 -188q-7 -23 -20 -63t-33 -96l-26 -72q28 29 55.5 59t55.5 60q23 25 62 66.5t80 86.5t77 86.5t54 67.5q14 22 26.5 28t30.5 6h17q25 0 34 -20.5t9 -48.5q0 -26 -12 -68.5t-28 -88t-32.5 -89t-25.5 -70.5q-35 -105 -35 -121q0 -9 10 -30t10 -33q0 -46 -37.5 -69
t-87.5 -23q-26 0 -44 16t-18 39q0 28 41 137q17 46 39.5 99t48.5 113z" />
    <glyph glyph-name="FLW291" unicode="&#x419;" horiz-adv-x="653" 
d="M501 409q-6 -6 -27.5 -29t-50.5 -55.5t-62.5 -69.5t-65.5 -71.5t-57.5 -62t-39.5 -40.5q-92 -90 -125 -90q-28 0 -49.5 18.5t-21.5 43.5q0 18 29 100q13 35 25.5 71t25.5 71q2 5 14.5 48.5t29 97t32.5 103t25 67.5q31 64 70 64q14 0 30.5 -15.5t16.5 -34.5
q0 -30 -50 -188q-7 -23 -20 -63t-33 -96l-26 -72q28 29 55.5 59t55.5 60q23 25 62 66.5t80 86.5t77 86.5t54 67.5q14 22 26.5 28t30.5 6h17q25 0 34 -20.5t9 -48.5q0 -26 -12 -68.5t-28 -88t-32.5 -89t-25.5 -70.5q-35 -105 -35 -121q0 -9 10 -30t10 -33q0 -46 -37.5 -69
t-87.5 -23q-26 0 -44 16t-18 39q0 28 41 137q17 46 39.5 99t48.5 113zM703 826q0 -29 -29.5 -55t-69.5 -45.5t-81 -30.5t-64 -11q-70 0 -107 48q-31 40 -31 94q0 25 15 40t50 15q44 0 60 -20.5t28 -46.5q9 -16 27 -16q88 0 160 49q11 7 20 7q22 0 22 -28z" />
    <glyph glyph-name="FLW292" unicode="&#x41a;" horiz-adv-x="620" 
d="M730 596q0 -40 -25.5 -62.5t-69.5 -28.5q-15 -1 -45.5 -16t-65 -35.5t-67.5 -41.5t-53 -36q20 -28 40.5 -55.5t41.5 -53.5q32 -41 57 -65.5t38 -31.5q23 -10 30 -26.5t7 -45.5q0 -34 -28.5 -56.5t-67.5 -22.5q-14 3 -27 9.5t-29 21.5t-35 39t-43 61q-4 5 -28.5 47
t-70.5 119q-17 -11 -26 -16t-34 -15q-19 -35 -30 -56.5t-24 -49.5q-6 -15 -6 -32q0 -8 3.5 -31t-0.5 -35q-6 -32 -36 -50.5t-65 -18.5q-27 0 -46.5 19t-19.5 51q0 16 22 72q36 94 57 150.5t28 76.5q52 170 95 242q37 64 80 64q16 0 30 -15t14 -33q0 -27 -26 -102
q-11 -29 -21 -58.5t-20 -58.5q1 0 19.5 12t46.5 31t61 41l63 42l52.5 35t29.5 20q97 58 131 58q63 0 63 -63z" />
    <glyph glyph-name="FLW293" unicode="&#x41b;" horiz-adv-x="550" 
d="M137 29q-33 -35 -64 -45q-18 -7 -53 -7q-26 0 -38.5 30.5t-12.5 69.5q0 23 21.5 31t43.5 15q25 9 49 31.5t47 54t44 68.5t40 75q30 61 59.5 121.5t61.5 120.5q34 62 66.5 92.5t58.5 30.5q40 0 54.5 -19.5t14.5 -59.5v-17q0 -22 -2.5 -54t-6 -63.5t-6 -58t-2.5 -37.5
q0 -51 -3.5 -108.5t-5.5 -101.5q0 -7 7.5 -20.5t16.5 -28.5t16.5 -30.5t7.5 -27.5q0 -48 -34 -81t-87 -33q-36 0 -46.5 22.5t-10.5 61.5v38.5t0.5 40.5t2.5 50.5t6 68.5q1 6 5.5 55.5t13.5 142.5q7 77 9 90q-4 -7 -20 -39t-43 -88q-35 -74 -48 -102q-112 -237 -162 -289z
" />
    <glyph glyph-name="FLW294" unicode="&#x41c;" horiz-adv-x="861" 
d="M236 353q14 33 29.5 91t37 114.5t50.5 98t69 41.5q50 0 62 -31t12 -87q0 -15 -1.5 -45t-3.5 -68.5t-4 -82.5l-4 -88q0 -5 1 -4.5t4 0.5t18 19.5t36.5 49.5t46 66t47 68t38.5 55.5t21 29.5q78 102 106 102q41 0 54.5 -30.5t13.5 -71.5q0 -34 -11 -85.5t-24 -105.5
t-24 -104.5t-11 -84.5q0 -20 4.5 -28.5t9.5 -14.5t9.5 -15.5t4.5 -32.5q0 -42 -24.5 -73t-67.5 -31t-58.5 36.5t-15.5 84.5q0 19 7 58t16 83.5t18 86.5t13 67q-20 -29 -40 -59t-40 -59q-36 -53 -65 -93t-51 -67q-66 -81 -91 -81q-39 0 -51.5 28t-12.5 71v65.5t0.5 70t1.5 65
t4 50.5q-26 -60 -49 -109.5t-42 -89.5q-25 -51 -42.5 -89t-36.5 -65t-42 -45t-59 -30q-27 -9 -67 -9q-26 0 -38.5 30.5t-12.5 69.5q0 11 8.5 19t21 13.5t27.5 9.5t28 8q26 8 50.5 31.5t46.5 55.5t40.5 69t32.5 72z" />
    <glyph glyph-name="FLW295" unicode="&#x41d;" horiz-adv-x="577" 
d="M636 600q0 -29 -12.5 -72t-30 -89t-36 -89t-29.5 -73q-38 -102 -38 -123q0 -8 10 -25t10 -30q0 -48 -36 -70t-89 -22q-26 0 -44 16t-18 39q0 9 10.5 40t25 67t28 70.5t19.5 51.5q-18 -2 -48 -6.5t-59 -8.5t-51.5 -8t-26.5 -4q-8 -20 -13.5 -34t-9.5 -22q-11 -26 -20 -37
q18 -28 19 -32q7 -15 7 -37q0 -20 -11 -40t-28.5 -36t-38.5 -25.5t-42 -9.5q-27 0 -48.5 18.5t-21.5 43.5q0 6 11.5 35.5t26 65.5t28.5 69.5t19 45.5q1 10 -9 26.5t-10 26.5q0 21 6 29q1 1 11.5 8t30.5 21q51 130 77 184q52 109 85 109q15 0 31 -16t16 -35q0 -14 -10 -45
t-24 -67t-28.5 -69.5t-22.5 -52.5q42 4 106 12q5 1 26.5 4t58.5 8q10 20 26.5 62t28.5 78q15 43 27 69t24.5 39.5t26.5 17.5t32 4q17 0 24.5 -13t7.5 -29q0 -10 -2 -24t-2 -16z" />
    <glyph glyph-name="FLW296" unicode="&#x41e;" horiz-adv-x="498" 
d="M587 555q0 -172 -79 -311q-34 -61 -78.5 -109t-99.5 -85q-99 -66 -186 -66q-24 0 -45.5 11.5t-37.5 30.5t-25 44.5t-9 54.5q0 114 9 167q15 90 68 184q68 118 144 168q52 34 116 34q17 0 30.5 -1.5t30.5 -3.5q7 26 12.5 33t26.5 7q16 0 37.5 -19.5t40.5 -45.5t32 -52.5
t13 -40.5zM454 473q0 33 -28.5 52.5t-81.5 19.5q-97 0 -157 -156q-44 -115 -44 -192q0 -34 18 -57t45 -23q104 0 181 126q67 110 67 230z" />
    <glyph glyph-name="FLW297" unicode="&#x41f;" horiz-adv-x="530" 
d="M467 571q-1 0 -22.5 -2t-46.5 -4t-46.5 -4t-22.5 -2q-22 -52 -43.5 -114.5t-40.5 -119.5q-11 -31 -22.5 -60.5t-22.5 -58.5q-8 -19 -19.5 -46.5t-27.5 -65.5q-18 -44 -34.5 -69t-47.5 -25q-56 0 -56 63q0 6 8 29t20.5 54.5t27 67.5t28 68.5t23.5 57t13 32.5l63 176
q-28 -3 -45.5 11.5t-17.5 44.5q0 22 18.5 42.5t44.5 25.5q24 5 61 9t80.5 7t89 5t87.5 2q75 0 99.5 -15t24.5 -44q0 -25 -14.5 -38t-41.5 -18q-14 -40 -27 -79t-27 -79q-16 -48 -30 -91.5t-26 -82.5q-27 -88 -27 -107q0 -8 10 -26t10 -30q0 -47 -36.5 -69.5t-88.5 -22.5
q-26 0 -44 16t-18 39q0 14 17.5 69t53.5 149l58 152t58 153z" />
    <glyph glyph-name="FLW298" unicode="&#x420;" horiz-adv-x="461" 
d="M556 548q0 -76 -67 -150q-37 -41 -86.5 -73t-112.5 -58q-28 -12 -55 -24.5t-54 -24.5l-25 -169q-4 -25 -26 -43.5t-62 -18.5q-22 0 -39 19t-17 45q6 22 13 47t14 53q11 39 18 67.5t11 45.5q9 35 21.5 77.5t28.5 89.5t33 97t35 99q5 13 31.5 27.5t59.5 27t65.5 20.5
t48.5 8q48 0 102 -45q63 -53 63 -117zM415 515q0 33 -15.5 48.5t-55.5 15.5q-52 0 -80 -55q-10 -19 -19.5 -43t-18.5 -49t-15.5 -49.5t-10.5 -43.5q27 10 52.5 21.5t48.5 26.5q47 31 75 60q39 39 39 68z" />
    <glyph glyph-name="FLW299" unicode="&#x421;" horiz-adv-x="472" 
d="M553 607q0 -16 -7.5 -32t-19.5 -28.5t-26.5 -20t-28.5 -7.5q-3 0 -11 5t-18.5 10.5t-22 10.5t-20.5 5q-85 0 -146 -100q-80 -130 -80 -230q1 -10 2.5 -17t2.5 -12q9 -30 23 -30q1 0 21 7t49 18t63.5 23t63.5 23t49 18t21 7q21 0 30.5 -13.5t9.5 -53.5q0 -23 -27.5 -46.5
t-68.5 -45.5t-88 -41t-86 -33q-94 -33 -115 -33q-41 0 -68 48.5t-27 118.5q0 73 46 190q54 140 132 225q97 109 212 109q8 0 30 -7.5t45 -18.5t41.5 -24t18.5 -25z" />
    <glyph glyph-name="FLW300" unicode="&#x422;" horiz-adv-x="468" 
d="M608 620q0 -17 -8.5 -33.5t-22 -30t-29.5 -22t-31 -8.5q-6 0 -13.5 6t-16.5 14t-18.5 14t-19.5 6h-75q-33 -116 -56 -199.5t-37 -144.5q-5 -21 -6.5 -42.5t-1.5 -31.5q0 -11 1 -37t-4.5 -52.5t-21.5 -47t-49 -20.5q-29 0 -54.5 24.5t-25.5 57.5q0 12 8 43.5t19.5 71
t25.5 83t26 80t20 61t9 26.5l37 117q-12 -4 -40 -9.5t-58.5 -11t-58.5 -9t-41 -3.5q-23 0 -41.5 12t-18.5 35q0 25 9.5 39.5t23 23t29 12t28.5 5.5q38 6 62 10t50.5 8.5t63 10.5t99.5 16q59 10 92 14.5t38 4.5q51 0 79 -22.5t28 -70.5z" />
    <glyph glyph-name="FLW301" unicode="&#x423;" 
d="M242 243q-4 7 -16.5 31t-32.5 67q-19 37 -34.5 68t-29.5 50q-15 19 -27.5 32t-21.5 25t-14 27t-5 37q0 39 22 64t60 25q25 0 56.5 -37.5t63.5 -111.5q20 -47 33.5 -79.5t20.5 -49.5q18 42 35.5 84.5t36.5 84.5q30 67 58.5 100t47.5 33q22 0 41.5 -15t19.5 -32
q0 -21 -25 -80q-10 -24 -26 -59t-35 -75.5t-39.5 -83.5t-40.5 -84q-32 -67 -55 -110t-35 -62q-29 -45 -58 -72q-34 -33 -71 -45q-27 -9 -67 -9q-12 0 -23.5 11t-20.5 28t-14 37.5t-5 38.5q0 12 9.5 20t24 14t31.5 10.5t31 9.5q24 7 39.5 19.5t27 27t20.5 30.5t18 31z" />
    <glyph glyph-name="FLW302" unicode="&#x424;" horiz-adv-x="690" 
d="M652 379q0 75 -36 103t-106 28q-3 -15 -11.5 -44.5t-17.5 -58t-15.5 -48.5t-6.5 -15q-9 -33 -14.5 -53t-7.5 -27q-5 -17 -11 -36.5t-13 -40.5q85 0 164 70q75 66 75 122zM255 473q-20 -12 -38.5 -32t-33 -44t-23.5 -50t-9 -50q0 -20 15 -37.5t36.5 -30.5t45.5 -20.5
t43 -7.5q9 32 21 72.5t24.5 82.5t25 82t23.5 70q-51 -8 -77.5 -14t-52.5 -21zM16 283q0 30 7.5 61.5t21 61t30.5 55t37 42.5q50 45 136 80q94 39 173 39q8 21 13.5 49t14 53t21 42.5t35.5 17.5q34 0 50.5 -15t16.5 -34q0 -20 -7.5 -49t-20.5 -64q88 -9 154 -32
q48 -18 68 -56t20 -92q0 -135 -114 -242q-118 -111 -282 -111q-2 -7 -7.5 -26t-13.5 -50q-22 -88 -47 -88q-12 0 -28.5 3.5t-31.5 9.5t-25.5 14.5t-10.5 19.5q0 12 0.5 23t2 23.5t4.5 30t9 42.5q-94 14 -154 59q-72 54 -72 133z" />
    <glyph glyph-name="FLW303" unicode="&#x425;" horiz-adv-x="538" 
d="M581 646q0 -3 -26 -37t-59 -77t-64.5 -83.5t-43.5 -57.5q23 -42 43.5 -81.5t36.5 -77.5q46 -104 46 -157q0 -41 -18.5 -62.5t-60.5 -21.5q-14 0 -27.5 9t-19.5 27q-8 27 -13.5 45.5t-11 34.5t-11.5 32t-16 38q-24 52 -47 83q-12 -17 -38 -52.5t-52.5 -71.5t-46.5 -62.5
l-20 -26.5q-8 -17 -14 -30.5t-14.5 -23t-23.5 -14.5t-41 -5q-30 0 -43.5 22.5t-11.5 45.5q0 12 27.5 51.5t66 88t79.5 97.5t69 81q-16 33 -54 93q-73 116 -73 132q1 13 9.5 28.5t20.5 28.5t25.5 21.5t26.5 6.5q11 0 30.5 -22.5t40.5 -52.5t39.5 -60.5t27.5 -47.5
q15 20 45 57t62.5 73t61.5 63t42 27q9 0 18.5 -6t17.5 -15.5t12.5 -20t2.5 -19.5z" />
    <glyph glyph-name="FLW304" unicode="&#x426;" horiz-adv-x="654" 
d="M493 494q10 37 18 63t13 42q38 102 96 102q23 0 33 -16.5t10 -52.5q0 -28 -12.5 -72t-29.5 -91t-35 -92t-28 -75q-41 -119 -48 -166q49 -5 63 -20.5t14 -49.5q0 -7 -7.5 -43.5t-22 -77t-35 -73.5t-47.5 -33q-55 0 -63 42q0 2 3.5 18.5t9 37t10 39.5t5.5 26
q-37 0 -85.5 -0.5t-108.5 -1.5q-43 0 -75.5 -1.5t-62.5 -1.5q-48 0 -67.5 10t-19.5 42q0 12 11 52.5t26 90t31 100.5t27 84q16 53 32 107.5t34 106.5t43.5 78t50.5 26q15 0 31 -16t16 -35q0 -6 -6 -30t-15.5 -57.5t-21.5 -72.5t-23 -75.5t-20.5 -66t-14.5 -44.5
q-5 -17 -11.5 -41.5t-13 -48.5t-14.5 -44t-16 -28q10 -1 23.5 -1.5t28.5 -0.5q30 0 70.5 1t86.5 3q13 37 24 68t19 56q15 43 24.5 70.5t13.5 40.5q9 28 18 58t18 64z" />
    <glyph glyph-name="FLW305" unicode="&#x427;" horiz-adv-x="483" 
d="M572 625q-15 -43 -38 -104.5t-45.5 -126t-38.5 -124t-16 -99.5q0 -12 9.5 -28t9.5 -26q0 -41 -24 -71q-31 -39 -96 -39q-25 0 -43.5 16.5t-18.5 38.5q0 46 22.5 108t50.5 133q-28 -18 -49.5 -30.5t-41 -20t-39.5 -10.5t-46 -3q-44 0 -75 22t-31 65q0 26 4 59t11 68.5
t17 71t22 65.5q16 41 43.5 63t53.5 22q6 0 12.5 -6.5t12 -16t8.5 -21t0 -20.5q-22 -80 -39 -132.5t-17 -78.5q0 -25 10 -38t36 -13t63.5 21t79.5 49q13 36 26.5 72t28.5 73q24 58 46 78.5t63 20.5q17 0 23 -9.5t6 -28.5z" />
    <glyph glyph-name="FLW306" unicode="&#x428;" horiz-adv-x="924" 
d="M500 101h188q20 59 36.5 124l33 130t36.5 127.5t47 116.5q24 48 70 48q44 0 44 -69q0 -11 -7.5 -43.5t-19 -76.5t-25.5 -94.5t-27.5 -97.5t-25.5 -85.5t-18 -58.5q-8 -23 -13.5 -46t-16 -41.5t-28.5 -30t-49 -11.5h-259q-102 0 -183.5 -11t-160.5 -24q-46 0 -70.5 10
t-24.5 37q0 6 6 29t15 54.5t20 68t21.5 71t19.5 62t13 41.5q16 53 32 107t34 107q18 52 43.5 78t50.5 26q14 0 30.5 -15.5t16.5 -34.5q0 -13 -11.5 -55.5t-27 -95t-33 -106t-29.5 -89.5q-7 -21 -15 -46.5t-16.5 -49.5t-16.5 -44.5t-14 -31.5q49 6 100 13t96 7
q41 109 62.5 166t22.5 62q23 68 42 139q15 56 29.5 90.5t29 54.5t30.5 27t36 7q44 0 44 -69q0 -24 -13 -65.5t-31 -86.5t-36 -87t-28 -69q-21 -60 -33.5 -102t-16.5 -67z" />
    <glyph glyph-name="FLW307" unicode="&#x429;" horiz-adv-x="883" 
d="M462 112h198q10 32 20 65l20 66q3 9 13 42.5t21.5 74t22 78.5t15.5 56q14 53 23 82.5t11 34.5q22 48 70 48q44 0 44 -69q0 -26 -10 -66.5t-24 -85.5t-28 -87.5t-22 -70.5q-32 -116 -42 -168q42 0 61 -12.5t19 -55.5q0 -22 -14 -66t-33 -86q-31 -75 -65 -75q-57 0 -64 43
q-1 8 2 23t7.5 32.5t10 35t9.5 30.5q-46 5 -116.5 8.5t-146.5 3.5q-42 0 -90.5 -4t-99.5 -9t-103 -9t-102 -4q-41 0 -54 6q-23 11 -23 43q0 9 14.5 63.5t38 133.5t52 170t56.5 174q18 52 43.5 78t50.5 26q14 0 30.5 -15.5t16.5 -34.5q0 -13 -11.5 -55.5t-27 -95t-33 -106.5
t-29.5 -90q-6 -20 -15 -44.5t-18 -48.5l-16.5 -44t-10.5 -30q-1 0 23.5 2.5t57.5 5t65.5 5t46.5 2.5l64 184l64 184q15 56 29.5 90.5t29 54.5t31 27t35.5 7q23 0 33 -16.5t10 -52.5q0 -27 -12 -68t-28.5 -85.5t-34 -87.5t-28.5 -73q-24 -67 -38.5 -108t-18.5 -56z" />
    <glyph glyph-name="FLW308" unicode="&#x42a;" horiz-adv-x="559" 
d="M452 197q0 7 1 15.5t1 12.5q0 44 -20 69t-57 25q-16 0 -30 -1.5t-25 -1.5t-37 1t-40 1q-15 -91 -44 -154q-6 -14 -9.5 -21.5t-8 -12t-10.5 -8.5t-17 -10q26 -14 49.5 -18.5t71.5 -4.5q80 0 130 38q39 32 45 70zM435 435q27 0 53 -12.5t46 -34.5t32 -51.5t12 -62.5
q0 -135 -108 -225q-104 -86 -248 -86q-41 0 -79.5 9.5t-68.5 25t-48 37t-18 45.5q0 14 16.5 28.5t32.5 14.5q-5 10 -5 24q0 16 7 38t17 46t21.5 47.5t20.5 42.5q13 30 25.5 60t24.5 61l39 99q-47 0 -69 9q-20 8 -24.5 21.5t1 29.5t18 31t26.5 24q55 37 155 37q24 0 36 -2.5
t16 -7.5t3.5 -13.5t-0.5 -20.5q0 -8 -8.5 -32.5t-21 -56.5t-28 -67t-29.5 -65q19 0 42 1t44.5 2.5t39.5 2.5t27 1z" />
    <glyph glyph-name="FLW309" unicode="&#x42b;" horiz-adv-x="750" 
d="M425 197q0 7 1 15.5t1 12.5q0 44 -20 69t-57 25q-15 0 -29.5 -1.5t-24.5 -1.5q-12 0 -38 1t-40 1q-15 -91 -44 -154q-6 -14 -9.5 -21.5t-8 -12t-10.5 -8.5t-17 -10q26 -14 49.5 -18.5t71.5 -4.5q80 0 130 38q39 32 45 70zM408 435q27 0 53 -12.5t46 -34.5t32 -51.5
t12 -62.5q0 -136 -107 -225q-104 -86 -249 -86q-41 0 -79.5 9.5t-68.5 25t-48 37t-18 45.5q0 14 16.5 28.5t32.5 14.5q-5 10 -5 24q0 30 24 84q11 23 22 45t20 45q24 59 47 118.5t48 118.5q57 135 101 135q22 0 38.5 -11t16.5 -33q0 -8 -8 -32.5t-21 -56.5t-28.5 -67
t-29.5 -65q19 0 42 1t44.5 2.5t39.5 2.5t27 1zM858 632q0 -7 -6.5 -30t-16 -52.5t-21 -61t-20.5 -56t-14 -37.5t-3 -5q-17 -50 -28.5 -91.5t-17.5 -73.5q-2 -10 -3 -33t-1 -37v-47q0 -18 -9 -35.5t-23.5 -32t-33 -25.5t-37.5 -15q-12 -3 -23.5 3.5t-19.5 19t-13 29t-5 32.5
q0 32 11 78.5t26.5 97t33.5 97.5t32 78q17 41 34.5 81.5t35.5 80.5q20 43 39 64.5t33 21.5q26 0 38 -14t12 -37z" />
    <glyph glyph-name="FLW310" unicode="&#x42c;" horiz-adv-x="538" 
d="M432 197q0 7 1 15.5t1 12.5q0 44 -20 69t-57 25q-15 0 -29.5 -1.5t-24.5 -1.5q-12 0 -38 1t-40 1q-15 -91 -44 -154q-6 -14 -9.5 -21.5t-8 -12t-10.5 -8.5t-17 -10q26 -14 49.5 -18.5t71.5 -4.5q80 0 130 38q39 32 45 70zM415 435q27 0 53 -12.5t46 -34.5t32 -51.5
t12 -62.5q0 -136 -107 -225q-104 -86 -249 -86q-41 0 -79.5 9.5t-68.5 25t-48 37t-18 45.5q0 14 16.5 28.5t32.5 14.5q-5 10 -5 24q0 30 24 84q10 23 21.5 45t20.5 45q24 59 47 118.5t48 118.5q57 135 101 135q22 0 38.5 -11t16.5 -33q0 -8 -8.5 -32.5t-21 -56.5t-28 -67
t-29.5 -65q19 0 42 1t44.5 2.5t39.5 2.5t27 1z" />
    <glyph glyph-name="FLW311" unicode="&#x42d;" horiz-adv-x="507" 
d="M150 -4q-89 0 -135.5 22t-46.5 50q0 10 9 28t22 35.5t27.5 30.5t26.5 13q1 0 16.5 -6.5t35 -14.5t39 -14.5t29.5 -6.5q77 0 162 84q98 98 98 225q0 57 -9 82q-15 42 -58 42q-26 0 -57 -27t-90 -77q-25 -20 -42 -20q-10 0 -22.5 8.5t-24 20.5t-19 26.5t-7.5 26.5
q0 16 18 36.5t46.5 41.5t62.5 41.5t66 36.5t57.5 25.5t37.5 9.5q80 0 120 -40q47 -47 47 -170q0 -133 -60 -251q-46 -90 -123 -166q-54 -53 -104 -72.5t-122 -19.5zM402 344q0 -30 -18.5 -46.5t-45.5 -16.5q-8 0 -20.5 0.5t-25.5 1.5t-24.5 1.5t-17.5 0.5q-34 0 -64 -8
q-8 -1 -21 -8q-28 0 -47 10.5t-19 31.5q0 28 21 47t53 31t68.5 17t68.5 5q47 0 69.5 -12t22.5 -55z" />
    <glyph glyph-name="FLW312" unicode="&#x42e;" horiz-adv-x="820" 
d="M764 459q0 33 -28.5 52.5t-81.5 19.5q-97 0 -157 -156q-44 -115 -44 -192q0 -34 18 -57t45 -23q104 0 181 126q67 110 67 230zM215 264q-8 -20 -13.5 -34t-9.5 -22q-11 -26 -20 -37q18 -28 19 -32q7 -15 7 -37q0 -20 -11 -40t-28.5 -36t-38.5 -25.5t-42 -9.5
q-27 0 -48.5 18.5t-21.5 43.5q0 5 12 36.5t27.5 68.5t29.5 70t17 41q0 6 -3 14t-7 16t-7 14.5t-3 8.5q0 21 18.5 40.5t31.5 41.5q22 104 60 183q40 88 75 88q13 0 29.5 -17.5t16.5 -32.5q-4 -15 -7.5 -27t-5.5 -21q-18 -64 -28.5 -103t-14.5 -53q42 9 84 18.5t81 22.5
q68 118 144 168q52 34 116 34q17 0 30.5 -1.5t30.5 -3.5q6 22 12.5 30.5t27.5 8.5q17 0 38 -19.5t39.5 -45.5t31.5 -52t13 -40q0 -172 -79 -311q-34 -61 -78.5 -109t-99.5 -85q-99 -66 -186 -66q-24 0 -45.5 11.5t-37.5 30.5t-25 44.5t-9 54.5q0 67 2.5 112t12.5 89
q-13 -4 -27 -9t-30 -10q-4 -1 -24 -8.5t-56 -20.5z" />
    <glyph glyph-name="FLW313" unicode="&#x42f;" horiz-adv-x="559" 
d="M232 488q-1 -9 -1.5 -15t-0.5 -9q0 -46 27 -61.5t73 -15.5h113l67 157q-41 23 -122 23q-82 0 -120 -24q-32 -20 -36 -55zM105 411q0 134 99 211q92 72 239 72q42 0 80.5 -9.5t68.5 -25t48 -37t18 -45.5q0 -13 -7.5 -20t-16 -12.5t-16 -11.5t-7.5 -16q0 -18 -15 -51.5
t-27 -58.5l-26 -62t-25 -63q-16 -40 -26 -73t-15 -58q-1 -6 -1.5 -10t-0.5 -6q0 -11 13.5 -32t13.5 -44q0 -16 -15 -29t-36 -22t-44 -14t-38 -5q-29 0 -41.5 20t-12.5 47q0 31 24.5 80.5t68.5 140.5h-78q-38 -59 -89 -120q-29 -34 -56.5 -60.5t-53.5 -45.5q-20 -13 -34 -23
t-26.5 -17t-25.5 -10t-31 -3q-25 0 -41 34t-16 71q0 22 26 34q38 13 75.5 31.5t66.5 40.5q46 34 77 76q-44 10 -70.5 45.5t-26.5 80.5z" />
    <glyph glyph-name="FLW314" unicode="&#x430;" horiz-adv-x="607" 
d="M606 88q-2 -1 -34 -17.5t-94 -47.5q-70 -35 -87 -35q-30 0 -50 18t-20 42q0 31 7 71t10 59q-28 -26 -56 -53t-57 -53q-38 -34 -72 -50.5t-59 -16.5q-38 0 -66.5 26.5t-28.5 56.5q0 41 57 142q62 108 133 184q85 91 149 91q23 0 47 -15.5t24 -40.5q12 16 26 36t35 20
q23 0 38.5 -5.5t15.5 -26.5q0 -17 -5 -42.5t-13 -56t-17.5 -63.5t-18.5 -65q-5 -19 -11 -51.5t-6 -48.5q0 -18 7 -18l26 9t57.5 20.5t58 20.5l26.5 9q22 0 30.5 -8.5t8.5 -26.5q0 -14 -20 -33.5t-41 -30.5zM321 392q-23 0 -55.5 -34.5t-62.5 -79.5t-51 -88.5t-21 -61.5
q42 29 77.5 58t63.5 58q66 68 66 105q1 7 1.5 13t0.5 10q0 20 -19 20z" />
    <glyph glyph-name="FLW315" unicode="&#x431;" horiz-adv-x="428" 
d="M332 328q0 40 -1 70.5t-4.5 59t-10.5 59.5t-18 71q-14 50 -28 81t-14 53q0 24 43.5 44.5t101 35.5t114.5 23.5t84 8.5q30 0 42 -7.5t12 -35.5q0 -20 -16 -32.5t-37 -19.5t-41.5 -10.5t-30.5 -6.5l-68 -20l-68 -20q8 -21 19 -71.5t18 -102.5q6 -44 10 -85t4 -80
q0 -80 -22 -144.5t-61.5 -110.5t-94.5 -70.5t-121 -24.5q-56 0 -92.5 30.5t-36.5 88.5q0 27 6 60t17 66t25.5 64t30.5 54q64 91 106 126q32 26 56 26q14 0 26.5 -11.5t12.5 -26.5q0 -22 -25 -61t-55 -83t-55 -88t-25 -77q0 -21 12 -35t37 -14q56 0 104 78q44 73 44 138z" />
    <glyph glyph-name="FLW316" unicode="&#x432;" horiz-adv-x="497" 
d="M260 453q35 34 65.5 64t55.5 57q24 26 39.5 42t24 28t12 22.5t3.5 24.5q0 15 -11 15q-22 0 -45 -21.5t-46.5 -57t-47.5 -81t-50 -93.5zM402 411q29 0 50.5 -24.5t21.5 -65.5q0 -90 -46 -160q-32 -49 -109 -114q-17 -13 -31 -22.5t-29.5 -14.5t-34.5 -7.5t-45 -2.5
q-50 0 -89.5 25t-39.5 73q0 65 20.5 142.5t53 156.5t71.5 153.5t76 133.5q52 82 124 130.5t146 48.5q51 0 67.5 -28.5t16.5 -79.5q0 -45 -90 -154q-34 -41 -80.5 -91t-105.5 -109l-78 -76t-77 -76q0 -2 -4.5 -12.5t-9.5 -23.5t-9 -25.5t-4 -19.5q0 -20 12.5 -34.5
t36.5 -14.5q57 0 99 61q38 56 38 120q0 18 -7 40t-7 27q0 21 19.5 32.5t43.5 11.5z" />
    <glyph glyph-name="FLW317" unicode="&#x433;" horiz-adv-x="326" 
d="M97 323q-7 0 -15.5 5.5t-16 14t-12.5 18.5t-5 19q0 24 22.5 49.5t54 47t64.5 35t53 13.5q43 0 75.5 -21t32.5 -57q0 -80 -40 -132q-20 -24 -70 -72q-12 -11 -28.5 -24.5t-31 -28.5t-25 -29.5t-10.5 -27.5q0 -12 15 -12q42 0 95.5 30t108.5 62q14 0 22 -10t8 -24
q0 -28 -31 -60.5t-72.5 -60t-83.5 -46t-65 -18.5q-56 0 -96 31q-45 35 -45 84q0 19 12 39.5t32.5 41.5t46.5 43t53 43q61 48 73 66q10 13 10 38q0 7 -12 7t-27.5 -10t-32 -22t-32 -22t-27.5 -10z" />
    <glyph glyph-name="FLW318" unicode="&#x434;" horiz-adv-x="404" 
d="M439 337q-19 -92 -58 -166.5t-101 -126.5q-32 -26 -63 -36t-80 -10q-25 0 -48 11.5t-41 31t-28.5 45.5t-10.5 54q0 63 26 132q10 26 25.5 54t34 54t38.5 49t38 39q55 49 99 49q13 0 25 -11t12 -28q0 -10 -12.5 -25.5t-28.5 -32.5t-33 -33.5t-26 -28.5q-78 -110 -78 -179
q0 -22 13.5 -43t36.5 -21q26 0 45 11t34 31t28.5 49.5t29.5 66.5q6 13 12 39.5t11 56t8 57t3 41.5q0 66 -24 104q-13 19 -63 62q-18 17 -120 66q-42 20 -58 38q-7 7 -7 24q0 22 14 41t36 19q9 0 28.5 -6.5t44 -17.5t50.5 -24.5t47 -28.5q62 -44 102 -111q46 -77 46 -167
v-19.5t1 -22.5q0 -15 -0.5 -25t-1 -19t-2 -18.5t-4.5 -24.5z" />
    <glyph glyph-name="FLW319" unicode="&#x435;" horiz-adv-x="411" 
d="M417 438q0 -45 -6 -66q-5 -18 -17 -40.5t-29 -45t-37.5 -42.5t-42.5 -32q-29 -17 -59.5 -33.5t-59.5 -32.5q2 -12 5.5 -18.5t11.5 -6.5q43 0 113 19t140 40q24 0 24 -34q0 -19 -21.5 -37.5t-55 -35t-73.5 -31t-77 -25t-66.5 -16.5t-41.5 -6q-23 0 -42 14.5t-32.5 36
t-21 47.5t-7.5 49q0 56 25 122.5t67 124t97.5 96t116.5 38.5q40 0 64.5 -23.5t24.5 -61.5zM289 407q-28 0 -53.5 -28t-47.5 -73q-7 -14 -14.5 -32t-16.5 -41q17 8 34 20t35 26q13 10 23.5 20t20.5 20q22 23 30.5 33t8.5 32q-4 9 -9 16t-11 7z" />
    <glyph glyph-name="FLW320" unicode="&#x436;" horiz-adv-x="980" 
d="M282 147q-43 -66 -106.5 -104.5t-131.5 -38.5q-9 0 -17.5 9t-16 22.5t-12 29.5t-4.5 30t18 26.5t45.5 26.5t59.5 30.5t59.5 39t45.5 52t18 69.5q0 18 -6 30t-21 12q-38 0 -64.5 -20t-52.5 -43q-20 0 -30 13t-10 29q0 37 56 90q65 62 137 62q48 0 77.5 -34.5t29.5 -86.5
q0 -21 -6.5 -45t-7.5 -28q14 11 27 21.5t23 20.5q23 21 35 32t13 12q10 8 22 23t28 36q56 78 67 78q30 0 38 -20.5t8 -53.5q0 -17 -8.5 -52t-20 -73.5t-23 -74t-17.5 -51.5q17 18 47 46t63 58t64 56.5t49 41.5q41 33 85 55.5t85 22.5q24 0 47.5 -15.5t23.5 -42.5
q0 -40 -19 -48.5t-63 -8.5q-30 0 -58.5 -23t-50 -55.5t-35 -68.5t-13.5 -62q0 -15 11.5 -28t32.5 -13q27 0 57 4.5t61 15.5q29 11 59 22t59 22q18 0 22 -11.5t4 -23.5q0 -28 -98 -85q-109 -63 -203 -63q-48 0 -80 34t-32 85q0 3 1 17t3 31t4 35.5t3 30.5
q-46 -58 -82.5 -101.5t-64.5 -74.5q-59 -65 -76 -65q-28 0 -47 11.5t-19 37.5q0 15 11.5 51.5t27 79t32.5 83t27 63.5q-13 -10 -39.5 -36t-56 -55t-56 -55t-38.5 -37z" />
    <glyph glyph-name="FLW321" unicode="&#x437;" horiz-adv-x="391" 
d="M128 128q-26 3 -34 15.5t-8 38.5q0 30 7 44t31 20q156 40 156 106q0 23 -11.5 45t-35.5 22q-46 0 -83 -24.5t-74 -49.5q-18 0 -25 10.5t-7 28.5q0 30 18 58t48 49.5t68 34.5t79 13q77 0 121 -53q36 -45 36 -104q0 -88 -75 -141q-52 -36 -131 -49q90 -24 124 -76
q30 -45 30 -118q0 -66 -28.5 -141t-76.5 -138.5t-112 -105t-135 -41.5q-39 0 -74 20.5t-62 52t-43 70t-16 75.5q0 6 9 18t21.5 24.5t26.5 21.5t25 9q12 0 26.5 -27t31.5 -59t36 -59t41 -27q18 0 41.5 13.5t46.5 34t42.5 44t31.5 42.5q46 77 46 173q0 68 -33 99
q-25 23 -79 31z" />
    <glyph glyph-name="FLW322" unicode="&#x438;" horiz-adv-x="567" 
d="M573 66q0 -10 -8.5 -23.5t-21.5 -25.5t-27 -20.5t-26 -8.5q-35 0 -58.5 20t-38 49t-22 62.5t-9.5 60.5q-41 -44 -62 -65.5t-22 -22.5q-25 -24 -48.5 -42t-45.5 -31q-55 -31 -110 -31q-25 0 -40.5 16.5t-15.5 37.5q0 34 30 134q11 37 18 60t9 31q35 114 69 170
q44 71 94 71q13 0 24 -12t11 -21q-4 -36 -18.5 -69.5t-30.5 -67.5t-30.5 -68t-18.5 -71v-15q0 -20 19 -20q14 0 36.5 17.5t48.5 42t52 51.5t45 46q32 93 75 135q31 31 67 31q19 0 28 -13t9 -34q0 -2 -9 -31t-20 -66.5t-20 -74t-9 -54.5q0 -40 24 -77q12 -19 25.5 -36.5
t26.5 -34.5z" />
    <glyph glyph-name="FLW323" unicode="&#x439;" horiz-adv-x="570" 
d="M573 66q0 -10 -8.5 -23.5t-21.5 -25.5t-27 -20.5t-26 -8.5q-35 0 -58.5 20t-38 49t-22 62.5t-9.5 60.5q-41 -44 -62 -65.5t-22 -22.5q-25 -24 -48.5 -42t-45.5 -31q-55 -31 -110 -31q-25 0 -40.5 16.5t-15.5 37.5q0 34 30 134q11 37 18 60t9 31q35 114 69 170
q44 71 94 71q13 0 24 -12t11 -21q-4 -36 -18.5 -69.5t-30.5 -67.5t-30.5 -68t-18.5 -71v-15q0 -20 19 -20q14 0 36.5 17.5t48.5 42t52 51.5t45 46q32 93 75 135q31 31 67 31q19 0 28 -13t9 -34q0 -2 -9 -31t-20 -66.5t-20 -74t-9 -54.5q0 -40 24 -77q12 -19 25.5 -36.5
t26.5 -34.5zM667 731q0 -26 -27 -49t-63.5 -40.5t-73.5 -28t-58 -10.5q-65 0 -99 43q-15 18 -22 41.5t-4 45.5t18.5 37t46.5 15q14 0 27.5 -13t26.5 -28t24 -28t19 -13q33 0 70 11t76 36q9 6 19 6q20 0 20 -25z" />
    <glyph glyph-name="FLW324" unicode="&#x43a;" horiz-adv-x="521" 
d="M350 264q6 -22 19.5 -43t34.5 -37q18 -13 42 -27.5t46.5 -28t38 -25t15.5 -19.5q2 -9 -6.5 -23t-22.5 -27t-30.5 -22.5t-31.5 -9.5q-23 0 -50.5 14.5t-55 37.5t-52 51.5t-40.5 57.5q-48 -55 -93 -94q-65 -56 -100 -56q-19 0 -28.5 16t-9.5 35q0 28 6 69.5t15.5 85
t20.5 84t20 67.5q6 18 15.5 43t20 47.5t21.5 38t20 16.5q11 1 25 -3t26.5 -11t21 -17t7.5 -21q-1 -9 -8 -35.5t-17.5 -63t-24 -80.5t-28.5 -87q25 33 50 64t50 59q66 76 114 120q60 54 89 54q24 0 29 -14t5 -51q0 -50 -32 -71q-33 -22 -54.5 -34.5t-42.5 -33.5l-7 -7
t-18 -19z" />
    <glyph glyph-name="FLW325" unicode="&#x43b;" horiz-adv-x="504" 
d="M242 317q9 18 20 41t24 45t27 38.5t30 21.5q58 19 97 19q22 0 27 -13.5t5 -47.5q0 -10 -4.5 -44.5t-9.5 -74.5t-9.5 -74.5t-4.5 -44.5q0 -9 9 -26.5t20 -35.5t19.5 -34t7.5 -23q-2 -8 -12 -20t-23 -23t-26 -18.5t-20 -7.5q-29 0 -48 18.5t-29.5 44t-14.5 53t-4 46.5
q0 81 15 153q-38 -76 -63 -123q-23 -43 -40 -73.5t-30 -47.5q-28 -39 -58 -55t-65 -16q-14 0 -29.5 3.5t-28 10t-21 15t-8.5 18.5q0 13 3 30.5t8.5 34t12 28.5t13.5 14q1 0 9 -1t18 -2.5l20 -3t16 -1.5q14 0 34.5 18.5t41.5 45.5t40.5 57.5t30.5 54.5z" />
    <glyph glyph-name="FLW326" unicode="&#x43c;" horiz-adv-x="810" 
d="M455 496q13 0 26.5 -20t13.5 -45q0 -8 -5 -42.5t-12 -76t-13.5 -81t-9.5 -56.5q98 151 158 232q66 89 90 89q20 0 33 -11.5t13 -35.5q0 -9 -2 -26t-4 -37l-4 -40t-2 -35q0 -6 -0.5 -17.5t-0.5 -24.5t-0.5 -24t-0.5 -14v-37q1 -18 11.5 -34.5t22.5 -31.5t21.5 -29.5
t9.5 -27.5q0 -9 -6 -24.5t-15 -30.5t-20 -25.5t-22 -10.5q-39 0 -69.5 19t-46.5 52q-12 27 -16 60.5t-4 79.5v18q-25 -31 -50 -63t-50 -62q-81 -93 -129 -93q-25 0 -39.5 17.5t-14.5 40.5l29 183q1 6 3 17.5t5 24.5t6 24.5t5 15.5q-18 -36 -34.5 -67.5t-32.5 -58.5
q-34 -61 -58.5 -98t-46.5 -57.5t-43.5 -28t-49.5 -9.5q-12 0 -28.5 4t-31 11t-24.5 17t-10 22q0 13 2.5 30.5t7.5 33t13 26t20 10.5q2 0 10.5 -1.5t19 -2.5t20 -2.5t13.5 -1.5q14 0 34.5 18.5t42 45.5t41 57.5t31.5 54.5q37 69 64 109q21 32 36.5 47t26.5 21t18 6h13t17 -2
t18 -2z" />
    <glyph glyph-name="FLW327" unicode="&#x43d;" horiz-adv-x="536" 
d="M84 278q6 19 19 58t29.5 78t35.5 69t36 32q10 1 24 -3t26 -11t20 -17t6 -21q0 -1 -7.5 -21t-17 -45.5t-18.5 -49t-12 -31.5q50 9 96.5 15t75.5 6q11 35 23 66t26 60q11 24 37 39t45 15q18 0 23.5 -9t5.5 -28v-27q-11 -42 -22.5 -86t-20.5 -82.5t-15 -68.5t-6 -43
q0 -15 4.5 -30.5t9.5 -29t8.5 -24t2.5 -14.5q-1 -7 -11 -19.5t-24.5 -24.5t-30 -20.5t-27.5 -8.5q-15 0 -27.5 10.5t-21.5 26.5t-14 35.5t-5 38.5q0 39 10 89q-27 6 -56 6q-24 0 -53 -5t-78 -16q-3 -11 -4 -35t-5.5 -50.5t-15.5 -51.5t-34 -38q-28 -16 -57 -16
q-18 0 -26.5 17t-8.5 35q0 28 6 53t15 60q-27 0 -43 10.5t-16 32.5q0 21 26 40.5t67 33.5z" />
    <glyph glyph-name="FLW328" unicode="&#x43e;" horiz-adv-x="448" 
d="M519 424q-9 -2 -23 -5.5l-30 -7.5t-30 -7t-23 -3q8 -11 13 -17.5t7.5 -13.5t3.5 -16.5t1 -25.5q0 -90 -49 -169q-39 -64 -111 -124q-32 -27 -61 -37t-81 -10q-57 0 -93 30.5t-36 89.5q0 65 29 144q23 63 49 99q65 92 106 126q32 26 57 26q12 0 25.5 -11.5t13.5 -25.5
q0 -21 -25 -59.5t-55.5 -83t-55.5 -89t-25 -77.5q0 -20 12.5 -34.5t36.5 -14.5q56 0 101 70q41 65 41 129q0 9 -3.5 25t-7.5 34t-7.5 35t-3.5 27q0 25 22.5 40t56 23.5t73 11t72.5 2.5q20 0 35 -6.5t15 -16.5q0 -20 -16 -38t-34 -20z" />
    <glyph glyph-name="FLW329" unicode="&#x43f;" horiz-adv-x="514" 
d="M501 426q0 -10 -4 -45t-9.5 -75.5t-9.5 -75.5t-4 -45q0 -14 2 -31t25 -62q9 -19 8 -28q-2 -7 -12 -19.5t-23.5 -24.5t-28.5 -20.5t-27 -8.5q-22 0 -37.5 16.5t-25 40t-13.5 49t-4 42.5q0 26 5 59t13 75q-18 -25 -39 -52t-46 -55q-20 -23 -38.5 -42.5t-34.5 -34.5
q-59 -55 -71 -62q-38 -26 -74 -26q-19 0 -29.5 17t-10.5 36q0 46 9 100.5t23.5 110t32.5 107t37 90.5q24 50 41 52q10 1 24.5 -3t27 -11.5t21 -17.5t7.5 -21q-2 -22 -11.5 -58.5t-22 -76t-25 -77t-19.5 -61.5q46 62 102 126q34 39 62.5 69.5t53.5 52.5q61 55 91 55
q24 0 29 -14t5 -51z" />
    <glyph glyph-name="FLW330" unicode="&#x440;" horiz-adv-x="480" 
d="M505 346q0 -97 -95 -221q-100 -130 -190 -130q-19 0 -44.5 11t-47.5 26q-6 -22 -10.5 -58.5t-9.5 -78.5t-12.5 -85.5t-18.5 -78.5t-27.5 -57.5t-40.5 -22.5q-37 0 -47.5 23.5t-10.5 61.5q0 8 9 49.5t22 99t28 121t27.5 115t20 82.5t5.5 22q6 25 13.5 55.5t16.5 62t18 62
t18 56.5q14 39 37 51q14 7 47 7q21 0 28 -9t7 -28q0 -17 -5 -42q43 36 69 53q49 31 81 31q61 0 86.5 -38t25.5 -140zM374 330q0 41 -3 52q-6 20 -25 20q-61 0 -98 -51q-10 -13 -24.5 -43t-28.5 -65t-26.5 -69.5t-18.5 -56.5q5 10 15.5 17.5t22.5 7.5q10 -1 23 -14t30 -13
q24 0 48 26.5t43 62.5t30.5 72t11.5 54z" />
    <glyph glyph-name="FLW331" unicode="&#x441;" horiz-adv-x="402" 
d="M441 183q0 -42 -89 -111q-109 -83 -234 -83q-51 0 -74 33.5t-23 88.5q0 19 6 44.5t15.5 51.5t21 51t23.5 42q30 43 61.5 78.5t65.5 64.5q82 69 149 69q29 0 52 -15.5t23 -42.5q0 -20 -11 -30t-26 -15t-31.5 -6.5t-27.5 -4.5q-31 -8 -63 -35.5t-57.5 -63.5t-42 -75
t-16.5 -71q0 -25 23 -25q19 0 46 10.5t57 25.5t59.5 32t52.5 29q22 0 31 -12.5t9 -29.5z" />
    <glyph glyph-name="FLW332" unicode="&#x442;" horiz-adv-x="796" 
d="M723 -14q-38 0 -66.5 18.5t-42.5 50.5q-6 15 -8 33t-2 41q0 15 1 42.5t1 37.5q-26 -31 -52.5 -61.5t-53.5 -60.5q-43 -47 -77.5 -69.5t-55.5 -22.5q-24 0 -37 18t-13 40l43 179q1 4 4 15.5t6 24t6 24t5 15.5q-8 -8 -73 -101q-34 -49 -64 -87t-55 -66q-74 -80 -116 -80
q-28 0 -40.5 22t-12.5 50q5 22 9 39t8 30q7 28 17.5 62.5t20.5 74.5q10 41 18 83.5t19 83.5q24 88 86 88q34 0 34 -39q0 -8 -1.5 -21.5t-1.5 -16.5q0 -4 -5.5 -32t-13.5 -64.5t-16 -73.5t-13 -59q4 0 19 15.5t35.5 39t43 51t41 51t31.5 39.5l13 16q68 75 99 75q9 0 18.5 -7
t17 -17.5t12.5 -21.5t5 -19q0 -1 -7.5 -36t-17 -78.5t-18 -81.5t-9.5 -46q20 25 40.5 50.5t40.5 50.5q69 85 117 138q64 70 83 70t31.5 -11.5t12.5 -34.5q0 -17 -12 -45q-14 -34 -22 -58.5t-12.5 -47t-5.5 -46.5t-1 -57q0 -19 8.5 -34.5t19 -29.5t19 -27t8.5 -27
q0 -11 -6.5 -26t-17 -29t-22 -24t-22.5 -10z" />
    <glyph glyph-name="FLW333" unicode="&#x443;" horiz-adv-x="489" 
d="M350 211l-29 -29t-59 -60q-63 -64 -96 -90q-55 -41 -92 -41q-28 0 -43 27t-15 60q0 17 5 54t14.5 82.5t23 94t31.5 88.5t40 66t47 26q19 0 31.5 -15.5t12.5 -34.5q0 3 -6 -16t-15 -49t-19.5 -66t-19.5 -66t-15 -49t-6 -15q0 -18 4 -29.5t19 -11.5t37 19t46.5 49t50 66
t47 69.5t37 60.5t20.5 38q10 20 29.5 33.5t38.5 13.5q20 0 27.5 -7.5t7.5 -30.5q0 -75 -44 -251q-15 -59 -30 -111t-29 -95q-11 -35 -21.5 -70.5t-21.5 -70.5q-20 -62 -45 -112t-50 -86q-71 -101 -152 -101q-59 0 -126 63q-73 69 -73 143q0 5 7.5 15t18.5 20.5t23.5 19
t23.5 9.5q3 0 19 -23t37.5 -51t45 -51.5t41.5 -23.5q45 0 81 68q12 22 24.5 59t24.5 79.5t23 86t20 78.5q5 20 9.5 37.5t10 36.5t12.5 41.5t17 52.5z" />
    <glyph glyph-name="FLW334" unicode="&#x444;" horiz-adv-x="737" 
d="M639 330q0 34 -5.5 44t-26.5 10q-18 0 -39.5 -11.5t-42.5 -32t-39.5 -47.5t-31.5 -59q-8 -20 -19.5 -55.5t-20.5 -61.5q6 10 16 17.5t23 7.5q9 -1 22 -14t30 -13q25 0 49 26.5t43 62t30.5 71.5t11.5 55zM366 384q-11 -11 -21.5 -12.5t-19.5 1.5t-16.5 7t-13.5 4
q-41 0 -108 -72q-72 -78 -72 -141q0 -25 16.5 -39.5t39.5 -14.5q11 0 28.5 10.5t38.5 27t44 37.5t47 43q8 36 15 66t22 83zM386 450q3 10 11.5 38t18.5 59t19 58.5t12 37.5q13 40 38 52q13 7 46 7q16 0 22 -7t6 -19v-4.5t-2 -13t-8.5 -32.5t-18.5 -64q-21 -72 -36 -117
q26 16 47.5 26.5t37.5 17.5q39 16 75 16q49 0 80 -40q36 -45 36 -119q0 -97 -95 -221q-100 -130 -191 -130q-19 0 -45.5 12.5t-54.5 29.5q-12 -43 -30 -123q-7 -31 -12 -50t-8 -32.5t-4 -25t-1 -27.5q0 -13 4 -33t4 -33q0 -30 -23.5 -56.5t-60.5 -26.5q-35 0 -47 22t-12 63
q0 9 8 41.5t20 76t26 91.5t26 88l19.5 65t6.5 22q-44 -47 -80 -72q-47 -32 -87 -32q-55 0 -94.5 35.5t-39.5 86.5v26q0 45 7.5 80t35.5 77q57 83 129 140q83 65 159 65q24 0 39 -19q9 -10 17 -36z" />
    <glyph glyph-name="FLW335" unicode="&#x445;" horiz-adv-x="484" 
d="M543 489q0 -18 -22.5 -47.5t-53.5 -61t-65 -62t-56 -51.5q10 -18 21 -36t22 -35q27 -42 42 -42q28 3 36 -14t8 -49q0 -44 -33 -70q-29 -23 -66 -23q-10 0 -30 22.5t-40.5 51t-37 54t-20.5 31.5q-23 -23 -39.5 -39t-25.5 -26q-41 -44 -44 -62q-9 -44 -27 -69t-58 -25
q-26 0 -42 19.5t-16 45.5q0 21 16 47.5t43 57.5t63 67l77 77q-38 57 -103 122q-2 2 -12.5 8.5t-22.5 16t-22 21t-10 22.5q0 8 8.5 20.5t21.5 24.5t27.5 20.5t26.5 8.5q35 0 78 -39t101 -124q52 55 85 87.5t46 43.5q52 43 81 43q17 0 30 -12t13 -24z" />
    <glyph glyph-name="FLW336" unicode="&#x446;" horiz-adv-x="559" 
d="M569 47q-23 -65 -35.5 -106.5t-12.5 -64.5q-1 -4 -1 -8v-6q0 -11 4 -30t2 -30q-3 -33 -24.5 -57.5t-54.5 -24.5q-35 0 -45.5 21t-10.5 59q0 15 5 40.5t14 55t20.5 61t24.5 58.5q-18 -11 -45.5 -18t-53 -5.5t-44 14t-18.5 41.5q0 23 8.5 57t13.5 56q-89 -102 -107 -117
q-63 -54 -138 -54q-21 0 -39.5 15.5t-18.5 35.5q0 38 12.5 94t28.5 120q12 52 25.5 92t27.5 68q36 68 84 68q13 0 24.5 -10.5t11.5 -19.5q0 -32 -18 -78q-5 -13 -12 -31.5t-13 -36.5t-11 -32t-6 -19q-14 -50 -14 -67v-13q0 -19 20 -19q14 0 35 15t45.5 38t50 49.5t47.5 50.5
q24 88 55 125q24 28 54 28q17 0 27.5 -12.5t10.5 -31.5q0 -33 -13 -81q-1 -4 -8 -27t-20 -65q-8 -28 -16.5 -58.5t-8.5 -50.5q-1 -3 -1 -13q0 -27 16 -27q3 0 12 2t20 4.5t23 4.5t19 2q22 0 36 -15t14 -35q0 -2 -2 -12z" />
    <glyph glyph-name="FLW337" unicode="&#x447;" horiz-adv-x="431" 
d="M36 325q2 11 11 40.5t22.5 60.5t29.5 55t31 24q18 0 36 -16t18 -37q0 -22 -13.5 -54.5t-22.5 -62t-4.5 -50.5t40.5 -21q17 0 29 3t23.5 10t25.5 18.5t35 29.5q11 31 24 66q5 11 12 26.5t16 34.5q12 24 38.5 38.5t45.5 14.5q14 0 20 -6t8 -15t1 -20.5t-1 -22.5
q-31 -94 -51 -170q-23 -84 -23 -110q0 -13 4 -28.5t8.5 -29.5t7.5 -24.5t2 -15.5q-2 -6 -13 -18t-26 -24t-30.5 -21t-27.5 -9q-15 0 -27 10t-20.5 25.5t-12.5 34t-4 36.5q0 19 4 43t10 51q-46 -26 -77 -36t-55 -10q-16 0 -33 8.5t-30.5 20.5t-22 26t-8.5 26q0 15 -1.5 38
t-1.5 24q0 18 3 37z" />
    <glyph glyph-name="FLW338" unicode="&#x448;" horiz-adv-x="841" 
d="M331 171q-89 -101 -114 -122q-71 -60 -146 -60q-21 0 -39.5 15.5t-18.5 35.5q0 38 12.5 94t28.5 120q12 52 25.5 92t27.5 68q36 68 84 68q13 0 24.5 -10.5t11.5 -19.5q0 -32 -18 -78q-5 -13 -12 -31.5t-13 -36.5t-11 -32t-6 -19q-14 -50 -14 -67v-13q0 -19 20 -19
q16 0 37.5 15t46 39t52.5 54t57 62q22 71 50 110q32 44 71 44q13 0 24 -11t11 -20q0 -21 -12.5 -57.5t-22.5 -65.5q-9 -26 -15 -44t-9 -29q-14 -48 -14 -66v-14q0 -10 4 -15t16 -5t32.5 16.5t44 39.5t47 49t39.5 44q22 86 62 128q28 30 62 30q17 0 27 -13t10 -32
q0 -1 -6.5 -27.5t-13.5 -60t-13.5 -66.5t-6.5 -48q0 -19 5.5 -40t19.5 -40t28.5 -37t28.5 -36q0 -10 -7.5 -22.5t-18 -24t-23 -19t-23.5 -7.5q-34 0 -57.5 18.5t-39.5 45.5t-25 58.5t-14 58.5q-28 -31 -46.5 -51.5t-28.5 -30.5q-45 -45 -85 -69q-49 -28 -102 -28
q-21 0 -38.5 14.5t-17.5 33.5q0 22 4 45q2 6 18 89z" />
    <glyph glyph-name="FLW339" unicode="&#x449;" horiz-adv-x="825" 
d="M627 0q-26 0 -43.5 13t-17.5 42q0 21 4 40q0 3 19 73q-89 -100 -107 -115q-64 -55 -138 -55q-21 0 -39 15t-18 36q0 17 6 52.5t14 66.5q-46 -51 -72.5 -79.5t-34.5 -35.5q-64 -55 -138 -55q-21 0 -39 15t-18 36q0 23 8 69q1 4 8.5 40t22.5 104q24 104 55 161q36 68 84 68
q13 0 24 -11t11 -20q0 -21 -12.5 -56.5t-22.5 -65.5q-7 -17 -13.5 -35.5t-11.5 -37.5q-14 -50 -14 -67q0 -21 2.5 -27t18.5 -6q33 0 72 41t106 112q10 38 22.5 68t26.5 53q34 52 72 52q13 0 24.5 -10.5t11.5 -20.5q0 -23 -12 -58t-24 -64l-23 -73q-14 -51 -14 -67v-13
q0 -10 4 -15t16 -5q14 0 33 13t42 34.5t49 49t54 56.5q23 88 54 126q24 28 55 28q17 0 27 -13t10 -32q0 -18 -3 -36t-9.5 -43.5t-17 -61t-25.5 -87.5q-11 -36 -12 -55q-1 -16 3.5 -28t13.5 -12q8 0 29 7t43 7t36.5 -14.5t14.5 -34.5q0 -2 -0.5 -5.5t-1.5 -8.5
q-20 -64 -34.5 -108.5t-14.5 -62.5q0 -17 4 -36t4 -26q0 -8 -4 -23t-13 -31t-24.5 -27.5t-38.5 -11.5q-36 0 -46 20.5t-10 59.5q0 28 17 84.5t47 131.5q-44 -25 -102 -25z" />
    <glyph glyph-name="FLW340" unicode="&#x44a;" horiz-adv-x="518" 
d="M353 281q-18 0 -45.5 -13t-40.5 -28q-10 -28 -19 -55t-9 -41q0 -17 12.5 -28.5t43.5 -11.5q16 0 34 11.5t33 28t25 36t10 35.5q0 35 -10.5 50.5t-33.5 15.5zM435 380q19 0 34.5 -10t26 -25.5t16 -35t5.5 -38.5q0 -100 -61 -170q-23 -28 -55 -50t-72 -39q-63 -26 -102 -26
q-21 0 -43 8.5t-39 22.5t-28 32.5t-11 38.5q0 11 7 35t15.5 51t17 50.5t11.5 32.5q6 19 12.5 40.5t13 41t11.5 35.5t8 25q-19 -6 -48 -12t-48 -6q-50 0 -66 22t-16 64q0 21 9.5 34.5t39.5 13.5q22 0 46.5 -14.5t51.5 -14.5q5 0 23.5 10t39.5 22t39.5 22t23.5 10
q19 0 30.5 -9.5t11.5 -25.5q0 -6 -5.5 -30t-13 -52.5t-14.5 -55t-11 -39.5q33 23 67 32.5t73 9.5z" />
    <glyph glyph-name="FLW341" unicode="&#x44b;" horiz-adv-x="687" 
d="M578 454q23 22 42 33t43 11q18 0 26.5 -16t8.5 -37q0 -11 -10 -49.5t-21.5 -82.5t-21.5 -83t-10 -50q0 -10 7 -20.5t15.5 -20.5t15.5 -19.5t7 -18.5q0 -10 -7 -29.5t-18 -39t-24 -34t-26 -14.5q-24 0 -42.5 12t-30.5 32t-18.5 45.5t-6.5 52.5q0 44 10 86.5t29 110.5
q1 1 -14 -9.5t-35.5 -24t-40.5 -27.5t-28 -21q0 -32 -7.5 -62t-22.5 -67q-24 -60 -85 -94t-150 -34q-22 0 -48 11.5t-48.5 29.5t-38 41t-15.5 46q0 58 18 121q3 11 19.5 54t47.5 117q19 43 49 72t72 29q13 0 22 -18.5t9 -32.5q0 -10 -11 -34q-19 -42 -31.5 -70t-17.5 -41
q-7 -17 -13 -35.5t-11 -37.5q-17 -60 -17 -86q0 -24 21.5 -31t48.5 -7q20 0 36.5 9.5t28.5 25t19 35t7 40.5q-3 -1 -11 -1q-25 0 -41.5 21t-16.5 45q0 17 6.5 34.5t17.5 32t26.5 24t32.5 9.5q63 0 88 -42q38 14 83.5 44t82.5 65z" />
    <glyph glyph-name="FLW342" unicode="&#x44c;" horiz-adv-x="438" 
d="M264 281q-18 0 -45.5 -13t-40.5 -28q-10 -28 -19 -55t-9 -41q0 -17 12.5 -28.5t43.5 -11.5q16 0 34 11.5t33 28t25 36t10 35.5q0 35 -10.5 50.5t-33.5 15.5zM346 380q20 0 35 -10t25.5 -25.5t16 -35t5.5 -38.5q0 -100 -61 -170q-23 -28 -55 -50t-72 -39q-63 -26 -102 -26
q-21 0 -42.5 8.5t-38.5 22.5t-27.5 32t-10.5 38q0 46 17 103q4 14 12 34.5t17.5 43.5t18.5 45.5t15 39.5q26 71 51 116q12 23 29 34.5t43 11.5q21 0 31.5 -6.5t10.5 -28.5q0 -10 -6.5 -28t-15.5 -38.5t-19 -40.5t-17 -35q33 23 67 32.5t73 9.5z" />
    <glyph glyph-name="FLW343" unicode="&#x44d;" horiz-adv-x="466" 
d="M326 199l-92 -2q-45 0 -71 -9q-6 -2 -11 -5q-30 0 -47.5 10t-17.5 32q0 26 18 41.5t47.5 24t65.5 11t72 2.5q28 0 40 -8t25 -21q5 19 10 34t2 26q0 37 -16.5 57t-53.5 20q-30 0 -59.5 -8.5t-60.5 -17.5q-23 0 -35 13t-12 29q0 15 15 31t41 29t59 21.5t69 8.5
q78 0 118 -52q39 -50 39 -125q0 -45 -9.5 -93.5t-28.5 -83.5q-43 -79 -110 -129.5t-138 -50.5q-24 0 -52 3.5t-52 11.5t-40 21.5t-16 33.5q0 33 10.5 58.5t39.5 25.5q27 0 53 -15t57 -15q49 0 82.5 23t58.5 68z" />
    <glyph glyph-name="FLW344" unicode="&#x44e;" horiz-adv-x="708" 
d="M304 192l-113 -21q-3 -13 -5 -32.5t-3.5 -38.5t-2.5 -33.5t-1 -19.5q-5 -31 -32.5 -49t-58.5 -18q-18 0 -28.5 17t-10.5 35q0 45 13 113q-28 0 -45 10.5t-17 31.5q0 23 23 41.5t65 33.5q5 22 16 61.5t25.5 78t30.5 67t31 29.5q10 2 24 -2t27 -11.5t21.5 -17t6.5 -20.5
q0 -5 -5 -23t-12 -40.5t-14.5 -45.5t-12.5 -38q37 7 61.5 9t47.5 2h14q4 7 14.5 23.5t12.5 18.5q62 89 132 137q52 36 82 36q13 0 25.5 -11.5t12.5 -25.5q0 -19 -22.5 -41t-46.5 -41q-42 -39 -86 -108q-56 -89 -56 -140q0 -22 12 -35.5t37 -13.5q55 0 100 70q41 65 41 129
q0 6 -3.5 18.5t-7 26t-7 26t-3.5 19.5q-2 16 9.5 28.5t38.5 13.5q12 4 26.5 -4t27.5 -19.5t23 -23t12 -14.5q5 -12 5 -50q0 -91 -48 -169q-19 -29 -46.5 -61t-64.5 -63q-31 -26 -62 -36t-81 -10q-56 0 -92.5 30.5t-36.5 88.5q0 16 2 39.5t5 42.5z" />
    <glyph glyph-name="FLW345" unicode="&#x44f;" horiz-adv-x="518" 
d="M140 374q5 21 22.5 40.5t41.5 36t51.5 28.5t51.5 19q43 12 75.5 17t64.5 5q16 0 33.5 -1.5t37.5 -2.5q15 0 26 -18.5t8 -36.5q-1 -14 -11 -23.5t-22 -13.5q-7 -22 -17 -61t-19 -80.5t-15.5 -79.5t-6.5 -58t12.5 -40t12.5 -39q0 -10 -14.5 -21.5t-33.5 -22t-37 -17.5
t-25 -7q-25 0 -36 28t-11 64q0 40 15 100q-12 -16 -28.5 -34.5t-34.5 -37.5t-35.5 -36.5t-32.5 -30.5q-35 -30 -59.5 -41.5t-58.5 -11.5q-16 0 -35.5 8t-36 20t-27 25t-7.5 24q3 12 10 26.5t16 27t19 20.5t17 8q6 0 18 -4t23.5 -9t21 -9t11.5 -4q25 0 56.5 24.5t59.5 53.5
q-21 4 -40.5 16.5t-33.5 30.5t-22.5 40t-8.5 44q0 8 1.5 18t2.5 16zM370 292l41 125q-8 0 -24 2.5t-21 2.5q-17 0 -37 -7.5t-37 -20t-28.5 -29.5t-11.5 -35q0 -22 23 -32t48 -10q11 0 25 1.5t22 2.5z" />
    <glyph glyph-name="FLW275" unicode="&#x451;" horiz-adv-x="411" 
d="M417 438q0 -45 -6 -66q-5 -18 -17 -40.5t-29 -45t-37.5 -42.5t-42.5 -32q-29 -17 -59.5 -33.5t-59.5 -32.5q2 -12 5.5 -18.5t11.5 -6.5q43 0 113 19t140 40q24 0 24 -34q0 -19 -21.5 -37.5t-55 -35t-73.5 -31t-77 -25t-66.5 -16.5t-41.5 -6q-23 0 -42 14.5t-32.5 36
t-21 47.5t-7.5 49q0 56 25 122.5t67 124t97.5 96t116.5 38.5q40 0 64.5 -23.5t24.5 -61.5zM289 407q-28 0 -53.5 -28t-47.5 -73q-7 -14 -14.5 -32t-16.5 -41q17 8 34 20t35 26q13 10 23.5 20t20.5 20q22 23 30.5 33t8.5 32q-4 9 -9 16t-11 7zM461 687q0 -37 -16.5 -58.5
t-53.5 -21.5q-64 0 -64 54q0 4 6 19t15.5 31t21.5 28.5t23 12.5q24 0 46 -22t22 -43zM259 689q0 -31 -22 -54t-53 -23q-33 0 -49 13.5t-16 31.5q2 3 12.5 23t27 43.5t28.5 23.5q26 0 51 -23q21 -20 21 -35z" />
    <glyph glyph-name="FLW261" unicode="&#x452;" horiz-adv-x="574" 
d="M292 581q-5 -15 -19.5 -57t-32 -93.5t-35 -104.5t-27.5 -90l44 47q34 37 64 82t61 85q86 107 132 107q21 0 32 -28.5t11 -99.5q0 -81 -43 -249q-16 -63 -28 -104t-24 -74.5t-26 -67t-34 -81.5q-23 -54 -50.5 -96.5t-53.5 -72.5q-75 -85 -157 -85q-58 0 -126 63
q-73 69 -73 143q0 5 7.5 14.5t18.5 20t24 19t23 10.5q3 1 19.5 -22.5t38 -51.5t44.5 -51.5t41 -23.5q51 0 90 61q2 3 26.5 63t72.5 177q20 47 35 111t28 120q6 26 8.5 40t2.5 38q-3 -3 -21 -24.5t-40.5 -48.5t-44 -52.5t-31.5 -37.5q-83 -92 -132 -127q-35 -24 -61 -24
q-22 0 -31.5 15t-12.5 37l145 492q-19 -2 -31.5 -3.5t-17.5 -0.5q-22 0 -29.5 6t-7.5 29q0 27 35 51.5t88 40.5q14 52 21 68q29 68 77 68q30 0 41 -9t11 -26q0 -12 -4 -31.5t-11 -49.5q35 0 60.5 2.5t57.5 2.5q65 0 88 -17q16 -12 16 -41q-6 -59 -92 -59q-27 0 -69 -2.5
t-98 -7.5z" />
    <glyph glyph-name="FLW351" unicode="&#x453;" horiz-adv-x="326" 
d="M97 323q-7 0 -15.5 5.5t-16 14t-12.5 18.5t-5 19q0 24 22.5 49.5t54 47t64.5 35t53 13.5q43 0 75.5 -21t32.5 -57q0 -80 -40 -132q-20 -24 -70 -72q-12 -11 -28.5 -24.5t-31 -28.5t-25 -29.5t-10.5 -27.5q0 -12 15 -12q42 0 95.5 30t108.5 62q14 0 22 -10t8 -24
q0 -28 -31 -60.5t-72.5 -60t-83.5 -46t-65 -18.5q-56 0 -96 31q-45 35 -45 84q0 19 12 39.5t32.5 41.5t46.5 43t53 43q61 48 73 66q10 13 10 38q0 7 -12 7t-27.5 -10t-32 -22t-32 -22t-27.5 -10zM515 771q0 -19 -5 -39t-15 -36.5t-24.5 -27.5t-32.5 -11t-44 -7.5t-58 -19
t-66.5 -26t-68.5 -27.5q-5 0 -12 5.5t-14 12.5t-11.5 15t-4.5 12q0 18 18.5 38t47.5 39.5t64 37t67.5 31t59.5 21.5t39 8q60 0 60 -26z" />
    <glyph glyph-name="FLW277" unicode="&#x454;" horiz-adv-x="419" 
d="M176 220q-13 -33 -13 -67q0 -23 10 -30t35 -7q32 0 90 30q16 9 44 26t55 28t47 9t20 -31q0 -41 -101 -109q-119 -80 -245 -80q-51 0 -74 33.5t-23 88.5q0 19 6 44.5t15.5 51.5t21 51t23.5 42q30 43 61.5 78.5t65.5 64.5q82 69 149 69q29 0 52 -15.5t23 -42.5
q0 -34 -26 -42q-58 -5 -99 -26.5t-83 -73.5q16 0 26.5 2.5t28.5 2.5q45 0 71 9q6 2 11 5q30 0 47.5 -10t17.5 -32q0 -26 -18 -41.5t-47.5 -24t-65.5 -11t-72 -2.5h-27q-13 0 -16 2.5t-10 7.5z" />
    <glyph glyph-name="FLW280" unicode="&#x455;" horiz-adv-x="409" 
d="M332 358q-10 0 -20 10t-10 19q0 5 3 13t3 12q0 10 -11 10q-18 0 -34.5 -21t-16.5 -48q0 -15 9 -29l18 -28l10.5 -18.5t23 -42t23 -45.5t10.5 -30q0 -45 -67 -111q-85 -84 -202 -84q-49 0 -68 6q-33 11 -33 42q0 22 15 37t38 24.5t50.5 13.5t51.5 4q28 0 48.5 13.5
t20.5 27.5q1 5 -9.5 30t-23 54t-23 54.5t-10.5 32.5q0 77 94 170q100 99 200 99q18 0 39 -17t21 -37q0 -12 -16 -39.5t-39.5 -55t-49 -48t-45.5 -18.5z" />
    <glyph glyph-name="FLW272" unicode="&#x456;" horiz-adv-x="263" 
d="M326 679q0 -7 -8 -22t-19.5 -29.5t-23.5 -25.5t-21 -11t-24.5 10t-31.5 24t-27.5 28t-11.5 23t9 24t21.5 29.5t26 25.5t22.5 11q14 0 29 -8t28.5 -20.5t22 -28t8.5 -30.5zM236 441q0 -31 -33 -123q-5 -12 -19.5 -43t-14.5 -57q0 -9 2.5 -20t6 -22.5t6 -20.5t2.5 -13
q0 -18 -15 -52q-39 -88 -101 -88q-32 0 -41.5 26t-9.5 62q0 21 10 63t24 88.5t30.5 90.5t28.5 70q46 99 86 99q19 0 28.5 -17t9.5 -43z" />
    <glyph glyph-name="FLW281" unicode="&#x457;" horiz-adv-x="263" 
d="M211 674q0 -8 -8 -22.5t-19 -29t-23.5 -25.5t-21.5 -11t-24.5 10t-31.5 24t-27.5 28t-11.5 23t9 24t21.5 29.5t26 25.5t22.5 11q13 0 28.5 -8t29 -20.5t22 -28t8.5 -30.5zM236 441q0 -31 -33 -123q-5 -12 -19.5 -43t-14.5 -57q0 -9 2.5 -20t6 -22.5t6 -20.5t2.5 -13
q0 -18 -15 -52q-39 -88 -101 -88q-32 0 -41.5 26t-9.5 62q0 21 10 63t24 88.5t30.5 90.5t28.5 70q46 99 86 99q19 0 28.5 -17t9.5 -43zM416 679q0 -7 -8 -22t-19.5 -29.5t-23.5 -25.5t-21 -11t-24.5 10t-31.5 24t-27.5 28t-11.5 23t9 24t21.5 29.5t26 25.5t22.5 11
q14 0 29 -8t28.5 -20.5t22 -28t8.5 -30.5z" />
    <glyph glyph-name="FLW278" unicode="&#x458;" horiz-adv-x="385" 
d="M337 442q0 1 -4.5 -20.5t-12 -55t-16 -73.5t-16 -78t-14 -68t-8.5 -42q-10 -46 -18.5 -91t-18.5 -90q-11 -50 -26 -88t-30 -62q-39 -62 -99 -62q-26 0 -54.5 12.5t-56.5 31t-52.5 40t-42.5 39.5q-28 28 -28 46q0 37 23 64t49 27q13 0 27 -13t27 -30t25 -34.5t20 -25.5
q13 -15 20 -22.5t36 -7.5q14 0 25 21t20 55t16.5 78.5t15.5 90.5q6 39 13 80t13.5 81t14 76.5t15.5 64.5q12 43 47 75q30 27 53 27q20 0 28.5 -9.5t8.5 -36.5zM363 655q0 -9 -8 -24t-19.5 -29t-24 -24.5t-21.5 -10.5q-8 0 -24 10.5t-32 24.5t-27.5 28.5t-11.5 22.5t9.5 23
t22 30t26 26t21.5 11q14 0 29.5 -8t28.5 -21t22 -28.5t9 -30.5z" />
    <glyph glyph-name="FLW349" unicode="&#x459;" horiz-adv-x="667" 
d="M525 263q-18 0 -45.5 -13t-40.5 -28q-10 -28 -19 -55t-9 -41q0 -17 12.5 -28.5t43.5 -11.5q16 0 34 11.5t33 28t25 36t10 35.5q0 35 -10.5 50.5t-33.5 15.5zM208 81q-62 -71 -123 -71q-14 0 -29.5 3.5t-28 10t-21 15t-8.5 18.5q0 13 3 30.5t8.5 34t12 28.5t13.5 14
q1 0 9 -1t18 -2.5l20 -3t16 -1.5q12 0 38.5 21t56 50t54.5 59t34 49q9 18 20 41t24 45t27 38.5t30 21.5q31 10 52 13t49 3q21 0 31.5 -6.5t10.5 -28.5q0 -10 -6.5 -28t-15.5 -38.5t-19 -40.5t-17 -35q33 23 67 32.5t73 9.5q19 0 34.5 -10t26 -25.5t16 -35t5.5 -38.5
q0 -100 -61 -170q-23 -28 -55 -50t-72 -39q-63 -26 -102 -26q-23 0 -44.5 8t-38 21.5t-27 31t-10.5 37.5t5 44.5t12.5 50t16.5 49.5t16 43q-16 -25 -29.5 -46.5t-25.5 -38.5q-38 -56 -66 -87z" />
    <glyph glyph-name="FLW347" unicode="&#x45a;" horiz-adv-x="727" 
d="M573 281q-18 0 -45.5 -13t-40.5 -28q-10 -28 -19 -55t-9 -41q0 -17 12.5 -28.5t43.5 -11.5q16 0 34 11.5t33 28t25 36t10 35.5q0 35 -10.5 50.5t-33.5 15.5zM180 187q-3 -11 -4 -35t-5.5 -50.5t-15.5 -51.5t-34 -38q-28 -16 -57 -16q-18 0 -26.5 17t-8.5 35q0 28 6 53
t15 60q-27 0 -43 10.5t-16 32.5q0 21 26 40.5t67 33.5q6 19 19 58t29.5 78t35.5 69t36 32q10 1 24 -3t26 -11t20 -17t6 -21q0 -1 -7.5 -21t-17 -45.5t-18.5 -49t-12 -31.5q50 9 96.5 15t75.5 6q5 12 9 22.5t11 25t17 34.5l25 50q12 23 29 34.5t43 11.5q21 0 31.5 -6.5
t10.5 -28.5q0 -10 -6.5 -28t-15.5 -38.5t-19 -40.5t-17 -35q33 23 67 32.5t73 9.5q19 0 34.5 -10t26 -25.5t16 -35t5.5 -38.5q0 -100 -61 -170q-23 -28 -55 -50t-72 -39q-63 -26 -102 -26q-21 0 -42.5 8.5t-38.5 22.5t-27.5 32t-10.5 38q0 68 20 123q-18 0 -33 -1t-33 -3
t-42 -7t-60 -12z" />
    <glyph glyph-name="FLW263" unicode="&#x45b;" horiz-adv-x="574" 
d="M249 167q-83 -92 -132 -127q-35 -24 -61 -24q-22 0 -31.5 15t-12.5 37l145 492q-19 -2 -31.5 -3.5t-17.5 -0.5q-22 0 -29.5 6t-7.5 29q0 27 35 51.5t88 40.5q14 52 21 68q29 68 77 68q30 0 41 -9t11 -26q0 -12 -4 -31.5t-11 -49.5q35 0 60.5 2.5t57.5 2.5q65 0 88 -17
q16 -12 16 -41q-6 -59 -92 -59q-27 0 -69 -2.5t-98 -7.5q-5 -15 -19.5 -57t-32 -93.5t-35 -104.5t-27.5 -90l44 47q34 37 64 82t61 85q86 107 132 107q29 0 37 -24.5t8 -73.5q0 -14 -2 -43.5t-5 -61.5t-5 -61t-2 -43q0 -4 6.5 -22t14 -38.5t14 -38.5t6.5 -22q0 -49 -30 -87
t-78 -38q-25 0 -43.5 20.5t-18.5 46.5q0 9 0.5 35.5t1.5 57t1.5 57t0.5 35.5l1 74q-3 -3 -21.5 -25.5t-41.5 -50t-44.5 -53t-29.5 -34.5z" />
    <glyph glyph-name="FLW262" unicode="&#x45c;" horiz-adv-x="521" 
d="M350 264q6 -22 19.5 -43t34.5 -37q18 -13 42 -27.5t46.5 -28t38 -25t15.5 -19.5q2 -9 -6.5 -23t-22.5 -27t-30.5 -22.5t-31.5 -9.5q-23 0 -50.5 14.5t-55 37.5t-52 51.5t-40.5 57.5q-48 -55 -93 -94q-65 -56 -100 -56q-19 0 -28.5 16t-9.5 35q0 28 6 69.5t15.5 85
t20.5 84t20 67.5q6 18 15.5 43t20 47.5t21.5 38t20 16.5q11 1 25 -3t26.5 -11t21 -17t7.5 -21q-1 -9 -8 -35.5t-17.5 -63t-24 -80.5t-28.5 -87q25 33 50 64t50 59q66 76 114 120q60 54 89 54q24 0 29 -14t5 -51q0 -50 -32 -71q-33 -22 -54.5 -34.5t-42.5 -33.5l-7 -7
t-18 -19zM659 755q0 -19 -5 -39t-15 -36.5t-24.5 -27.5t-32.5 -11t-44 -7.5t-58 -19t-66.5 -26t-68.5 -27.5q-5 0 -12 5.5t-14 12.5t-11.5 15t-4.5 12q0 18 18.5 38t47.5 39.5t64 37t67.5 31t59.5 21.5t39 8q60 0 60 -26z" />
    <glyph glyph-name="FLW265" unicode="&#x45e;" horiz-adv-x="489" 
d="M350 211l-29 -29t-59 -60q-63 -64 -96 -90q-55 -41 -92 -41q-28 0 -43 27t-15 60q0 17 5 54t14.5 82.5t23 94t31.5 88.5t40 66t47 26q19 0 31.5 -15.5t12.5 -34.5q0 3 -6 -16t-15 -49t-19.5 -66t-19.5 -66t-15 -49t-6 -15q0 -18 4 -29.5t19 -11.5t37 19t46.5 49t50 66
t47 69.5t37 60.5t20.5 38q10 20 29.5 33.5t38.5 13.5q20 0 27.5 -7.5t7.5 -30.5q0 -75 -44 -251q-15 -59 -30 -111t-29 -95q-11 -35 -21.5 -70.5t-21.5 -70.5q-20 -62 -45 -112t-50 -86q-71 -101 -152 -101q-59 0 -126 63q-73 69 -73 143q0 5 7.5 15t18.5 20.5t23.5 19
t23.5 9.5q3 0 19 -23t37.5 -51t45 -51.5t41.5 -23.5q45 0 81 68q12 22 24.5 59t24.5 79.5t23 86t20 78.5q5 20 9.5 37.5t10 36.5t12.5 41.5t17 52.5zM586 694q0 -29 -29.5 -54.5t-69.5 -45t-81 -31t-64 -11.5q-70 0 -107 48q-31 40 -31 94q0 25 15 40t50 15q43 0 59.5 -20.5
t28.5 -46.5q9 -16 27 -16q88 0 160 49q11 7 20 7q22 0 22 -28z" />
    <glyph glyph-name="FLW350" unicode="&#x45f;" horiz-adv-x="567" 
d="M573 66q0 -10 -8.5 -23.5t-21.5 -25.5t-27 -20.5t-26 -8.5q-35 0 -58.5 20t-38 49t-22 62.5t-9.5 60.5q-41 -44 -62 -65.5t-22 -22.5q-25 -24 -48.5 -42t-45.5 -31q-55 -31 -110 -31q-25 0 -40.5 16.5t-15.5 37.5q0 34 30 134q11 37 18 60t9 31q35 114 69 170
q44 71 94 71q13 0 24 -12t11 -21q-4 -36 -18.5 -69.5t-30.5 -67.5t-30.5 -68t-18.5 -71v-15q0 -20 19 -20q14 0 36.5 17.5t48.5 42t52 51.5t45 46q32 93 75 135q31 31 67 31q19 0 28 -13t9 -34q0 -2 -9 -31t-20 -66.5t-20 -74t-9 -54.5q0 -40 24 -77q12 -19 25.5 -36.5
t26.5 -34.5zM388 -35q0 -84 -64 -169q-56 -75 -87 -75q-8 0 -19.5 8.5t-11.5 14.5q0 12 11 39t23.5 56t23.5 55.5t11 38.5q0 3 -7.5 11t-17 17.5t-17 19.5t-7.5 16q0 7 10.5 21.5t24 29.5t27.5 26.5t21 11.5q33 0 56 -35t23 -86z" />
    <glyph glyph-name="FLW267" unicode="&#x490;" horiz-adv-x="434" 
d="M485 579q-21 -8 -40 -8q-12 0 -30 1.5t-19 1.5q-28 0 -59 -5.5t-55 -11.5q-13 -31 -23 -59t-18 -53q-11 -33 -21 -68.5t-18.5 -69.5t-15 -64.5t-10.5 -52.5q-11 -64 -11 -106q0 -40 -22 -66.5t-62 -26.5q-24 0 -46 22t-22 50q0 48 19 117q2 5 11 34t21.5 66.5t25 74.5
t21.5 59q13 32 27 63.5t28 63.5q-9 3 -22 7t-25 9.5t-20.5 13t-8.5 18.5q0 26 15 44.5t40.5 30.5t58.5 19t69 10q16 0 43.5 2t55.5 4.5t50 4.5t26 2q7 15 7 28t-6 25t-13 22t-13 18.5t-6 14.5q0 7 10.5 21.5t24 29.5t27.5 26.5t21 11.5q32 0 55 -35.5t23 -85.5
q0 -97 -28 -146q-23 -40 -65 -57z" />
    <glyph glyph-name="FLW273" unicode="&#x491;" horiz-adv-x="453" 
d="M555 495q-23 -67 -69.5 -98t-116.5 -31q-46 0 -82 7.5t-62 13.5q-21 -76 -31.5 -141t-19 -113.5t-17.5 -79.5t-27 -39q-18 -9 -62 -9q-28 0 -42.5 22.5t-14.5 50.5q30 88 54.5 160.5t24.5 124.5q0 10 -2 26t-2 24q0 7 1 15t3 13q10 33 30 59t41 26q41 -15 86.5 -27.5
t79.5 -12.5q53 0 90 18q20 9 28 35t8 52q0 -2 -5.5 7.5t-12.5 22t-12.5 25.5t-5.5 18q0 7 10.5 21.5t24 29.5t27.5 26.5t21 11.5q32 0 55 -35.5t23 -85.5q0 -41 -4.5 -69t-18.5 -68z" />
    <glyph glyph-name="endash" unicode="&#x2013;" horiz-adv-x="764" 
d="M682 288q0 -31 -25.5 -55.5t-59.5 -24.5q-22 5 -44 14t-53 14l-347 -44q-28 0 -46.5 10.5t-18.5 31.5q0 42 113 77q31 10 85 20.5t113 19.5t113 14.5t85 5.5q54 0 69.5 -16.5t15.5 -66.5z" />
    <glyph glyph-name="emdash" unicode="&#x2014;" horiz-adv-x="928" 
d="M888 277q0 -30 -28.5 -53.5t-59.5 -23.5q-6 0 -20.5 4t-32 9t-34.5 9t-27 4q-45 0 -99 -2t-117 -6q-34 -2 -88 -6t-130 -11q-24 -2 -49 -5.5t-50 -3.5q-28 0 -46.5 10.5t-18.5 31.5q0 27 49 46t121.5 32t155.5 21.5t152 14.5q152 12 217 12q53 0 79 -22t26 -61z" />
    <glyph glyph-name="quoteleft" unicode="&#x2018;" horiz-adv-x="346" 
d="M204 566q0 84 63 170q55 75 88 75q7 0 18.5 -8.5t11.5 -15.5q0 -29 -21 -69q-48 -94 -48 -119q0 -3 7.5 -11t17 -17.5t17 -19.5t7.5 -16q0 -7 -10.5 -21.5t-24 -29.5t-27.5 -26.5t-21 -11.5q-33 0 -55.5 34.5t-22.5 85.5z" />
    <glyph glyph-name="quoteright" unicode="&#x2019;" horiz-adv-x="346" 
d="M365 683q0 -84 -63 -169q-56 -75 -88 -75q-7 0 -18.5 8.5t-11.5 14.5q0 12 11 39t23.5 56t23.5 55.5t11 38.5q0 3 -7.5 11t-17 17.5t-17 19.5t-7.5 16q0 7 10.5 21.5t24 29.5t27.5 26.5t21 11.5q32 0 55 -35.5t23 -85.5z" />
    <glyph glyph-name="quotesinglbase" unicode="&#x201a;" horiz-adv-x="346" 
d="M253 37q0 -84 -64 -169q-55 -75 -87 -75q-8 0 -19.5 8.5t-11.5 14.5q0 12 11 38.5t23.5 56t23.5 56t11 38.5q0 3 -7.5 11t-17 17.5t-17 19.5t-7.5 16q0 7 10.5 21.5t24 29.5t27.5 26.5t21 11.5q33 0 56 -35t23 -86z" />
    <glyph glyph-name="quotedblleft" unicode="&#x201c;" horiz-adv-x="505" 
d="M387 608q0 85 64 170q55 75 87 75q8 0 19.5 -8.5t11.5 -14.5q0 -12 -11 -38.5t-23.5 -56t-23.5 -56t-11 -38.5q0 -3 7.5 -11t17 -17.5t17 -19.5t7.5 -16q0 -7 -10.5 -21.5t-24 -29.5t-27.5 -26.5t-21 -11.5q-33 0 -56 35t-23 85zM191 601q0 84 63 170q56 75 88 75
q7 0 18.5 -8.5t11.5 -14.5q0 -12 -11 -39t-23.5 -56t-23.5 -55.5t-11 -38.5q0 -3 7.5 -11t17 -17.5t17 -19.5t7.5 -16q0 -7 -10.5 -21.5t-24 -29.5t-27.5 -26.5t-21 -11.5q-32 0 -55 35.5t-23 84.5z" />
    <glyph glyph-name="quotedblright" unicode="&#x201d;" horiz-adv-x="505" 
d="M358 718q0 -84 -63 -169q-55 -75 -88 -75q-7 0 -18.5 8.5t-11.5 14.5q0 12 11 38.5t23.5 56t23.5 56t11 38.5q0 3 -7.5 11t-17 17.5t-17 19.5t-7.5 16q0 7 10.5 21.5t24 29.5t27.5 26.5t21 11.5q32 0 55 -35.5t23 -85.5zM555 725q0 -84 -64 -169q-55 -75 -87 -75
q-8 0 -19.5 8.5t-11.5 14.5q0 12 11 38.5t23.5 56t23.5 56t11 38.5q0 3 -7.5 11t-17 17.5t-17 19.5t-7.5 16q0 7 10.5 21.5t24 29.5t27.5 26.5t21 11.5q33 0 56 -35t23 -86z" />
    <glyph glyph-name="quotedblbase" unicode="&#x201e;" horiz-adv-x="505" 
d="M253 37q0 -84 -64 -169q-55 -75 -87 -75q-8 0 -19.5 8.5t-11.5 14.5q0 12 11 38.5t23.5 56t23.5 56t11 38.5q0 3 -7.5 11t-17 17.5t-17 19.5t-7.5 16q0 7 10.5 21.5t24 29.5t27.5 26.5t21 11.5q33 0 56 -35t23 -86zM449 44q0 -84 -63 -169q-56 -75 -88 -75
q-7 0 -18.5 8.5t-11.5 14.5q0 12 11 39t23.5 56t23.5 55.5t11 38.5q0 3 -7.5 11t-17 17.5t-17 19.5t-7.5 16q0 7 10.5 21.5t24 29.5t27.5 26.5t21 11.5q32 0 55 -35.5t23 -85.5z" />
    <glyph glyph-name="dagger" unicode="&#x2020;" horiz-adv-x="371" 
d="M523 497q0 -11 -18 -22t-45 -21.5t-60 -19.5t-63 -16.5t-53.5 -12.5t-31.5 -6q-12 -24 -23.5 -48t-22.5 -48q-16 -36 -28 -66t-21 -55q-14 -39 -17.5 -91t-3.5 -93q0 -39 -19 -56t-52 -17q-31 0 -42.5 13.5t-11.5 45.5v12q0 12 3 29t10.5 43t21 63t34.5 91q8 22 19 47
t22 48.5t21.5 43.5t16.5 32q-52 7 -67.5 29t-15.5 61q0 25 14 39t38 14q25 0 48 -7t45 -13q2 4 6.5 19t9.5 23t15.5 30t23 44.5t24 40t18.5 17.5q29 0 37.5 -15t5 -36.5t-14.5 -45.5t-21 -42q0 -1 -4.5 -7.5t-10 -15.5t-10.5 -19t-6 -16q-1 0 28.5 6.5t66 14.5t69.5 14.5
t38 6.5q20 0 23.5 -10.5t3.5 -27.5z" />
    <glyph glyph-name="daggerdbl" unicode="&#x2021;" horiz-adv-x="392" 
d="M538 566q0 -18 -35.5 -35t-80.5 -31t-87 -23.5t-56 -11.5l-48 -96q4 -1 7 -1h4q5 0 19.5 3.5t23.5 3.5q34 0 62.5 5t61.5 11q20 0 23.5 -10.5t3.5 -27.5q0 -14 -21 -30t-56.5 -31t-81 -27.5t-94.5 -18.5q-11 -28 -15.5 -48.5t-7.5 -40t-5.5 -43t-8.5 -58.5q-7 -35 -7 -43
q0 -39 -19 -56t-52 -17q-31 0 -42.5 13.5t-11.5 45.5v12q0 18 9 52.5t22 72.5t26 72t20 51q-43 8 -63.5 26.5t-20.5 62.5q0 28 13.5 39.5t33.5 12.5t43 -4.5t43 -10.5q7 17 14.5 35.5t19.5 41.5q-52 7 -67.5 29t-15.5 61q0 25 14 39t38 14q25 0 48 -7t45 -13l34 66
q22 43 42 74t31 33q29 2 31.5 -18.5t-6.5 -48t-22.5 -55.5t-18.5 -41q-2 -10 -6 -22q42 0 91 10t99 21q20 0 23.5 -10.5t3.5 -27.5z" />
    <glyph glyph-name="bullet" unicode="&#x2022;" horiz-adv-x="600" 
d="M309 386q36 4 63.5 -21t27.5 -61q0 -37 -22.5 -63.5t-58.5 -26.5q-38 0 -65 22.5t-27 58.5t25.5 63.5t56.5 27.5z" />
    <glyph glyph-name="ellipsis" unicode="&#x2026;" horiz-adv-x="949" 
d="M260 68q0 -10 -8 -21t-20.5 -20.5t-28.5 -15.5t-31 -6q-16 0 -34 14t-33.5 33.5t-26 40.5t-10.5 35q0 12 11.5 28t28 29.5t33.5 23t29 9.5q17 0 33 -16.5t29 -40.5t20.5 -49.5t7.5 -43.5zM569 64q0 -9 -8.5 -20t-21 -20.5t-28 -16t-30.5 -6.5q-16 0 -34 14t-33.5 33.5
t-26 40.5t-10.5 35q0 13 11.5 28.5t28 29t33.5 23t29 9.5q16 0 32 -17t29 -41t21 -49.5t8 -42.5zM856 75q0 -10 -8 -21t-20.5 -20.5t-28 -15.5t-30.5 -6q-16 0 -34 14t-33.5 33.5t-26 40.5t-10.5 35q0 12 11.5 28t27.5 29.5t33.5 23t28.5 9.5q17 0 33 -16.5t29 -40.5
t20.5 -49.5t7.5 -43.5z" />
    <glyph glyph-name="guilsinglleft" unicode="&#x2039;" horiz-adv-x="473" 
d="M422 445q0 -12 -19 -32t-45 -41t-52 -40t-39 -29q30 -47 49 -77.5t27 -44.5q22 -40 22 -58t-7.5 -36.5t-19.5 -33t-28 -24t-32 -9.5q-20 0 -49 34.5t-56 79.5t-46 87.5t-19 59.5q0 20 30 49.5t68 58t73 51.5t46 29q41 24 69 24q14 0 21 -13.5t7 -34.5z" />
    <glyph glyph-name="guilsinglright" unicode="&#x203a;" 
d="M390 342q0 -49 -31 -101q0 1 -15.5 -22t-37 -53.5t-43.5 -62t-34 -47.5q-33 -45 -68 -45q-31 0 -38 4q-14 8 -14 32q0 2 9 18.5t22.5 40.5t29 52t29 52.5t22.5 41.5t9 19q0 5 -21.5 23.5t-47.5 39.5t-47.5 40.5t-22.5 25.5q0 12 9 28.5t22.5 31t29.5 25t31 10.5
q13 0 47 -18.5t69.5 -43t63 -50.5t27.5 -41z" />
    <glyph glyph-name="FLW276" unicode="&#x2116;" horiz-adv-x="1076" 
d="M1057 592q0 -90 -62 -203q-77 -140 -185 -140q-40 0 -71 37.5t-31 96.5q0 84 65 188q78 123 181 123q18 0 36 -9.5t33 -24.5t24.5 -33t9.5 -35zM948 144q0 -19 -10.5 -30t-28.5 -17t-41 -7.5t-47 -1.5q-68 0 -102 8q-63 16 -63 62q0 29 27 40.5t69 11.5q21 0 39 -1.5
t35 -1.5q23 0 45 -2.5t39 -9t27.5 -19t10.5 -32.5zM703 698v-117q0 -32 -25 -58q-23 -24 -38.5 -34.5t-29.5 -23.5t-29 -36t-38 -72q-47 -101 -71 -153.5t-26 -54.5q-58 -109 -97 -109q-22 0 -33 18t-15.5 47.5t-5 68.5t-0.5 81q0 75 -5.5 107t-16.5 50q-55 -173 -96 -280
q-43 -112 -94 -112q-9 0 -18.5 5.5t-17.5 14t-13.5 18.5t-5.5 19q0 11 8 44.5t19.5 77.5t25 92t25 88t19.5 65.5l8 25.5q7 43 11.5 72.5t8.5 45.5q12 54 47 54q26 0 53 -21q4 6 10 15.5t12.5 18.5t13 15.5t11.5 6.5q27 0 51.5 -28.5t39.5 -85.5q11 -43 21 -86.5t21 -86.5
q6 6 19 30.5t29 58t32.5 71t29.5 68t21 49t6 14.5q42 87 68 87q28 0 48 -26q17 -23 17 -44zM921 473q0 9 -8 15t-20 9q-16 4 -29.5 -10.5t-20 -33.5t-2 -35.5t24.5 -16.5q16 0 33.5 25t21.5 47z" />
    <glyph glyph-name="trademark" unicode="&#x2122;" horiz-adv-x="784" 
d="M759 708q0 -13 -6.5 -45.5t-14.5 -68.5t-14.5 -68.5t-6.5 -45.5q0 -10 2.5 -15t5.5 -9t5.5 -10.5t2.5 -19.5q0 -28 -16 -49.5t-47 -21.5q-21 0 -36.5 16.5t-15.5 44.5q0 34 9 78t17 84q-26 -36 -47 -65t-38 -51q-55 -70 -76 -73q-26 0 -34.5 20t-8.5 49l1 109
q-14 -33 -27.5 -61t-24.5 -50q-35 -68 -53 -84q-23 -22 -43 -28.5t-45 -6.5q-18 0 -28 20.5t-10 47.5q0 10 13 18.5t30.5 18.5t36 22t30.5 28q15 21 31.5 69.5t36.5 99t43 88.5t51 38q34 0 44 -20.5t9 -58.5l-8 -170q0 -1 -3 -1t-2 0v6q-2 0 11 17.5t33 43.5t44.5 56t46 56
t36.5 43.5t17 17.5q28 0 38.5 -20t10.5 -49zM408 727q0 -24 -21.5 -44.5t-41.5 -20.5q-7 0 -18 12t-23 12h-38q-20 -70 -32 -113t-23 -87q-5 -23 -5 -41v-16t1 -16q0 -27 -14 -49.5t-39 -22.5q-21 0 -38.5 17.5t-17.5 40.5q0 10 9.5 44.5t21.5 72.5t22.5 69t11.5 35l17 56
q-8 -2 -22.5 -4.5t-30.5 -5t-30.5 -4.5t-22.5 -2q-17 0 -30.5 9t-13.5 27q0 20 9 31.5t23.5 18t33.5 9t40 5.5q42 7 72 11.5t49 7.5q73 12 78 12q73 0 73 -64z" />
    <glyph glyph-name="FLW274" unicode="&#x2219;" horiz-adv-x="502" 
d="M358 326q1 -9 -7.5 -29t-22 -41t-28.5 -36.5t-26 -15.5q-17 0 -34.5 5t-32 13t-23.5 18.5t-9 22.5q0 8 10 26.5t23.5 38t28 34.5t23.5 17q11 2 27.5 -2.5t32.5 -13t27 -18.5t11 -19z" />
    </font>
</defs>
</svg>
