<svg xmlns:xlink="http://www.w3.org/1999/xlink" xmlns="http://www.w3.org/2000/svg" viewBox="0 0 512 512" class="css-1plk8lf" width="512"  height="512" ><path d="M464.648 81.37a129.217 129.217 0 00-81.258-61.503l-12.111-2.997a64.918 64.918 0 00-25.522-1.137l-96.014 14.861C215.96 35.823 188.448 60.5 179.59 93.518l-4.165 15.524a10.302 10.302 0 01-6.801 7.14l-144.34 46.335c-12.464 4.001-19.209 17.46-14.956 29.84l27.495 80.019c10.234 29.785 38.253 49.785 69.748 49.785h120.842c31.129 0 61.092 14.407 78.653 40.11 22.653 33.155 38.868 102.84 43.926 126.612a10.294 10.294 0 0010.073 8.148l20.854.002h120.779c5.69 0 10.302-4.612 10.302-10.302V167.268c0-1.787-.465-3.544-1.349-5.097z" fill="#FEF0DC"></path><path d="M464.653 81.374a129.05 129.05 0 00-45.915-46.914c.471.744 21.014 33.776 36.669 85.741-6.415-6.746-17.217-12.492-35.426-15.698-39.65-6.98-104.888-19.493-124.625 4.643C261.749 150.244 306.89 289.2 407.947 289.2c30.077 0 46.005-48.49 52.761-91.66.942-6.017 9.699-5.777 10.311.282 3.981 39.454 2.318 83.61-10.343 129.621-23.674 86.02-74.183 124.621-115.112 141.938a765.424 765.424 0 014.428 19.502 10.292 10.292 0 0010.074 8.148h141.632c5.69 0 10.302-4.612 10.302-10.302V167.267c0-1.787-.465-3.544-1.349-5.097z" fill="#FCDDB3"></path><path d="M2.693 197.487l24.271 46.192s56.496-17.595 39.135-94.585l-49.566 15.184c-13.999 4.289-20.651 20.248-13.84 33.209z" fill="#81635E"></path><path d="M26.962 243.679l-11.69-22.255c28.425-17.54 28.425-46.894 25.268-64.506l25.557-7.821c17.365 76.99-39.135 94.582-39.135 94.582z" fill="#6C524E"></path><ellipse cx="209.089" cy="114.167" fill="#81635E" rx="10.963" ry="14.132"></ellipse><path d="M356.453 305.212c-22.108 17.503-48.841 28.515-76.707 31.843-12.589-7.943-27.094-12.857-42.176-14.381h24.23c30.751 0 60.956-10.497 85.062-29.576a7.73 7.73 0 0110.858 1.267c2.648 3.347 2.081 8.21-1.267 10.847z" fill="#FCDDB3"></path><path d="M272.464 83.642c-33.607 41.099 11.534 180.055 112.592 180.055 44.247 0 57.876-104.954 56.725-143.517-.453-15.186-5.042-34.201-44.692-41.181-39.651-6.98-104.889-19.493-124.625 4.643z" fill="#E09977"></path><path d="M385.054 263.697c-36.623 0-65.911-18.255-86.752-43.484 8.406 9.436 70.804 19.1 98.114-44.37 27.63-64.221-9.684-98.671-9.684-98.671 3.606.628 7.067 1.247 10.353 1.823 39.652 6.985 44.236 26.002 44.689 41.187 1.156 38.561-12.474 143.515-56.72 143.515z" fill="#DA875D"></path><path d="M303.574 212.186c.082.113.175.216.268.33-.206-.237-.402-.484-.597-.721.102.103.216.237.329.391z" fill="#D46A50"></path></svg>